<?xml version="1.0" standalone="no"?>
<!DOCTYPE svg PUBLIC "-//W3C//DTD SVG 20010904//EN"
 "http://www.w3.org/TR/2001/REC-SVG-20010904/DTD/svg10.dtd">
<svg version="1.0" xmlns="http://www.w3.org/2000/svg"
 width="3825.000000pt" height="1817.000000pt" viewBox="0 0 3825.000000 1817.000000"
 preserveAspectRatio="xMidYMid meet">

<g transform="translate(0.000000,1817.000000) scale(0.100000,-0.100000)"
fill="#000000" stroke="none">
<path d="M427 18030 c-40 -35 -57 -85 -57 -171 1 -108 46 -179 116 -179 72 0
114 69 114 186 0 92 -25 156 -71 179 -41 22 -64 19 -102 -15z m105 -60 c12
-23 18 -58 18 -105 0 -75 -12 -110 -46 -132 -20 -12 -25 -12 -49 9 -23 20 -28
34 -32 90 -7 82 2 133 28 159 29 29 61 21 81 -21z"/>
<path d="M697 18030 c-40 -35 -57 -85 -57 -171 1 -108 46 -179 116 -179 72 0
114 69 114 186 0 92 -25 156 -71 179 -41 22 -64 19 -102 -15z m105 -60 c12
-23 18 -58 18 -105 0 -75 -12 -110 -46 -132 -20 -12 -25 -12 -49 9 -23 20 -28
34 -32 90 -7 82 2 133 28 159 29 29 61 21 81 -21z"/>
<path d="M977 18030 c-40 -35 -57 -85 -57 -171 1 -108 46 -179 116 -179 72 0
114 69 114 186 0 92 -25 156 -71 179 -41 22 -64 19 -102 -15z m105 -60 c12
-23 18 -58 18 -105 0 -75 -12 -110 -46 -132 -20 -12 -25 -12 -49 9 -23 20 -28
34 -32 90 -7 82 2 133 28 159 29 29 61 21 81 -21z"/>
<path d="M37304 18050 c-74 -30 -108 -205 -58 -301 32 -63 92 -87 145 -59 51
28 84 170 59 259 -7 26 -26 59 -45 78 -33 33 -61 40 -101 23z m80 -73 c17 -23
21 -43 21 -105 0 -97 -17 -136 -62 -140 -27 -3 -34 2 -47 26 -47 91 -15 259
47 250 11 -2 29 -16 41 -31z"/>
<path d="M37574 18050 c-74 -30 -108 -205 -58 -301 32 -63 92 -87 145 -59 51
28 84 170 59 259 -7 26 -26 59 -45 78 -33 33 -61 40 -101 23z m80 -73 c17 -23
21 -43 21 -105 0 -97 -17 -136 -62 -140 -27 -3 -34 2 -47 26 -47 91 -15 259
47 250 11 -2 29 -16 41 -31z"/>
<path d="M37830 18053 c-54 -20 -75 -77 -44 -121 46 -66 143 -36 143 43 0 55
-51 95 -99 78z m50 -47 c28 -35 -11 -93 -47 -70 -36 22 -23 84 17 84 10 0 23
-7 30 -14z"/>
<path d="M37928 17883 c-62 -97 -117 -182 -121 -190 -6 -9 -2 -13 11 -13 14 0
51 48 133 177 63 97 118 182 122 190 6 9 2 13 -12 13 -14 0 -49 -46 -133 -177z"/>
<path d="M180 17865 l0 -185 25 0 25 0 0 185 0 185 -25 0 -25 0 0 -185z"/>
<path d="M37040 17865 l0 -185 25 0 25 0 0 185 0 185 -25 0 -25 0 0 -185z"/>
<path d="M37976 17819 c-57 -45 -19 -139 56 -139 33 0 78 42 78 72 0 72 -78
111 -134 67z m88 -41 c15 -24 -3 -52 -37 -56 -33 -4 -53 28 -37 59 14 25 58
23 74 -3z"/>
<path d="M6438 16793 c-12 -14 -238 -363 -272 -420 -5 -9 0 -13 17 -13 20 0
45 33 163 218 76 119 138 219 137 222 -5 13 -31 9 -45 -7z"/>
<path d="M5559 16783 c-62 -38 -77 -120 -34 -172 20 -23 23 -31 12 -38 -26
-16 -47 -58 -47 -95 0 -29 8 -47 34 -75 30 -33 39 -37 92 -40 72 -5 118 19
141 74 18 43 6 98 -27 128 -19 18 -19 18 5 47 44 52 30 129 -31 169 -36 23
-109 25 -145 2z m121 -63 c25 -25 25 -51 2 -81 -37 -45 -122 -16 -122 42 0 29
36 59 70 59 17 0 39 -9 50 -20z m-2 -186 c27 -18 30 -69 5 -96 -16 -18 -77
-25 -99 -10 -13 8 -34 46 -34 60 0 5 9 21 21 36 24 30 72 35 107 10z"/>
<path d="M5850 16686 l0 -114 45 0 c61 1 99 -26 103 -74 4 -51 -35 -81 -98
-76 -25 3 -53 8 -62 12 -15 7 -18 3 -18 -22 0 -25 6 -32 31 -41 50 -17 118
-13 154 9 37 23 65 73 65 117 0 66 -67 133 -132 133 -27 0 -28 2 -28 55 l0 54
68 3 c64 3 67 4 67 28 0 25 -1 25 -97 28 l-98 3 0 -115z"/>
<path d="M6157 16775 c-42 -42 -42 -97 0 -139 69 -69 184 6 153 100 -22 65
-105 86 -153 39z m101 -37 c7 -7 12 -21 12 -33 0 -28 -19 -45 -50 -45 -31 0
-50 17 -50 45 0 28 19 45 50 45 14 0 31 -5 38 -12z"/>
<path d="M423 16770 c-17 -10 -37 -28 -42 -39 -19 -35 -13 -94 13 -126 22 -27
30 -30 79 -29 l55 0 -15 -30 c-9 -17 -34 -48 -56 -69 -38 -35 -40 -39 -24 -54
15 -16 19 -15 54 13 20 17 51 57 70 90 61 109 40 230 -44 253 -50 14 -53 14
-90 -9z m97 -50 c25 -25 27 -85 4 -94 -53 -20 -104 5 -104 51 0 57 61 82 100
43z"/>
<path d="M723 16776 c-51 -23 -77 -84 -77 -181 -1 -64 4 -88 22 -122 26 -49
47 -63 97 -63 113 0 160 240 67 340 -33 36 -67 44 -109 26z m79 -67 c43 -57
31 -213 -19 -246 -21 -14 -25 -14 -47 1 -35 22 -52 110 -37 184 18 91 62 117
103 61z"/>
<path d="M993 16776 c-51 -23 -77 -84 -77 -181 -1 -64 4 -88 22 -122 26 -49
47 -63 97 -63 113 0 160 240 67 340 -33 36 -67 44 -109 26z m79 -67 c43 -57
31 -213 -19 -246 -21 -14 -25 -14 -47 1 -35 22 -52 110 -37 184 18 91 62 117
103 61z"/>
<path d="M15087 16698 c-163 -254 -227 -356 -227 -367 0 -17 25 -13 42 7 18
20 268 410 275 429 3 8 -3 13 -16 13 -15 0 -35 -22 -74 -82z"/>
<path d="M14252 16750 c-46 -28 -68 -82 -53 -131 6 -20 18 -42 26 -49 13 -11
12 -16 -9 -41 -35 -41 -41 -82 -19 -126 23 -47 70 -75 128 -75 80 0 135 51
135 125 0 32 -22 75 -46 90 -10 5 -7 14 11 32 95 103 -50 250 -173 175z m120
-57 c18 -16 24 -58 10 -80 -20 -32 -94 -32 -114 0 -13 20 -9 65 8 81 20 21 73
20 96 -1z m7 -199 c26 -33 27 -58 1 -84 -25 -25 -86 -27 -112 -3 -26 23 -24
78 4 97 35 25 83 20 107 -10z"/>
<path d="M14598 16636 c-60 -73 -108 -141 -108 -150 0 -14 14 -16 90 -16 l90
0 0 -70 0 -70 35 0 35 0 0 70 c0 63 2 70 20 70 16 0 20 7 20 30 0 23 -4 30
-20 30 -19 0 -20 7 -20 120 0 108 -2 120 -17 120 -11 0 -62 -55 -125 -134z
m69 -103 c-3 -2 -24 -3 -47 -1 l-42 3 43 55 44 54 3 -53 c2 -29 1 -55 -1 -58z"/>
<path d="M14849 16741 c-61 -62 -19 -161 69 -161 51 0 92 43 92 97 0 49 -45
93 -95 93 -27 0 -44 -8 -66 -29z m99 -33 c7 -7 12 -21 12 -33 0 -12 -5 -26
-12 -33 -17 -17 -65 -15 -72 4 -16 41 1 74 39 74 12 0 26 -5 33 -12z"/>
<path d="M22964 16750 c-11 -4 -33 -22 -47 -40 -33 -39 -35 -91 -7 -138 l21
-33 -26 -30 c-52 -62 -24 -151 57 -183 130 -53 253 91 161 190 l-24 26 21 23
c85 91 -35 234 -156 185z m110 -83 c19 -26 19 -30 5 -55 -22 -40 -62 -51 -97
-25 -35 26 -40 65 -12 93 29 29 77 24 104 -13z m-10 -178 c26 -20 34 -60 18
-86 -12 -19 -61 -34 -88 -27 -28 7 -54 39 -54 67 0 26 45 67 73 67 13 0 36 -9
51 -21z"/>
<path d="M23294 16626 c-60 -74 -109 -141 -109 -148 0 -10 24 -14 93 -16 l92
-3 0 -69 0 -70 30 0 30 0 0 70 c0 68 1 70 26 70 22 0 25 4 22 28 -2 19 -9 28
-25 30 -22 3 -23 7 -23 123 0 92 -3 119 -13 119 -8 0 -63 -60 -123 -134z m76
-51 l0 -55 -46 0 c-25 0 -44 3 -42 8 7 18 74 101 81 102 4 0 7 -25 7 -55z"/>
<path d="M23552 16735 c-38 -32 -46 -65 -28 -110 11 -25 26 -40 51 -50 100
-42 177 90 93 160 -38 32 -78 32 -116 0z m92 -41 c24 -23 19 -51 -10 -71 -43
-28 -88 14 -66 61 13 30 51 35 76 10z"/>
<path d="M23777 16678 c-147 -229 -227 -356 -227 -362 0 -4 10 -6 22 -4 16 2
59 61 164 226 131 203 141 222 118 222 -19 0 -34 -16 -77 -82z"/>
<path d="M6374 16532 c-33 -26 -47 -60 -40 -98 14 -70 97 -97 155 -48 26 21
31 33 31 69 0 36 -5 48 -31 69 -36 30 -84 34 -115 8z m90 -48 c19 -19 20 -35
4 -56 -20 -24 -44 -28 -67 -12 -23 17 -28 53 -9 72 17 17 54 15 72 -4z"/>
<path d="M15061 16493 c-44 -41 -45 -96 -5 -137 70 -69 185 4 154 99 -22 65
-98 85 -149 38z m97 -35 c19 -19 14 -55 -10 -72 -12 -9 -26 -16 -30 -16 -13 0
-48 39 -48 54 0 37 61 61 88 34z"/>
<path d="M23780 16499 c-62 -24 -80 -106 -35 -152 42 -42 97 -42 139 0 47 47
28 130 -36 152 -36 13 -35 13 -68 0z m68 -51 c7 -7 12 -24 12 -38 0 -31 -17
-50 -45 -50 -28 0 -45 19 -45 50 0 31 17 50 45 50 12 0 26 -5 33 -12z"/>
<path d="M465 15513 c-37 -7 -67 -27 -81 -55 -20 -38 -17 -71 7 -102 l21 -27
-23 -25 c-37 -39 -33 -98 9 -135 74 -66 202 -21 202 71 0 26 -26 77 -42 82 -8
3 -5 12 10 28 61 66 -11 179 -103 163z m53 -59 c31 -21 30 -69 -3 -90 -43 -28
-103 12 -91 61 10 40 57 55 94 29z m12 -174 c27 -27 25 -46 -6 -76 -19 -20
-31 -24 -52 -19 -37 9 -54 28 -54 61 0 51 72 74 112 34z"/>
<path d="M730 15506 c-121 -39 -116 -331 7 -365 73 -21 134 50 141 166 9 138
-58 229 -148 199z m74 -69 c31 -41 31 -183 0 -224 -43 -58 -86 -34 -105 59
-20 100 18 206 70 196 8 -2 23 -16 35 -31z"/>
<path d="M1000 15506 c-121 -39 -116 -331 7 -365 73 -21 134 50 141 166 9 138
-58 229 -148 199z m74 -69 c31 -41 31 -183 0 -224 -43 -58 -86 -34 -105 59
-20 100 18 206 70 196 8 -2 23 -16 35 -31z"/>
<path d="M37045 15513 c-84 -16 -121 -106 -68 -165 15 -17 15 -20 -8 -44 -37
-39 -33 -98 9 -135 74 -66 202 -21 202 71 0 26 -26 77 -42 82 -8 3 -5 12 10
28 61 66 -11 179 -103 163z m53 -59 c31 -21 30 -69 -3 -90 -43 -28 -103 12
-91 61 10 40 57 55 94 29z m12 -174 c27 -27 25 -46 -6 -76 -19 -20 -31 -24
-52 -19 -37 9 -54 28 -54 61 0 51 72 74 112 34z"/>
<path d="M37310 15506 c-25 -8 -41 -23 -60 -56 -49 -89 -25 -265 41 -300 86
-47 167 36 168 171 2 133 -63 213 -149 185z m74 -69 c31 -41 31 -183 0 -224
-43 -58 -86 -34 -105 59 -20 100 18 206 70 196 8 -2 23 -16 35 -31z"/>
<path d="M37641 15329 c-67 -105 -120 -194 -117 -196 17 -18 35 6 264 365 13
20 13 22 -5 22 -15 0 -52 -50 -142 -191z"/>
<path d="M37511 15484 c-44 -56 -5 -134 67 -134 33 0 72 45 72 83 0 72 -95
107 -139 51z m83 -17 c38 -27 -2 -95 -41 -71 -25 16 -29 55 -7 71 10 7 21 13
24 13 3 0 14 -6 24 -13z"/>
<path d="M37713 15290 c-47 -19 -58 -92 -20 -128 32 -30 81 -29 112 3 39 38
27 102 -22 124 -28 13 -40 13 -70 1z m65 -42 c19 -19 14 -56 -9 -68 -25 -14
-44 -8 -58 18 -21 39 36 81 67 50z"/>
<path d="M30390 14935 l0 -35 90 0 c50 0 90 -4 90 -8 0 -5 -34 -84 -76 -177
-41 -92 -73 -169 -71 -172 3 -2 17 -5 31 -6 25 -2 31 8 121 211 52 117 95 214
95 217 0 3 -63 5 -140 5 l-140 0 0 -35z"/>
<path d="M30790 14958 c-60 -32 -94 -124 -88 -238 8 -127 58 -196 142 -194 57
2 110 61 127 142 21 101 -7 228 -60 277 -25 22 -90 29 -121 13z m85 -65 c28
-27 37 -64 38 -148 0 -112 -34 -174 -88 -161 -34 9 -57 58 -63 136 -9 136 54
233 113 173z"/>
<path d="M31067 14964 c-4 -4 -7 -56 -7 -116 l0 -108 49 0 c61 0 101 -28 101
-71 0 -78 -65 -103 -163 -64 -16 7 -18 3 -15 -26 3 -32 6 -35 56 -47 67 -16
121 -3 156 38 28 34 42 87 32 127 -11 42 -67 91 -115 99 l-41 7 0 53 0 54 71
0 70 0 -3 28 c-3 27 -3 27 -93 30 -50 1 -94 0 -98 -4z"/>
<path d="M370 14215 c0 -25 1 -25 80 -25 44 0 80 -2 80 -4 0 -2 -29 -70 -65
-150 -36 -81 -63 -151 -60 -157 4 -5 14 -9 24 -9 12 0 37 46 96 178 43 97 80
180 82 185 2 4 -50 7 -116 7 l-121 0 0 -25z"/>
<path d="M702 14220 c-42 -39 -56 -80 -57 -165 0 -101 22 -151 79 -179 39 -19
40 -19 75 0 48 26 72 72 79 149 10 124 -39 215 -115 215 -26 0 -47 -7 -61 -20z
m84 -35 c47 -32 57 -189 16 -244 -40 -55 -84 -31 -102 56 -20 95 10 195 60
202 3 1 15 -6 26 -14z"/>
<path d="M972 14220 c-42 -39 -56 -80 -57 -165 0 -101 22 -151 79 -179 39 -19
40 -19 75 0 48 26 72 72 79 149 10 124 -39 215 -115 215 -26 0 -47 -7 -61 -20z
m84 -35 c47 -32 57 -189 16 -244 -40 -55 -84 -31 -102 56 -20 95 10 195 60
202 3 1 15 -6 26 -14z"/>
<path d="M31617 13013 c-4 -3 -7 -55 -7 -115 l0 -108 48 0 c52 0 89 -19 101
-54 11 -29 -5 -71 -33 -86 -24 -12 -96 -10 -129 5 -16 7 -18 3 -15 -26 3 -32
6 -35 52 -46 65 -16 120 -4 159 36 40 39 49 119 19 167 -22 34 -76 64 -116 64
-25 0 -26 2 -26 55 l0 55 70 0 70 0 0 30 0 30 -93 0 c-52 0 -97 -3 -100 -7z"/>
<path d="M31937 13014 c-4 -4 -7 -56 -7 -116 l0 -108 48 0 c52 0 89 -19 101
-54 11 -29 -5 -71 -33 -86 -24 -12 -96 -10 -128 4 -15 7 -18 3 -18 -23 0 -38
29 -53 107 -54 60 0 94 18 123 66 54 87 -12 207 -114 207 -25 0 -26 2 -26 55
l0 55 71 0 70 0 -3 28 c-3 27 -3 27 -93 30 -50 1 -94 0 -98 -4z"/>
<path d="M32239 12991 c-39 -40 -40 -93 -2 -133 73 -76 199 12 152 105 -32 63
-102 75 -150 28z m104 -42 c15 -24 1 -66 -25 -72 -47 -13 -79 30 -53 70 18 28
61 29 78 2z"/>
<path d="M32384 12803 c-76 -119 -140 -220 -142 -225 -7 -15 35 -8 50 10 8 9
68 100 133 202 65 102 125 195 133 208 13 21 13 22 -10 22 -21 0 -45 -31 -164
-217z"/>
<path d="M473 12936 c-22 -19 -52 -59 -68 -88 -24 -43 -30 -65 -30 -120 0 -60
3 -70 29 -97 37 -39 83 -48 129 -26 49 23 73 75 58 125 -16 55 -44 75 -102 75
-27 0 -49 1 -49 3 0 16 37 67 70 94 39 34 40 35 21 52 -18 17 -21 16 -58 -18z
m58 -197 c36 -36 6 -99 -48 -99 -50 0 -86 86 -45 109 28 17 71 12 93 -10z"/>
<path d="M701 12944 c-55 -46 -75 -154 -46 -250 18 -60 50 -93 98 -101 32 -5
41 -1 71 29 42 42 60 103 53 183 -5 66 -36 138 -66 155 -34 18 -78 11 -110
-16z m109 -59 c9 -19 15 -58 15 -107 0 -86 -23 -133 -65 -133 -42 0 -65 46
-64 133 0 102 21 145 67 140 24 -2 36 -11 47 -33z"/>
<path d="M971 12944 c-55 -46 -75 -154 -46 -250 18 -60 50 -93 98 -101 32 -5
41 -1 71 29 42 42 60 103 53 183 -5 66 -36 138 -66 155 -34 18 -78 11 -110
-16z m109 -59 c9 -19 15 -58 15 -107 0 -86 -23 -133 -65 -133 -42 0 -65 46
-64 133 0 102 21 145 67 140 24 -2 36 -11 47 -33z"/>
<path d="M37053 12936 c-22 -19 -52 -59 -68 -88 -24 -43 -30 -65 -30 -120 0
-60 3 -70 29 -97 37 -38 81 -48 129 -28 38 16 67 59 67 99 0 30 -33 84 -61 98
-12 7 -39 10 -60 7 -22 -3 -39 -3 -39 -1 0 18 36 68 70 96 39 34 40 35 21 52
-18 17 -21 16 -58 -18z m57 -196 c11 -11 20 -29 20 -40 0 -28 -35 -60 -65 -60
-51 0 -89 85 -47 109 28 17 71 12 92 -9z"/>
<path d="M37281 12944 c-55 -46 -75 -154 -46 -250 18 -60 50 -93 98 -101 32
-5 41 -1 71 29 42 42 60 103 53 183 -5 66 -36 138 -66 155 -34 18 -78 11 -110
-16z m109 -59 c9 -19 15 -58 15 -107 0 -62 -4 -82 -21 -105 -12 -15 -29 -30
-38 -31 -65 -13 -98 157 -49 251 12 23 20 28 46 25 24 -2 36 -11 47 -33z"/>
<path d="M37515 12945 c-16 -15 -25 -36 -25 -55 0 -19 9 -40 25 -55 72 -73
178 28 114 109 -28 35 -80 36 -114 1z m90 -55 c0 -33 -2 -35 -35 -35 -29 0
-36 4 -38 23 -6 40 5 54 40 50 30 -3 33 -6 33 -38z"/>
<path d="M37703 12883 c-173 -269 -184 -288 -168 -291 9 -2 18 -2 19 0 13 14
236 367 236 372 0 3 -7 6 -15 6 -9 0 -41 -39 -72 -87z"/>
<path d="M32456 12749 c-38 -30 -49 -64 -36 -105 14 -42 44 -64 88 -64 46 0
71 16 87 53 18 43 9 82 -27 112 -36 31 -77 32 -112 4z m88 -45 c9 -8 16 -23
16 -31 0 -21 -29 -53 -48 -53 -22 0 -52 30 -52 51 0 23 26 49 50 49 10 0 26
-7 34 -16z"/>
<path d="M37714 12746 c-33 -15 -44 -33 -44 -72 0 -38 16 -61 50 -73 37 -12
72 -1 94 31 22 31 20 62 -6 92 -30 32 -56 38 -94 22z m57 -36 c37 -20 15 -87
-27 -78 -9 2 -23 12 -30 23 -12 18 -11 24 2 43 17 25 27 27 55 12z"/>
<path d="M400 11605 l0 -95 40 0 c79 0 118 -76 63 -120 -28 -22 -74 -24 -115
-6 -15 7 -18 3 -18 -18 0 -21 7 -27 39 -37 88 -26 171 23 171 101 0 71 -43
120 -105 120 -23 0 -25 4 -25 50 l0 50 55 0 c52 0 55 1 55 25 0 25 -1 25 -80
25 l-80 0 0 -95z"/>
<path d="M701 11674 c-33 -28 -61 -102 -61 -164 0 -62 28 -136 61 -164 43 -37
83 -34 124 7 41 41 59 103 52 182 -11 138 -97 206 -176 139z m109 -59 c18 -38
20 -159 1 -202 -7 -18 -22 -35 -32 -38 -31 -10 -56 4 -70 38 -15 35 -18 136
-6 179 18 64 80 78 107 23z"/>
<path d="M971 11674 c-33 -28 -61 -102 -61 -164 0 -62 28 -136 61 -164 43 -37
83 -34 124 7 41 41 59 103 52 182 -11 138 -97 206 -176 139z m109 -59 c18 -38
20 -159 1 -202 -7 -18 -22 -35 -32 -38 -31 -10 -56 4 -70 38 -15 35 -18 136
-6 179 18 64 80 78 107 23z"/>
<path d="M32918 10858 c-22 -8 -28 -16 -28 -40 0 -25 3 -29 18 -23 69 31 132
7 132 -49 0 -37 -12 -51 -53 -61 -22 -6 -27 -13 -27 -36 0 -22 5 -29 19 -29
27 0 71 -38 71 -61 0 -69 -63 -91 -153 -54 -16 7 -18 3 -15 -26 3 -30 8 -35
46 -48 59 -18 108 -7 149 34 28 28 33 40 33 80 0 48 -13 82 -38 101 -13 9 -12
14 6 32 30 30 37 83 17 125 -27 58 -105 82 -177 55z"/>
<path d="M33261 10852 c-69 -37 -86 -113 -40 -175 l21 -28 -25 -25 c-47 -47
-43 -117 9 -164 40 -35 93 -47 143 -31 54 16 83 51 89 109 3 41 0 52 -22 80
l-27 31 22 30 c26 35 28 98 4 135 -19 29 -72 56 -112 56 -15 0 -44 -8 -62 -18z
m107 -58 c47 -33 17 -114 -43 -114 -37 0 -65 28 -65 65 0 37 28 65 65 65 11 0
31 -7 43 -16z m15 -206 c24 -28 21 -55 -8 -83 -26 -27 -54 -31 -88 -14 -29 16
-37 28 -37 60 0 62 90 88 133 37z"/>
<path d="M33512 10833 c3 -28 3 -28 95 -33 l92 -5 -75 -168 c-40 -92 -74 -171
-74 -176 0 -4 11 -13 24 -19 24 -11 25 -8 120 203 53 118 96 217 96 220 0 3
-63 5 -141 5 l-140 0 3 -27z"/>
<path d="M21743 10460 c-15 -6 -23 -18 -23 -33 0 -23 3 -24 56 -23 50 1 59 -2
76 -25 18 -24 19 -30 7 -55 -9 -18 -26 -31 -46 -36 -28 -7 -33 -13 -33 -38 0
-25 4 -30 25 -30 56 0 86 -77 45 -115 -15 -14 -30 -16 -67 -13 -27 3 -56 9
-66 13 -16 7 -18 3 -15 -26 3 -30 7 -35 48 -46 56 -17 101 -10 139 23 55 46
59 146 9 188 -16 13 -19 20 -10 23 18 7 42 57 42 88 0 84 -100 140 -187 105z"/>
<path d="M22050 10355 l0 -115 41 0 c92 0 143 -75 87 -127 -32 -29 -71 -35
-118 -19 l-40 14 0 -29 c0 -32 16 -44 77 -54 31 -5 53 -2 87 13 60 27 81 67
77 156 -1 40 -61 94 -112 102 l-39 7 0 53 0 54 65 0 65 0 0 30 0 30 -95 0 -95
0 0 -115z"/>
<path d="M22437 10464 c-4 -4 -7 -103 -7 -221 l0 -213 35 0 35 0 -2 218 -3
217 -25 3 c-14 2 -29 0 -33 -4z"/>
<path d="M447 10319 c-48 -60 -90 -116 -93 -124 -5 -13 7 -15 75 -15 l81 0 0
-65 c0 -63 1 -65 25 -65 24 0 25 2 25 65 0 58 2 65 20 65 13 0 20 7 20 20 0
13 -7 20 -20 20 -19 0 -20 7 -20 105 0 78 -3 105 -12 104 -7 0 -53 -50 -101
-110z m63 -49 l0 -50 -40 0 c-22 0 -40 3 -40 7 0 10 64 92 73 93 4 0 7 -22 7
-50z"/>
<path d="M701 10404 c-21 -17 -36 -44 -47 -82 -52 -177 67 -343 171 -239 74
74 74 240 0 314 -41 41 -81 43 -124 7z m105 -56 c27 -53 30 -146 6 -201 -18
-41 -25 -47 -51 -47 -23 0 -34 7 -45 28 -20 39 -29 103 -21 156 14 91 78 128
111 64z"/>
<path d="M971 10404 c-21 -17 -36 -44 -47 -82 -52 -177 67 -343 171 -239 74
74 74 240 0 314 -41 41 -81 43 -124 7z m105 -56 c27 -53 30 -146 6 -201 -18
-41 -25 -47 -51 -47 -23 0 -34 7 -45 28 -20 39 -29 103 -21 156 14 91 78 128
111 64z"/>
<path d="M37027 10319 c-48 -60 -90 -116 -93 -124 -5 -13 7 -15 75 -15 l81 0
0 -65 c0 -63 1 -65 25 -65 24 0 25 2 25 65 0 58 2 65 20 65 13 0 20 7 20 20 0
13 -7 20 -20 20 -19 0 -20 7 -20 105 0 78 -3 105 -12 104 -7 0 -53 -50 -101
-110z m63 -49 l0 -50 -40 0 c-22 0 -40 2 -40 5 0 10 65 94 73 95 4 0 7 -22 7
-50z"/>
<path d="M37281 10404 c-33 -28 -61 -102 -61 -164 0 -101 57 -190 122 -190 39
0 92 52 107 105 25 92 7 191 -44 242 -41 41 -81 43 -124 7z m105 -56 c27 -53
30 -146 6 -201 -18 -41 -25 -47 -51 -47 -23 0 -34 7 -45 28 -20 39 -29 103
-21 156 14 91 78 128 111 64z"/>
<path d="M37535 10418 c-49 -28 -59 -78 -24 -122 27 -35 86 -36 117 -3 61 65
-16 169 -93 125z m63 -40 c34 -34 -6 -90 -48 -68 -35 19 -20 80 20 80 9 0 21
-5 28 -12z"/>
<path d="M37724 10373 c-57 -89 -189 -296 -198 -310 -5 -9 -1 -13 11 -13 14 0
54 55 141 190 97 152 117 190 102 190 -13 0 -32 -20 -56 -57z"/>
<path d="M4373 10388 c-39 -8 -43 -12 -43 -39 0 -26 3 -29 21 -24 44 14 93 8
111 -15 33 -41 16 -84 -37 -98 -22 -6 -31 -15 -33 -35 -3 -22 2 -27 25 -33 42
-10 63 -33 63 -69 0 -47 -29 -69 -82 -62 -24 2 -51 8 -60 12 -15 6 -18 2 -18
-24 0 -37 26 -51 93 -51 114 0 174 124 102 208 l-23 27 24 28 c34 41 33 97 -3
137 -33 37 -82 50 -140 38z"/>
<path d="M4808 10372 c-64 -69 -208 -256 -205 -266 2 -7 39 -12 95 -14 l92 -3
0 -69 0 -70 30 0 30 0 0 69 c0 65 2 70 23 73 16 2 23 11 25 31 3 23 0 27 -22
27 l-26 0 0 119 c0 66 -4 122 -8 125 -5 3 -20 -7 -34 -22z m-18 -162 l0 -60
-51 0 -50 0 47 60 c26 33 49 60 50 60 2 0 4 -27 4 -60z"/>
<path d="M4980 10277 l0 -114 45 0 c61 0 99 -28 103 -75 4 -51 -35 -81 -98
-76 -25 3 -53 8 -62 12 -15 7 -18 3 -18 -22 0 -39 39 -56 115 -50 44 4 62 11
85 33 83 79 41 217 -69 232 l-41 6 0 53 0 54 65 0 65 0 0 30 0 30 -95 0 -95 0
0 -113z"/>
<path d="M37692 10187 c-60 -64 7 -161 87 -127 53 21 66 86 26 125 -32 33 -83
34 -113 2z m94 -43 c8 -30 -11 -54 -42 -54 -30 0 -49 33 -34 59 19 37 66 34
76 -5z"/>
<path d="M6828 9839 c-33 -17 -38 -24 -38 -54 0 -40 9 -44 34 -16 51 56 147
19 146 -57 -1 -32 -37 -97 -103 -184 -36 -49 -69 -92 -72 -98 -4 -6 41 -10
129 -10 l136 0 0 30 0 30 -81 0 -80 0 46 60 c25 33 54 79 65 102 65 143 -51
267 -182 197z"/>
<path d="M7174 9841 c-47 -28 -64 -59 -64 -112 0 -83 79 -145 152 -120 17 6
33 11 35 11 13 0 -48 -88 -84 -121 -37 -34 -42 -43 -33 -59 16 -30 36 -25 85
21 54 50 103 145 111 215 16 131 -101 226 -202 165z m113 -63 c16 -15 23 -33
23 -59 0 -36 -2 -39 -40 -50 -36 -11 -44 -10 -68 8 -35 26 -41 74 -13 102 27
27 69 27 98 -1z"/>
<path d="M7468 9839 c-33 -17 -38 -24 -38 -54 0 -40 9 -44 34 -16 51 56 147
19 146 -57 -1 -32 -37 -97 -103 -184 -36 -49 -69 -92 -72 -98 -4 -6 41 -10
129 -10 l136 0 0 30 0 30 -81 0 -80 0 46 60 c25 33 54 79 65 102 65 143 -51
267 -182 197z"/>
<path d="M24213 9613 c-29 -14 -33 -22 -33 -55 l0 -37 36 24 c45 30 73 31 108
4 54 -43 31 -115 -84 -266 l-70 -93 140 0 140 0 0 30 0 30 -85 0 -85 0 43 53
c84 103 109 195 73 266 -30 58 -114 78 -183 44z"/>
<path d="M24552 9610 c-72 -44 -80 -140 -16 -199 33 -31 40 -33 89 -29 48 4
52 3 47 -15 -3 -11 -31 -48 -63 -82 -57 -60 -58 -63 -40 -79 25 -23 44 -13
104 54 106 118 117 291 22 350 -41 26 -101 26 -143 0z m123 -60 c10 -11 18
-36 19 -57 1 -34 -2 -39 -34 -49 -82 -27 -137 45 -82 109 21 23 74 22 97 -3z"/>
<path d="M24927 9578 c-64 -64 -99 -133 -105 -210 -5 -71 1 -98 34 -137 65
-78 197 -49 224 48 13 49 -3 103 -42 136 -28 24 -39 27 -85 23 -29 -3 -53 -2
-53 2 0 15 61 90 93 116 33 26 34 29 20 51 -8 13 -19 23 -24 23 -4 0 -32 -24
-62 -52z m75 -215 c18 -16 24 -68 10 -89 -25 -38 -88 -36 -118 4 -20 25 -17
79 4 91 27 16 83 13 104 -6z"/>
<path d="M13043 9189 c-40 -19 -43 -24 -43 -61 l0 -40 31 26 c64 55 139 24
139 -57 0 -47 -32 -104 -124 -221 -25 -33 -46 -63 -46 -68 0 -5 60 -7 133 -6
l132 3 0 30 0 30 -77 3 -77 3 54 74 c69 97 87 164 59 221 -38 75 -109 100
-181 63z"/>
<path d="M13731 9075 c-61 -74 -111 -142 -111 -150 0 -12 16 -15 90 -15 l89 0
3 -72 c3 -71 4 -73 31 -76 l27 -3 0 75 c0 74 1 76 25 76 34 0 37 47 3 52 -22
3 -23 7 -26 126 -1 67 -7 122 -12 122 -4 0 -58 -61 -119 -135z m69 -55 l0 -60
-45 0 c-25 0 -45 3 -45 6 0 6 83 114 87 114 2 0 3 -27 3 -60z"/>
<path d="M13438 9161 c-96 -85 -142 -230 -101 -322 46 -104 197 -105 240 -2
41 99 -39 200 -139 175 -21 -5 -38 -7 -38 -2 0 14 57 85 94 118 37 32 37 34
20 53 -9 10 -20 19 -24 19 -4 0 -27 -18 -52 -39z m47 -213 c64 -29 41 -128
-30 -128 -41 0 -67 29 -69 77 -1 30 4 39 24 50 31 16 42 16 75 1z"/>
<path d="M408 9153 c-11 -3 -18 -14 -18 -28 0 -21 3 -22 45 -17 52 5 85 -15
85 -54 0 -25 -34 -54 -62 -54 -13 0 -18 -8 -18 -25 0 -17 5 -25 18 -25 31 0
62 -29 62 -59 0 -54 -56 -75 -122 -46 -26 11 -24 -41 1 -55 47 -25 138 -2 161
39 18 35 12 108 -11 130 l-21 20 21 27 c65 82 -26 177 -141 147z"/>
<path d="M701 9134 c-42 -35 -66 -117 -57 -197 22 -214 216 -208 233 7 7 80
-11 142 -52 183 -41 41 -81 44 -124 7z m93 -39 c38 -39 47 -155 16 -222 -16
-37 -23 -43 -49 -43 -23 0 -34 7 -45 28 -59 114 5 309 78 237z"/>
<path d="M971 9134 c-42 -35 -66 -117 -57 -197 22 -214 216 -208 233 7 7 80
-11 142 -52 183 -41 41 -81 44 -124 7z m93 -39 c38 -39 47 -155 16 -222 -16
-37 -23 -43 -49 -43 -23 0 -34 7 -45 28 -59 114 5 309 78 237z"/>
<path d="M16215 8745 c-5 -2 -22 -6 -37 -9 -23 -5 -28 -12 -28 -36 0 -28 2
-30 28 -23 59 16 98 4 112 -32 16 -42 -13 -85 -57 -85 -19 0 -23 -6 -23 -30 0
-26 5 -31 30 -37 57 -11 78 -75 39 -114 -22 -22 -63 -23 -126 -3 -20 6 -23 3
-23 -24 0 -25 6 -32 31 -41 72 -25 150 -7 182 42 29 44 25 116 -7 154 l-24 28
24 28 c40 47 28 120 -26 158 -24 17 -75 29 -95 24z"/>
<path d="M15513 8720 c-27 -16 -33 -26 -33 -55 0 -19 5 -35 10 -35 6 0 10 4
10 8 0 14 58 42 88 42 36 0 72 -39 72 -77 0 -49 -44 -125 -142 -244 -21 -26
-38 -50 -38 -53 0 -3 61 -6 135 -6 l135 0 0 30 0 29 -80 3 -80 3 36 45 c58 72
84 125 91 177 10 92 -41 153 -129 153 -25 0 -56 -8 -75 -20z"/>
<path d="M15833 8720 c-27 -16 -33 -26 -33 -55 0 -19 5 -35 10 -35 6 0 10 4
10 8 0 14 58 42 88 42 36 0 72 -39 72 -77 0 -49 -44 -125 -142 -244 -21 -26
-38 -50 -38 -53 0 -3 61 -6 135 -6 l135 0 0 30 0 29 -80 3 -80 3 36 45 c58 72
84 125 91 177 10 92 -41 153 -129 153 -25 0 -56 -8 -75 -20z"/>
<path d="M408 7873 c-34 -13 -38 -19 -38 -51 l0 -35 23 21 c35 32 69 37 100
12 50 -40 33 -98 -67 -228 -31 -40 -56 -74 -56 -77 0 -3 52 -5 115 -5 l115 0
0 25 c0 24 -2 25 -71 25 l-71 0 16 23 c70 96 89 130 93 169 6 57 -9 94 -49
118 -39 24 -60 24 -110 3z"/>
<path d="M724 7880 c-75 -30 -108 -203 -58 -302 23 -46 53 -68 94 -68 65 0
109 62 117 165 7 79 -11 141 -52 182 -33 33 -61 40 -101 23z m78 -71 c11 -14
22 -50 25 -82 17 -166 -95 -245 -128 -90 -28 137 42 255 103 172z"/>
<path d="M994 7880 c-75 -30 -108 -203 -58 -302 23 -46 53 -68 94 -68 65 0
109 62 117 165 7 79 -11 141 -52 182 -33 33 -61 40 -101 23z m78 -71 c11 -14
22 -50 25 -82 17 -166 -95 -245 -128 -90 -28 137 42 255 103 172z"/>
<path d="M36988 7873 c-34 -13 -38 -19 -38 -51 l0 -35 23 21 c35 32 69 37 100
12 50 -40 33 -98 -67 -228 -31 -40 -56 -74 -56 -77 0 -3 52 -5 115 -5 l115 0
0 25 c0 24 -2 25 -71 25 l-71 0 16 23 c70 96 89 130 93 169 6 57 -9 94 -49
118 -39 24 -60 24 -110 3z"/>
<path d="M37292 7870 c-47 -29 -66 -79 -66 -175 0 -85 14 -125 56 -165 24 -22
77 -27 109 -10 51 28 84 170 59 259 -14 53 -68 111 -101 111 -13 0 -39 -9 -57
-20z m90 -61 c25 -34 34 -126 18 -185 -14 -49 -46 -79 -74 -68 -41 16 -66 128
-46 204 22 81 63 101 102 49z"/>
<path d="M37550 7883 c-54 -20 -75 -77 -44 -121 46 -66 143 -36 144 44 0 29
-30 74 -50 74 -4 0 -14 2 -22 4 -7 3 -20 2 -28 -1z m50 -47 c28 -35 -11 -93
-47 -70 -36 22 -23 84 17 84 10 0 23 -7 30 -14z"/>
<path d="M37648 7713 c-62 -97 -117 -182 -121 -190 -6 -9 -2 -13 11 -13 14 0
51 48 133 177 63 97 118 182 122 190 6 9 2 13 -12 13 -14 0 -49 -46 -133 -177z"/>
<path d="M37696 7649 c-57 -45 -19 -139 56 -139 34 0 78 39 78 70 0 74 -77
114 -134 69z m84 -34 c16 -19 5 -61 -17 -67 -25 -7 -42 1 -53 23 -23 43 39 82
70 44z"/>
<path d="M723 6606 c-51 -23 -77 -84 -77 -181 -1 -64 4 -88 22 -122 26 -49 47
-63 97 -63 113 0 160 240 67 340 -33 36 -67 44 -109 26z m79 -67 c40 -54 32
-204 -14 -246 -18 -16 -22 -16 -46 -2 -76 42 -56 289 21 277 11 -2 29 -15 39
-29z"/>
<path d="M993 6606 c-51 -23 -77 -84 -77 -181 -1 -64 4 -88 22 -122 26 -49 47
-63 97 -63 113 0 160 240 67 340 -33 36 -67 44 -109 26z m79 -67 c40 -54 32
-204 -14 -246 -18 -16 -22 -16 -46 -2 -76 42 -56 289 21 277 11 -2 29 -15 39
-29z"/>
<path d="M460 6425 l0 -185 25 0 25 0 0 185 0 185 -25 0 -25 0 0 -185z"/>
<path d="M1000 5336 c-121 -39 -116 -331 7 -365 73 -21 134 50 141 166 9 138
-58 229 -148 199z m74 -69 c31 -41 31 -183 0 -224 -43 -58 -86 -34 -105 59
-20 100 18 206 70 196 8 -2 23 -16 35 -31z"/>
<path d="M37033 5338 c-24 -6 -40 -21 -60 -56 -24 -41 -28 -57 -28 -127 1
-121 40 -185 116 -187 91 -3 149 155 104 283 -27 74 -71 104 -132 87z m71 -71
c31 -41 31 -183 0 -224 -43 -58 -86 -34 -105 59 -20 100 18 206 70 196 8 -2
23 -16 35 -31z"/>
<path d="M37371 5159 c-67 -105 -119 -194 -116 -197 14 -14 44 23 147 183 140
218 133 205 110 205 -14 0 -53 -54 -141 -191z"/>
<path d="M37241 5314 c-44 -56 -5 -134 67 -134 33 0 72 45 72 83 0 72 -95 107
-139 51z m83 -17 c22 -16 18 -55 -6 -71 -40 -24 -80 44 -42 71 10 7 21 13 24
13 3 0 14 -6 24 -13z"/>
<path d="M37445 5118 c-75 -41 -51 -148 34 -148 37 0 81 38 81 69 0 33 -21 68
-47 80 -30 14 -42 13 -68 -1z m63 -40 c19 -19 14 -56 -9 -68 -25 -14 -44 -8
-58 18 -21 39 36 81 67 50z"/>
<path d="M5518 4519 c-26 -15 -24 -43 1 -29 27 14 94 13 109 -2 31 -31 -10
-103 -93 -159 -59 -40 -47 -49 65 -49 82 0 100 3 100 15 0 12 -14 15 -67 15
l-68 0 47 43 c74 67 86 110 43 152 -19 20 -34 25 -72 25 -26 0 -56 -5 -65 -11z"/>
<path d="M5801 4502 c-34 -33 -46 -88 -31 -142 14 -52 39 -77 86 -86 82 -15
141 52 131 150 -6 68 -47 106 -113 106 -36 0 -51 -6 -73 -28z m129 -29 c18
-23 21 -37 18 -82 -8 -89 -63 -117 -119 -62 -35 36 -39 90 -9 139 27 43 78 46
110 5z"/>
<path d="M6090 4510 c-25 -10 -46 -25 -48 -34 -4 -20 -5 -20 48 -1 23 8 44 15
46 15 2 0 4 -40 4 -90 l0 -90 -45 0 c-33 0 -45 -4 -45 -15 0 -12 18 -15 100
-15 80 0 100 3 100 14 0 10 -13 16 -37 18 l-38 3 -3 108 c-3 121 -1 119 -82
87z"/>
<path d="M6329 4501 c-24 -25 -29 -38 -29 -79 0 -67 33 -102 97 -102 24 0 53
5 64 10 16 9 19 7 19 -10 0 -35 -27 -88 -54 -105 -19 -13 -40 -16 -76 -13 -36
4 -50 2 -50 -7 0 -31 100 -34 147 -5 41 24 63 68 70 135 14 133 -26 205 -112
205 -38 0 -52 -5 -76 -29z m131 -33 c11 -18 20 -48 20 -66 0 -26 -5 -35 -26
-42 -67 -26 -118 2 -118 65 0 45 28 75 71 75 27 0 37 -6 53 -32z"/>
<path d="M14198 4519 c-26 -15 -24 -43 1 -29 27 14 94 13 109 -2 31 -31 -10
-103 -93 -159 -59 -40 -47 -49 65 -49 82 0 100 3 100 15 0 12 -14 15 -67 15
l-68 0 47 43 c74 67 86 110 43 152 -19 20 -34 25 -72 25 -26 0 -56 -5 -65 -11z"/>
<path d="M14481 4502 c-34 -33 -46 -88 -31 -142 14 -52 39 -77 86 -86 74 -14
134 45 134 131 0 75 -47 125 -118 125 -34 0 -49 -6 -71 -28z m129 -29 c18 -23
21 -37 18 -82 -8 -89 -63 -117 -119 -62 -35 36 -39 90 -9 139 27 43 78 46 110
5z"/>
<path d="M14758 4519 c-26 -15 -24 -43 1 -29 27 14 94 13 109 -2 31 -31 -10
-103 -93 -159 -59 -40 -47 -49 65 -49 82 0 100 3 100 15 0 12 -14 15 -67 15
l-68 0 47 43 c74 67 86 110 43 152 -19 20 -34 25 -72 25 -26 0 -56 -5 -65 -11z"/>
<path d="M15041 4502 c-34 -33 -46 -88 -31 -142 14 -52 39 -77 86 -86 74 -14
134 45 134 131 0 75 -47 125 -118 125 -34 0 -49 -6 -71 -28z m129 -29 c18 -23
21 -37 18 -82 -8 -89 -63 -117 -119 -62 -35 36 -39 90 -9 139 27 43 78 46 110
5z"/>
<path d="M22908 4519 c-33 -19 -18 -28 37 -22 63 7 85 -5 85 -47 0 -30 -21
-55 -92 -114 -27 -21 -48 -42 -48 -47 0 -5 45 -9 100 -9 82 0 100 3 100 15 0
12 -14 15 -65 15 l-66 0 56 54 c45 45 55 60 55 88 0 53 -30 78 -93 78 -29 0
-60 -5 -69 -11z"/>
<path d="M23207 4519 c-28 -17 -47 -65 -47 -123 0 -67 32 -112 86 -122 76 -14
134 42 134 129 0 84 -37 127 -110 126 -25 0 -53 -4 -63 -10z m107 -34 c14 -10
21 -31 24 -70 5 -63 -13 -101 -52 -111 -75 -18 -120 94 -70 174 17 26 68 30
98 7z"/>
<path d="M23468 4519 c-33 -19 -18 -28 37 -22 63 7 85 -5 85 -47 0 -30 -21
-55 -92 -114 -27 -21 -48 -42 -48 -47 0 -5 45 -9 100 -9 82 0 100 3 100 15 0
12 -14 15 -65 15 l-66 0 56 54 c45 45 55 60 55 88 0 53 -30 78 -93 78 -29 0
-60 -5 -69 -11z"/>
<path d="M23765 4511 c-29 -10 -51 -25 -53 -34 -4 -20 -8 -20 51 -2 l47 14 0
-89 0 -90 -40 0 c-29 0 -40 -4 -40 -15 0 -12 17 -15 95 -15 78 0 95 3 95 15 0
10 -11 15 -35 15 l-35 0 0 110 c0 125 3 122 -85 91z"/>
<path d="M31588 4523 c-10 -2 -18 -13 -18 -24 0 -16 3 -18 19 -9 27 14 94 13
109 -2 31 -31 -10 -103 -93 -159 -59 -40 -47 -49 65 -49 82 0 100 3 100 15 0
12 -14 15 -67 15 l-68 0 47 43 c74 67 86 110 43 152 -19 20 -34 25 -72 24 -26
-1 -56 -3 -65 -6z"/>
<path d="M31877 4510 c-54 -43 -59 -155 -10 -204 54 -54 144 -40 176 27 30 63
14 147 -34 181 -33 23 -100 21 -132 -4z m122 -36 c35 -44 25 -128 -18 -161
-26 -20 -51 -15 -83 17 -28 28 -30 35 -26 81 6 61 30 89 74 89 23 0 38 -7 53
-26z"/>
<path d="M32148 4523 c-10 -2 -18 -13 -18 -24 0 -16 3 -18 19 -9 27 14 94 13
109 -2 31 -31 -10 -103 -93 -159 -59 -40 -47 -49 65 -49 82 0 100 3 100 15 0
12 -14 15 -67 15 l-68 0 47 43 c74 67 86 110 43 152 -19 20 -34 25 -72 24 -26
-1 -56 -3 -65 -6z"/>
<path d="M32428 4523 c-10 -2 -18 -13 -18 -24 0 -16 3 -18 19 -9 27 14 94 13
109 -2 31 -31 -10 -103 -93 -159 -59 -40 -47 -49 65 -49 82 0 100 3 100 15 0
12 -14 15 -67 15 l-68 0 47 43 c74 67 86 110 43 152 -19 20 -34 25 -72 24 -26
-1 -56 -3 -65 -6z"/>
<path d="M14735 3539 c-134 -17 -185 -82 -185 -239 0 -84 14 -133 50 -173 26
-29 34 -32 85 -32 52 0 59 3 90 37 60 65 57 184 -6 230 -30 22 -104 26 -139 8
-29 -16 -35 -7 -24 37 12 47 48 72 117 82 64 9 70 12 65 38 -3 16 -9 17 -53
12z m13 -226 c47 -51 13 -174 -50 -181 -63 -7 -101 46 -96 136 3 55 4 57 38
69 45 15 79 7 108 -24z"/>
<path d="M8600 3304 l0 -205 27 3 c21 2 46 31 132 154 58 83 111 160 118 170
9 15 12 -16 12 -153 1 -166 2 -173 21 -173 19 0 20 7 20 205 l0 205 -24 0
c-19 0 -43 -28 -127 -151 -57 -83 -111 -160 -119 -170 -13 -18 -15 -3 -11 150
l3 171 -26 0 -26 0 0 -206z"/>
<path d="M9053 3393 c-14 -3 -23 -12 -23 -23 0 -16 6 -18 53 -13 63 6 97 -8
97 -40 0 -35 -19 -47 -72 -47 -41 0 -48 -3 -48 -20 0 -17 7 -20 46 -20 58 0
84 -14 84 -45 0 -40 -40 -59 -110 -52 -48 4 -60 2 -60 -9 0 -33 104 -45 165
-19 57 23 72 90 30 129 -24 22 -24 23 -5 39 22 19 26 64 7 88 -27 35 -87 47
-164 32z"/>
<path d="M9811 3382 c-47 -25 -71 -74 -71 -142 0 -68 26 -115 75 -136 58 -24
145 -12 145 20 0 12 -11 13 -52 9 -44 -4 -58 -1 -80 16 -57 46 -57 147 0 192
22 17 36 20 75 15 41 -4 47 -3 47 13 0 34 -85 42 -139 13z"/>
<path d="M10090 3383 c-46 -23 -70 -73 -70 -143 0 -95 54 -150 147 -150 57 0
83 10 83 31 0 16 -6 17 -50 12 -60 -7 -100 8 -123 46 -34 57 -28 61 89 61 105
0 106 0 100 23 -3 12 -6 32 -6 44 0 13 -12 37 -27 53 -36 40 -93 49 -143 23z
m102 -40 c9 -10 19 -28 22 -40 7 -22 6 -23 -68 -23 -85 0 -96 11 -51 55 29 29
75 33 97 8z"/>
<path d="M11533 3385 c-48 -21 -73 -68 -73 -140 0 -95 52 -155 135 -155 83 0
135 60 135 155 0 73 -25 120 -75 141 -43 17 -80 17 -122 -1z m115 -45 c47 -44
47 -146 0 -190 -30 -27 -79 -26 -106 3 -68 72 -33 207 53 207 17 0 41 -9 53
-20z"/>
<path d="M11871 3382 c-47 -25 -71 -74 -71 -142 0 -68 26 -115 75 -136 58 -24
145 -12 145 20 0 12 -11 13 -52 9 -44 -4 -58 -1 -80 16 -57 46 -57 147 0 192
22 17 36 20 75 15 41 -4 47 -3 47 13 0 34 -85 42 -139 13z"/>
<path d="M12446 3382 c-22 -13 -30 -14 -33 -4 -3 6 -13 12 -24 12 -18 0 -19
-10 -19 -220 l0 -220 25 0 c25 0 25 1 25 85 l0 86 32 -17 c20 -10 43 -14 66
-11 76 13 112 64 112 160 0 114 -97 181 -184 129z m95 -33 c55 -29 55 -164 0
-206 -22 -17 -72 -16 -99 3 -20 14 -22 24 -22 99 0 82 1 85 28 99 32 18 66 20
93 5z"/>
<path d="M12743 3390 c-13 -5 -23 -16 -23 -24 0 -12 11 -13 55 -9 68 7 105
-13 105 -56 0 -29 0 -29 -59 -28 -77 3 -114 -22 -119 -78 -8 -89 65 -130 151
-86 29 15 37 16 37 5 0 -8 9 -14 20 -14 19 0 20 7 20 110 0 60 -5 120 -11 134
-21 46 -115 71 -176 46z m115 -156 c17 -5 22 -14 22 -40 0 -27 -6 -36 -30 -49
-59 -30 -102 -13 -102 42 0 44 46 64 110 47z"/>
<path d="M14933 3390 c-13 -5 -23 -16 -23 -24 0 -12 11 -13 55 -9 68 7 105
-13 105 -56 0 -29 0 -29 -59 -28 -77 3 -114 -22 -119 -78 -8 -89 65 -130 151
-86 29 15 37 16 37 5 0 -8 9 -14 20 -14 19 0 20 7 20 110 0 60 -5 120 -11 134
-21 46 -115 71 -176 46z m115 -156 c17 -5 22 -14 22 -40 0 -27 -6 -36 -30 -49
-59 -30 -102 -13 -102 42 0 44 46 64 110 47z"/>
<path d="M15883 3390 c-13 -5 -23 -16 -23 -24 0 -12 11 -13 55 -9 68 7 105
-13 105 -56 0 -29 0 -29 -59 -28 -77 3 -114 -22 -119 -78 -8 -89 65 -130 151
-86 29 15 37 16 37 5 0 -8 9 -14 20 -14 19 0 20 7 20 110 0 60 -5 120 -11 134
-21 46 -115 71 -176 46z m115 -156 c17 -5 22 -14 22 -40 0 -27 -6 -36 -30 -49
-59 -30 -102 -13 -102 42 0 44 46 64 110 47z"/>
<path d="M9440 3244 l0 -146 95 4 c103 3 127 15 140 70 6 22 1 33 -21 55 l-29
28 23 22 c29 29 28 58 -3 88 -22 23 -32 25 -115 25 l-90 0 0 -146z m174 84
c20 -33 -4 -53 -68 -56 l-56 -3 0 41 0 41 56 -3 c41 -2 60 -8 68 -20z m0 -114
c19 -18 21 -45 4 -62 -7 -7 -38 -12 -70 -12 l-58 0 0 45 0 45 54 0 c36 0 60
-5 70 -16z"/>
<path d="M10330 3385 c0 -3 22 -35 50 -72 l49 -65 -46 -62 c-26 -33 -51 -67
-56 -73 -7 -10 -3 -13 16 -13 20 0 35 13 64 55 21 30 41 55 44 55 4 0 25 -25
48 -55 26 -34 49 -55 61 -55 11 0 20 3 20 6 0 3 -19 31 -43 62 -24 31 -47 63
-51 69 -4 8 10 36 37 70 61 82 62 83 34 83 -18 0 -34 -14 -62 -56 l-39 -56
-23 28 c-13 16 -31 41 -41 57 -10 17 -25 27 -39 27 -13 0 -23 -2 -23 -5z"/>
<path d="M10780 3245 l0 -145 23 0 c18 0 42 25 105 112 l82 112 0 -112 0 -112
25 0 25 0 0 145 c0 145 0 145 -23 145 -18 0 -42 -25 -105 -111 l-82 -111 0
111 0 111 -25 0 -25 0 0 -145z"/>
<path d="M11130 3245 l0 -145 25 0 c24 0 25 2 25 65 l0 65 75 0 75 0 0 -65 c0
-63 1 -65 25 -65 l25 0 0 145 0 145 -25 0 c-24 0 -25 -3 -25 -60 l0 -60 -75 0
-75 0 0 60 c0 57 -1 60 -25 60 l-25 0 0 -145z"/>
<path d="M12060 3370 c0 -17 7 -20 50 -20 l50 0 0 -125 0 -125 25 0 25 0 0
125 0 125 50 0 c43 0 50 3 50 20 0 19 -7 20 -125 20 -118 0 -125 -1 -125 -20z"/>
<path d="M13020 3245 l0 -145 25 0 c24 0 25 2 25 65 l0 65 75 0 75 0 0 -65 c0
-63 1 -65 25 -65 l25 0 0 145 0 145 -25 0 c-24 0 -25 -3 -25 -60 l0 -60 -75 0
-75 0 0 60 c0 57 -1 60 -25 60 l-25 0 0 -145z"/>
<path d="M13360 3245 l0 -145 25 0 c24 0 25 2 25 65 l0 65 75 0 75 0 0 -65 c0
-63 1 -65 25 -65 l25 0 0 145 0 145 -25 0 c-24 0 -25 -3 -25 -60 l0 -60 -75 0
-75 0 0 60 c0 57 -1 60 -25 60 l-25 0 0 -145z"/>
<path d="M13702 3248 l3 -143 69 -3 c38 -2 82 2 98 9 60 25 76 87 34 135 -20
24 -32 28 -90 32 l-66 4 0 54 c0 51 -1 54 -25 54 l-26 0 3 -142z m162 -24 c33
-32 16 -70 -36 -84 -63 -17 -78 -7 -78 51 l0 49 49 0 c32 0 55 -6 65 -16z"/>
<path d="M13980 3245 c0 -138 1 -145 20 -145 19 0 20 7 20 145 0 138 -1 145
-20 145 -19 0 -20 -7 -20 -145z"/>
<path d="M14100 3385 c0 -3 22 -35 50 -72 l49 -65 -46 -62 c-26 -33 -51 -67
-56 -73 -7 -10 -3 -13 16 -13 20 0 35 13 64 55 21 30 41 55 44 55 4 0 25 -25
48 -55 26 -34 49 -55 61 -55 11 0 20 3 20 6 0 3 -19 31 -43 62 -24 31 -47 63
-51 69 -4 8 10 36 37 70 61 82 62 83 34 83 -18 0 -34 -14 -62 -56 l-39 -56
-23 28 c-13 16 -31 41 -41 57 -10 17 -25 27 -39 27 -13 0 -23 -2 -23 -5z"/>
<path d="M15210 3245 l0 -145 25 0 c24 0 25 2 25 65 l0 65 75 0 75 0 0 -65 c0
-63 1 -65 25 -65 l25 0 0 145 0 145 -25 0 c-24 0 -25 -3 -25 -60 l0 -60 -75 0
-75 0 0 60 c0 57 -1 60 -25 60 l-25 0 0 -145z"/>
<path d="M15550 3245 l0 -145 25 0 c24 0 25 2 25 73 l1 72 67 -73 c55 -59 73
-72 97 -72 l29 0 -50 53 c-98 103 -96 87 -23 164 62 67 63 68 36 71 -27 3 -54
-20 -137 -120 l-19 -23 -1 73 c0 70 -1 72 -25 72 l-25 0 0 -145z"/>
<path d="M16140 3385 c0 -3 22 -35 50 -72 l49 -65 -46 -62 c-26 -33 -51 -67
-56 -73 -7 -10 -3 -13 16 -13 20 0 35 13 64 55 21 30 41 55 44 55 4 0 25 -25
48 -55 26 -34 49 -55 61 -55 11 0 20 3 20 6 0 3 -19 31 -43 62 -24 31 -47 63
-51 69 -4 8 10 36 37 70 61 82 62 83 34 83 -18 0 -34 -14 -62 -56 l-39 -56
-23 28 c-13 16 -31 41 -41 57 -10 17 -25 27 -39 27 -13 0 -23 -2 -23 -5z"/>
<path d="M9838 2499 l-3 -72 -45 -13 c-70 -20 -103 -61 -108 -132 -7 -93 36
-150 124 -167 l34 -6 0 -69 c0 -63 2 -70 20 -70 18 0 20 7 20 70 l0 69 42 11
c57 16 83 35 102 75 46 96 -7 201 -111 221 l-33 6 0 74 c0 67 -2 74 -20 74
-17 0 -19 -8 -22 -71z m2 -228 c0 -62 -4 -113 -10 -116 -14 -9 -73 22 -88 46
-15 23 -18 84 -7 118 7 25 60 61 88 61 15 0 17 -12 17 -109z m100 94 c38 -20
50 -43 50 -99 0 -36 -6 -52 -27 -75 -16 -16 -40 -32 -55 -35 l-28 -6 0 115 c0
127 2 130 60 100z"/>
<path d="M12587 2556 c-108 -23 -148 -77 -155 -211 -7 -140 33 -221 113 -231
81 -10 143 46 151 137 7 70 -16 117 -70 143 -40 19 -67 17 -130 -9 -17 -8 -19
-5 -13 30 3 21 16 48 28 61 21 23 33 27 117 39 36 6 42 10 42 31 0 27 -2 27
-83 10z m41 -222 c44 -50 17 -165 -43 -180 -62 -15 -105 41 -105 136 0 48 2
52 33 65 42 19 86 11 115 -21z"/>
<path d="M8948 2413 c-10 -2 -18 -13 -18 -23 0 -16 6 -18 53 -13 65 7 97 -8
97 -42 0 -30 -26 -45 -79 -45 -34 0 -41 -3 -41 -20 0 -17 7 -20 46 -20 58 0
84 -14 84 -45 0 -41 -40 -59 -111 -51 -54 5 -60 4 -57 -11 7 -38 138 -41 186
-5 13 10 25 33 28 54 5 31 2 41 -20 61 -26 24 -26 24 -6 42 35 32 25 87 -21
110 -26 14 -103 18 -141 8z"/>
<path d="M9403 2400 c-44 -26 -63 -68 -63 -136 0 -68 25 -115 74 -138 65 -31
139 -10 176 49 27 44 28 138 0 182 -37 62 -124 82 -187 43z m129 -45 c65 -64
25 -205 -58 -205 -54 0 -97 74 -86 148 10 74 94 107 144 57z"/>
<path d="M10633 2400 c-44 -26 -63 -68 -63 -136 0 -68 25 -115 74 -138 65 -31
139 -10 176 49 27 44 28 138 0 182 -37 62 -124 82 -187 43z m129 -45 c65 -64
25 -205 -58 -205 -54 0 -97 74 -86 148 10 74 94 107 144 57z"/>
<path d="M10995 2403 c-20 -11 -30 -12 -33 -4 -2 6 -12 11 -23 11 -18 0 -19
-10 -19 -220 l0 -220 25 0 c25 0 25 1 25 85 0 47 2 85 4 85 2 0 17 -7 32 -15
37 -19 58 -19 100 1 92 44 101 226 15 277 -36 21 -87 21 -126 0z m105 -41 c45
-37 43 -149 -5 -189 -31 -27 -55 -29 -95 -8 -30 15 -30 17 -30 100 0 75 2 85
22 99 30 21 81 20 108 -2z"/>
<path d="M12808 2413 c-10 -2 -18 -13 -18 -23 0 -16 6 -18 55 -13 67 7 105
-13 105 -55 0 -27 -1 -27 -64 -27 -83 0 -116 -26 -116 -90 0 -79 73 -116 150
-76 33 17 40 18 40 6 0 -8 9 -15 20 -15 19 0 20 7 20 110 0 127 -12 162 -61
179 -32 11 -98 13 -131 4z m126 -159 c10 -4 16 -18 16 -40 0 -27 -6 -36 -30
-49 -55 -29 -102 -10 -102 40 0 16 7 34 18 42 19 14 71 17 98 7z"/>
<path d="M13773 2400 c-44 -26 -63 -68 -63 -136 0 -68 25 -115 74 -138 65 -31
139 -10 176 49 27 44 28 138 0 182 -37 62 -124 82 -187 43z m129 -45 c65 -64
25 -205 -58 -205 -54 0 -97 74 -86 148 10 74 94 107 144 57z"/>
<path d="M8590 2265 c0 -144 0 -145 23 -145 16 0 42 27 102 110 l80 110 3
-110 c3 -110 3 -110 27 -110 l25 0 0 145 0 145 -24 0 c-25 0 -33 -9 -130 -144
l-56 -78 0 111 0 111 -25 0 -25 0 0 -145z"/>
<path d="M10120 2265 l0 -145 180 0 180 0 0 145 c0 138 -1 145 -20 145 -19 0
-20 -7 -20 -125 l0 -125 -55 0 -55 0 0 125 0 125 -25 0 -25 0 0 -125 0 -125
-55 0 -55 0 0 125 0 125 -25 0 -25 0 0 -145z"/>
<path d="M11260 2265 l0 -145 25 0 c24 0 25 2 25 65 l0 65 75 0 75 0 0 -65 c0
-63 1 -65 25 -65 l25 0 0 145 0 145 -25 0 c-24 0 -25 -3 -25 -60 l0 -60 -75 0
-75 0 0 60 c0 57 -1 60 -25 60 l-25 0 0 -145z"/>
<path d="M11600 2271 c0 -158 -4 -151 86 -151 127 0 187 79 115 151 -26 26
-36 29 -90 29 l-61 0 0 55 c0 52 -1 55 -25 55 l-25 0 0 -139z m161 -21 c23
-13 25 -47 2 -72 -11 -13 -30 -18 -65 -18 l-48 0 0 50 0 50 46 0 c25 0 54 -5
65 -10z"/>
<path d="M11880 2265 c0 -138 1 -145 20 -145 19 0 20 7 20 145 0 138 -1 145
-20 145 -19 0 -20 -7 -20 -145z"/>
<path d="M12000 2404 c0 -3 20 -32 45 -64 25 -32 45 -64 45 -70 0 -9 -46 -77
-93 -137 -7 -10 -3 -13 15 -13 19 0 35 14 68 61 l42 60 44 -60 c34 -47 50 -61
69 -61 24 0 23 3 -31 75 l-56 75 29 37 c16 21 39 53 52 71 l22 32 -24 0 c-18
0 -34 -14 -62 -55 -21 -30 -41 -53 -44 -50 -4 2 -23 26 -41 54 -25 36 -42 51
-57 51 -13 0 -23 -3 -23 -6z"/>
<path d="M13090 2265 l0 -145 25 0 c24 0 25 2 25 65 l0 65 75 0 75 0 0 -65 c0
-63 1 -65 25 -65 l25 0 0 145 0 145 -25 0 c-24 0 -25 -3 -25 -60 l0 -60 -75 0
-75 0 0 60 c0 57 -1 60 -25 60 l-25 0 0 -145z"/>
<path d="M13430 2265 l0 -145 25 0 c24 0 25 2 25 73 l1 72 68 -72 c52 -57 74
-73 95 -73 27 0 25 3 -39 75 l-67 75 61 67 c61 68 61 68 34 71 -19 3 -33 -3
-45 -17 -9 -12 -37 -45 -62 -72 l-46 -51 0 71 c0 69 -1 71 -25 71 l-25 0 0
-145z"/>
<path d="M14060 2265 l0 -145 75 0 c91 0 141 18 156 56 12 34 -4 80 -31 89
-17 5 -16 8 6 30 31 31 30 59 -1 90 -22 23 -32 25 -115 25 l-90 0 0 -145z
m150 102 c31 -16 38 -46 14 -64 -10 -7 -39 -13 -66 -13 l-48 0 0 45 0 45 38 0
c20 0 48 -6 62 -13z m24 -133 c39 -38 5 -74 -70 -74 l-54 0 0 45 0 45 54 0
c36 0 60 -5 70 -16z"/>
<path d="M16288 1519 l-3 -72 -45 -13 c-68 -20 -102 -61 -108 -129 -8 -92 30
-145 114 -163 l39 -8 3 -67 c3 -59 5 -67 22 -67 18 0 20 7 20 65 0 44 4 67 13
69 6 3 25 7 40 10 15 4 44 21 64 39 30 28 36 42 41 85 8 89 -39 155 -119 168
l-39 7 0 73 c0 67 -2 74 -20 74 -17 0 -19 -8 -22 -71z m2 -227 c0 -60 -2 -111
-5 -114 -11 -11 -55 5 -79 28 -61 62 -20 194 60 194 24 0 24 -1 24 -108z m119
79 c26 -25 31 -36 31 -78 0 -58 -19 -90 -66 -109 -18 -8 -36 -14 -39 -14 -3 0
-5 52 -5 115 0 115 0 115 24 115 13 0 38 -13 55 -29z"/>
<path d="M25503 1580 c-90 -18 -133 -58 -153 -142 -17 -69 -8 -198 17 -240 61
-108 219 -70 238 56 19 124 -66 205 -170 162 -21 -9 -40 -14 -43 -12 -2 3 -2
20 2 39 10 51 43 76 120 89 60 10 66 13 66 34 0 26 -7 27 -77 14z m10 -201
c71 -32 56 -186 -18 -205 -61 -15 -105 41 -105 135 0 45 3 52 28 65 33 18 63
20 95 5z"/>
<path d="M10650 1518 c-90 -124 -89 -305 3 -435 18 -25 35 -39 43 -36 19 7 18
17 -11 59 -73 107 -73 286 1 397 23 35 25 57 3 57 -5 0 -23 -19 -39 -42z"/>
<path d="M30605 1550 c-3 -6 3 -22 14 -36 38 -48 61 -129 61 -213 0 -85 -16
-144 -55 -203 -20 -30 -22 -38 -10 -48 10 -9 19 -4 39 23 54 71 71 125 71 227
0 83 -3 102 -28 155 -39 83 -76 121 -92 95z"/>
<path d="M8560 1433 c0 -4 25 -71 56 -148 l56 -141 -31 -72 -30 -72 23 0 c21
0 32 22 110 210 47 115 86 214 86 220 0 5 -8 10 -18 10 -14 0 -29 -27 -63
-111 -25 -61 -49 -110 -54 -110 -5 0 -27 48 -50 108 -34 87 -46 109 -64 111
-11 2 -21 0 -21 -5z"/>
<path d="M8966 1428 c-3 -7 -7 -32 -9 -55 -6 -53 -48 -145 -81 -178 -23 -22
-26 -35 -26 -90 0 -63 1 -65 25 -65 23 0 25 3 25 50 l0 50 110 0 110 0 0 -50
c0 -47 2 -50 25 -50 24 0 25 2 25 70 0 68 -1 70 -25 70 l-25 0 0 130 0 130
-75 0 c-52 0 -77 -4 -79 -12z m104 -138 l0 -110 -75 0 c-41 0 -75 4 -75 8 0 5
9 17 19 26 23 21 57 96 66 149 6 33 11 37 36 37 l29 0 0 -110z"/>
<path d="M9540 1290 l0 -150 75 0 c91 0 137 17 154 57 15 36 1 78 -28 88 -19
6 -18 7 5 30 66 66 -4 124 -148 125 l-58 0 0 -150z m161 100 c11 -6 19 -21 19
-35 0 -31 -26 -45 -84 -45 l-46 0 0 45 0 45 46 0 c25 0 54 -5 65 -10z m17
-132 c17 -17 15 -44 -4 -62 -10 -11 -34 -16 -70 -16 l-54 0 0 45 0 45 58 0
c32 0 63 -5 70 -12z"/>
<path d="M9896 1419 c-39 -31 -56 -71 -56 -134 0 -90 33 -133 115 -148 45 -9
109 5 113 25 3 14 -6 16 -64 16 -63 -1 -69 0 -95 30 -16 18 -29 41 -29 52 0
19 7 20 105 20 l106 0 -6 38 c-11 62 -26 92 -56 107 -41 22 -101 19 -133 -6z
m116 -36 c9 -10 19 -28 22 -40 7 -23 6 -23 -73 -23 -72 0 -80 2 -74 18 20 57
92 82 125 45z"/>
<path d="M10223 1420 c-43 -26 -63 -68 -63 -135 0 -66 20 -109 58 -129 65 -33
155 -27 160 11 3 20 1 20 -42 11 -35 -7 -51 -6 -75 6 -35 19 -41 27 -52 74
-11 49 -1 87 30 118 23 23 32 26 78 22 45 -4 53 -2 53 13 0 9 -7 20 -16 23
-32 12 -100 5 -131 -14z"/>
<path d="M10780 1290 l0 -150 25 0 c24 0 25 2 25 73 l0 72 72 -73 c56 -57 77
-72 96 -70 23 3 20 8 -43 75 l-67 73 61 68 c34 38 61 72 61 75 0 4 -10 7 -23
7 -17 0 -43 -22 -90 -76 l-67 -75 0 75 c0 74 -1 76 -25 76 l-25 0 0 -150z"/>
<path d="M11130 1427 c-43 -22 -70 -74 -70 -134 0 -76 24 -121 74 -144 52 -24
70 -24 122 1 52 26 74 68 74 143 0 91 -51 147 -135 147 -22 0 -51 -6 -65 -13z
m119 -44 c29 -24 43 -87 30 -135 -11 -42 -50 -78 -85 -78 -57 0 -101 81 -83
158 10 46 41 72 84 72 18 0 43 -8 54 -17z"/>
<path d="M11466 1354 c-22 -112 -39 -152 -71 -164 -34 -13 -35 -50 0 -50 49 0
84 58 115 185 17 70 17 70 51 70 l34 0 3 -127 c2 -120 4 -128 22 -128 19 0 20
7 20 150 l0 150 -78 0 -79 0 -17 -86z"/>
<path d="M11740 1290 c0 -149 0 -150 23 -150 16 0 42 27 102 110 l80 110 3
-110 c3 -110 3 -110 28 -110 l25 0 -3 147 c-4 192 -8 193 -120 43 l-83 -111
-3 111 c-3 110 -3 110 -27 110 l-25 0 0 -150z"/>
<path d="M12082 1365 c3 -68 7 -80 28 -97 21 -17 35 -19 88 -15 l62 5 0 -59
c0 -56 1 -59 25 -59 l25 0 0 150 0 150 -25 0 c-24 0 -25 -2 -25 -70 l0 -69
-41 -11 c-33 -9 -45 -8 -64 4 -20 13 -24 25 -27 78 -3 58 -5 63 -27 66 -23 4
-23 3 -19 -73z"/>
<path d="M12446 1419 c-39 -31 -56 -71 -56 -134 0 -90 33 -133 115 -148 45 -9
109 5 113 25 3 14 -6 16 -64 16 -63 -1 -69 0 -95 30 -16 18 -29 41 -29 52 0
19 7 20 105 20 l106 0 -6 38 c-11 62 -26 92 -56 107 -41 22 -101 19 -133 -6z
m116 -36 c9 -10 19 -28 22 -40 7 -23 6 -23 -73 -23 -72 0 -80 2 -74 18 20 57
92 82 125 45z"/>
<path d="M12773 1420 c-43 -26 -63 -68 -63 -135 0 -66 20 -109 58 -129 65 -33
155 -27 160 11 3 20 1 20 -42 11 -35 -7 -51 -6 -75 6 -35 19 -41 27 -52 74
-11 49 -1 87 30 118 23 23 32 26 78 22 45 -4 53 -2 53 13 0 9 -7 20 -16 23
-32 12 -100 5 -131 -14z"/>
<path d="M12970 1420 c0 -17 7 -20 50 -20 l50 0 0 -130 0 -130 25 0 25 0 0
130 0 130 50 0 c43 0 50 3 50 20 0 19 -7 20 -125 20 -118 0 -125 -1 -125 -20z"/>
<path d="M13280 1290 l0 -150 75 0 c91 0 137 17 154 57 15 36 1 78 -28 88 -19
6 -18 7 5 30 66 66 -4 124 -148 125 l-58 0 0 -150z m161 100 c11 -6 19 -21 19
-35 0 -31 -26 -45 -84 -45 l-46 0 0 45 0 45 46 0 c25 0 54 -5 65 -10z m17
-132 c17 -17 15 -44 -4 -62 -10 -11 -34 -16 -70 -16 l-54 0 0 45 0 45 58 0
c32 0 63 -5 70 -12z"/>
<path d="M13650 1427 c-43 -22 -70 -74 -70 -134 0 -76 24 -121 74 -144 52 -24
70 -24 122 1 52 26 74 68 74 143 0 91 -51 147 -135 147 -22 0 -51 -6 -65 -13z
m119 -44 c29 -24 43 -87 30 -135 -11 -42 -50 -78 -85 -78 -57 0 -101 81 -83
158 10 46 41 72 84 72 18 0 43 -8 54 -17z"/>
<path d="M14156 1428 c-3 -7 -7 -32 -9 -55 -6 -53 -48 -145 -81 -178 -23 -22
-26 -35 -26 -90 0 -63 1 -65 25 -65 23 0 25 3 25 50 l0 50 110 0 110 0 0 -50
c0 -47 2 -50 25 -50 24 0 25 2 25 70 0 68 -1 70 -25 70 l-25 0 0 130 0 130
-75 0 c-52 0 -77 -4 -79 -12z m104 -138 l0 -110 -75 0 c-41 0 -75 4 -75 8 0 5
9 17 19 26 23 21 57 96 66 149 6 33 11 37 36 37 l29 0 0 -110z"/>
<path d="M14476 1419 c-39 -31 -56 -71 -56 -134 0 -90 33 -133 115 -148 45 -9
109 5 113 25 3 14 -6 16 -64 16 -63 -1 -69 0 -95 30 -16 18 -29 41 -29 52 0
19 7 20 105 20 l106 0 -6 38 c-11 62 -26 92 -56 107 -41 22 -101 19 -133 -6z
m116 -36 c9 -10 19 -28 22 -40 7 -23 6 -23 -73 -23 -72 0 -80 2 -74 18 20 57
92 82 125 45z"/>
<path d="M14750 1290 l0 -150 25 0 c24 0 25 2 25 65 l0 65 75 0 75 0 0 -65 c0
-63 1 -65 25 -65 l26 0 -3 148 c-3 144 -3 147 -25 150 -22 3 -23 0 -23 -62 l0
-66 -75 0 -75 0 0 65 c0 63 -1 65 -25 65 l-25 0 0 -150z"/>
<path d="M15136 1419 c-39 -31 -56 -71 -56 -134 0 -90 33 -133 115 -148 45 -9
109 5 113 25 3 14 -6 16 -64 16 -63 -1 -69 0 -95 30 -16 18 -29 41 -29 52 0
19 7 20 105 20 l106 0 -6 38 c-11 62 -26 92 -56 107 -41 22 -101 19 -133 -6z
m116 -36 c9 -10 19 -28 22 -40 7 -23 6 -23 -73 -23 -72 0 -80 2 -74 18 20 57
92 82 125 45z"/>
<path d="M15410 1290 l0 -150 25 0 25 0 0 125 0 125 75 0 c73 0 75 1 75 25 l0
25 -100 0 -100 0 0 -150z"/>
<path d="M15860 1427 c-43 -22 -70 -74 -70 -134 0 -76 24 -121 74 -144 52 -24
70 -24 122 1 52 26 74 68 74 143 0 91 -51 147 -135 147 -22 0 -51 -6 -65 -13z
m119 -44 c29 -24 43 -87 30 -135 -11 -42 -50 -78 -85 -78 -57 0 -101 81 -83
158 10 46 41 72 84 72 18 0 43 -8 54 -17z"/>
<path d="M16570 1290 l0 -150 180 0 180 0 0 150 c0 143 -1 150 -20 150 -19 0
-20 -7 -20 -130 l0 -130 -55 0 -54 0 -3 128 c-3 123 -4 127 -25 130 -23 3 -23
3 -23 -127 l0 -131 -55 0 -55 0 0 130 0 130 -25 0 -25 0 0 -150z"/>
<path d="M17090 1427 c-43 -22 -70 -74 -70 -134 0 -76 24 -121 74 -144 52 -24
70 -24 122 1 52 26 74 68 74 143 0 91 -51 147 -135 147 -22 0 -51 -6 -65 -13z
m119 -44 c29 -24 43 -87 30 -135 -11 -42 -50 -78 -85 -78 -57 0 -101 81 -83
158 10 46 41 72 84 72 18 0 43 -8 54 -17z"/>
<path d="M17370 1220 l0 -220 25 0 c25 0 25 1 25 80 0 72 9 97 25 71 11 -19
62 -22 102 -6 74 30 108 145 67 231 -28 59 -105 82 -168 49 -35 -18 -36 -18
-36 0 0 8 -9 15 -20 15 -19 0 -20 -7 -20 -220z m192 149 c26 -35 27 -122 1
-157 -28 -38 -68 -48 -109 -28 l-34 16 0 84 c0 77 2 86 23 101 34 24 96 16
119 -16z"/>
<path d="M17710 1290 l0 -150 25 0 c24 0 25 2 25 65 l0 65 75 0 75 0 0 -65 c0
-63 1 -65 25 -65 l26 0 -3 148 c-3 144 -3 147 -25 150 -22 3 -23 0 -23 -62 l0
-66 -75 0 -75 0 0 65 c0 63 -1 65 -25 65 l-25 0 0 -150z"/>
<path d="M18050 1296 c0 -163 -4 -156 91 -156 118 0 178 82 110 151 -26 26
-36 29 -90 29 l-61 0 0 60 c0 57 -1 60 -25 60 l-25 0 0 -144z m167 -28 c20
-16 15 -55 -9 -72 -12 -9 -42 -16 -65 -16 l-43 0 0 49 c0 30 5 52 13 55 17 8
89 -3 104 -16z"/>
<path d="M18330 1290 c0 -143 1 -150 20 -150 19 0 20 7 20 150 0 143 -1 150
-20 150 -19 0 -20 -7 -20 -150z"/>
<path d="M18447 1428 c5 -7 30 -41 56 -74 l46 -61 -54 -74 c-30 -40 -55 -74
-55 -76 0 -2 10 -3 23 -3 17 0 35 16 66 61 l43 60 45 -60 c33 -45 51 -61 69
-61 23 0 21 4 -32 75 l-56 75 51 69 c28 37 51 71 51 75 0 3 -9 6 -20 6 -13 0
-35 -21 -63 -60 l-44 -60 -42 60 c-33 47 -48 60 -68 60 -19 0 -23 -3 -16 -12z"/>
<path d="M18953 1420 c-43 -26 -63 -68 -63 -135 0 -66 20 -109 58 -129 65 -33
155 -27 160 11 3 20 1 20 -42 11 -35 -7 -51 -6 -75 6 -35 19 -41 27 -52 74
-11 49 -1 87 30 118 23 23 32 26 78 22 45 -4 53 -2 53 13 0 9 -7 20 -16 23
-32 12 -100 5 -131 -14z"/>
<path d="M19150 1420 c0 -17 7 -20 50 -20 l50 0 0 -130 0 -130 25 0 25 0 0
130 0 130 50 0 c43 0 50 3 50 20 0 19 -7 20 -125 20 -118 0 -125 -1 -125 -20z"/>
<path d="M19460 1220 l0 -220 25 0 c25 0 25 1 25 80 0 72 9 97 25 71 11 -19
62 -22 102 -6 74 30 108 145 67 231 -28 59 -105 82 -168 49 -35 -18 -36 -18
-36 0 0 8 -9 15 -20 15 -19 0 -20 -7 -20 -220z m192 149 c26 -35 27 -122 1
-157 -28 -38 -68 -48 -109 -28 l-34 16 0 84 c0 77 2 86 23 101 34 24 96 16
119 -16z"/>
<path d="M19828 1433 c-10 -2 -18 -12 -18 -22 0 -15 8 -17 60 -13 70 5 100
-12 100 -59 0 -28 -1 -28 -44 -23 -88 12 -136 -20 -136 -91 0 -75 72 -113 145
-75 47 24 45 24 45 5 0 -8 9 -15 20 -15 19 0 20 7 20 110 0 121 -10 154 -51
176 -26 13 -103 17 -141 7z m140 -196 c3 -35 1 -39 -32 -52 -19 -8 -41 -15
-49 -15 -25 0 -49 26 -49 53 0 45 19 58 76 55 l51 -3 3 -38z"/>
<path d="M20110 1290 l0 -150 25 0 c24 0 25 2 25 65 l0 65 75 0 75 0 0 -65 c0
-63 1 -65 25 -65 l26 0 -3 148 c-3 144 -3 147 -25 150 -22 3 -23 0 -23 -62 l0
-66 -75 0 -75 0 0 65 c0 63 -1 65 -25 65 l-25 0 0 -150z"/>
<path d="M20590 1290 l0 -150 25 0 25 0 0 125 0 125 70 0 70 0 0 -125 0 -125
25 0 25 0 0 150 0 150 -120 0 -120 0 0 -150z"/>
<path d="M20980 1427 c-43 -22 -70 -74 -70 -134 0 -76 24 -121 74 -144 52 -24
70 -24 122 1 52 26 74 68 74 143 0 91 -51 147 -135 147 -22 0 -51 -6 -65 -13z
m119 -44 c29 -24 43 -87 30 -135 -11 -42 -50 -78 -85 -78 -57 0 -101 81 -83
158 10 46 41 72 84 72 18 0 43 -8 54 -17z"/>
<path d="M21443 1420 c-43 -26 -63 -68 -63 -135 0 -66 20 -109 58 -129 65 -33
155 -27 160 11 3 20 1 20 -42 11 -35 -7 -51 -6 -75 6 -35 19 -41 27 -52 74
-11 49 -1 87 30 118 23 23 32 26 78 22 45 -4 53 -2 53 13 0 9 -7 20 -16 23
-32 12 -100 5 -131 -14z"/>
<path d="M21670 1220 l0 -220 25 0 c25 0 25 1 25 80 0 72 9 97 25 71 11 -19
62 -22 102 -6 74 30 108 145 67 231 -28 59 -105 82 -168 49 -35 -18 -36 -18
-36 0 0 8 -9 15 -20 15 -19 0 -20 -7 -20 -220z m192 149 c26 -35 27 -122 1
-157 -28 -38 -68 -48 -109 -28 l-34 16 0 84 c0 77 2 86 23 101 34 24 96 16
119 -16z"/>
<path d="M22038 1433 c-10 -2 -18 -12 -18 -22 0 -15 8 -17 60 -13 70 5 100
-12 100 -59 0 -28 -1 -28 -44 -23 -88 12 -136 -20 -136 -91 0 -75 72 -113 145
-75 47 24 45 24 45 5 0 -8 9 -15 20 -15 19 0 20 7 20 110 0 121 -10 154 -51
176 -26 13 -103 17 -141 7z m140 -196 c3 -35 1 -39 -32 -52 -19 -8 -41 -15
-49 -15 -25 0 -49 26 -49 53 0 45 19 58 76 55 l51 -3 3 -38z"/>
<path d="M22320 1290 l0 -150 75 0 c91 0 137 17 154 57 15 36 1 78 -28 88 -19
6 -18 7 5 30 66 66 -4 124 -148 125 l-58 0 0 -150z m161 100 c11 -6 19 -21 19
-35 0 -31 -26 -45 -84 -45 l-46 0 0 45 0 45 46 0 c25 0 54 -5 65 -10z m17
-132 c17 -17 15 -44 -4 -62 -10 -11 -34 -16 -70 -16 l-54 0 0 45 0 45 58 0
c32 0 63 -5 70 -12z"/>
<path d="M22630 1290 l0 -150 25 0 c24 0 25 2 25 65 l0 65 75 0 75 0 0 -65 c0
-63 1 -65 25 -65 l26 0 -3 148 c-3 144 -3 147 -25 150 -22 3 -23 0 -23 -62 l0
-66 -75 0 -75 0 0 65 c0 63 -1 65 -25 65 l-25 0 0 -150z"/>
<path d="M23016 1419 c-39 -31 -56 -71 -56 -134 0 -90 33 -133 115 -148 45 -9
109 5 113 25 3 14 -6 16 -64 16 -63 -1 -69 0 -95 30 -16 18 -29 41 -29 52 0
19 7 20 105 20 l106 0 -6 38 c-11 62 -26 92 -56 107 -41 22 -101 19 -133 -6z
m116 -36 c9 -10 19 -28 22 -40 7 -23 6 -23 -73 -23 -72 0 -80 2 -74 18 20 57
92 82 125 45z"/>
<path d="M23290 1290 l0 -150 25 0 c24 0 25 2 25 65 l0 65 75 0 75 0 0 -65 c0
-63 1 -65 25 -65 l26 0 -3 148 c-3 144 -3 147 -25 150 -22 3 -23 0 -23 -62 l0
-66 -75 0 -75 0 0 65 c0 63 -1 65 -25 65 l-25 0 0 -150z"/>
<path d="M23630 1290 c0 -149 0 -150 23 -150 16 0 42 27 102 110 l80 110 3
-110 c3 -110 3 -110 28 -110 l25 0 -3 147 c-4 192 -8 193 -120 43 l-83 -111
-3 111 c-3 110 -3 110 -27 110 l-25 0 0 -150z"/>
<path d="M23980 1290 l0 -150 25 0 c24 0 25 2 25 66 l0 65 31 -3 c26 -2 33 -9
44 -41 18 -52 41 -75 87 -87 97 -27 178 42 178 151 0 90 -55 149 -138 149 -70
0 -104 -27 -132 -102 -7 -22 -16 -28 -40 -28 l-30 0 0 65 c0 63 -1 65 -25 65
l-25 0 0 -150z m301 97 c40 -31 52 -113 24 -167 -57 -110 -189 -17 -155 110 6
21 20 46 33 55 26 18 76 19 98 2z"/>
<path d="M24653 1420 c-43 -26 -63 -68 -63 -135 0 -66 20 -109 58 -129 65 -33
155 -27 160 11 3 20 1 20 -42 11 -35 -7 -51 -6 -75 6 -35 19 -41 27 -52 74
-11 49 -1 87 30 118 23 23 32 26 78 22 45 -4 53 -2 53 13 0 9 -7 20 -16 23
-32 12 -100 5 -131 -14z"/>
<path d="M25070 1427 c-43 -22 -70 -74 -70 -134 0 -76 24 -121 74 -144 52 -24
70 -24 122 1 52 26 74 68 74 143 0 91 -51 147 -135 147 -22 0 -51 -6 -65 -13z
m119 -44 c29 -24 43 -87 30 -135 -11 -42 -50 -78 -85 -78 -57 0 -101 81 -83
158 10 46 41 72 84 72 18 0 43 -8 54 -17z"/>
<path d="M25690 1290 l0 -150 180 0 180 0 0 -50 c0 -47 2 -50 25 -50 24 0 25
2 25 70 0 68 -1 70 -25 70 l-25 0 0 130 0 130 -25 0 -25 0 0 -130 0 -130 -55
0 -55 0 0 130 c0 123 -1 130 -20 130 -19 0 -20 -7 -20 -130 l0 -130 -55 0 -55
0 0 130 0 130 -25 0 -25 0 0 -150z"/>
<path d="M26170 1290 c0 -149 0 -150 23 -150 16 0 42 27 102 110 l80 110 3
-110 c3 -110 3 -110 28 -110 l25 0 -3 147 c-4 192 -8 193 -120 43 l-83 -111
-3 111 c-3 110 -3 110 -27 110 l-25 0 0 -150z"/>
<path d="M26520 1290 l0 -150 25 0 25 0 1 118 0 117 47 -118 c31 -77 52 -116
61 -115 7 2 34 55 60 118 l46 115 3 -117 c2 -110 4 -118 22 -118 19 0 20 7 20
151 l0 150 -32 -3 c-30 -3 -34 -7 -70 -103 -22 -55 -43 -104 -47 -108 -4 -4
-27 42 -50 103 l-43 110 -34 0 -34 0 0 -150z"/>
<path d="M27060 1290 l0 -150 25 0 c24 0 25 2 25 73 l0 72 72 -73 c56 -57 77
-72 96 -70 23 3 20 8 -43 75 l-67 73 61 68 c34 38 61 72 61 75 0 4 -10 7 -23
7 -17 0 -43 -22 -90 -76 l-67 -75 0 75 c0 74 -1 76 -25 76 l-25 0 0 -150z"/>
<path d="M27410 1427 c-43 -22 -70 -74 -70 -134 0 -76 24 -121 74 -144 52 -24
70 -24 122 1 52 26 74 68 74 143 0 91 -51 147 -135 147 -22 0 -51 -6 -65 -13z
m119 -44 c29 -24 43 -87 30 -135 -11 -42 -50 -78 -85 -78 -57 0 -101 81 -83
158 10 46 41 72 84 72 18 0 43 -8 54 -17z"/>
<path d="M27746 1354 c-22 -112 -39 -152 -71 -164 -34 -13 -35 -50 0 -50 49 0
84 58 115 185 17 70 17 70 51 70 l34 0 3 -127 c2 -120 4 -128 22 -128 19 0 20
7 20 150 l0 150 -78 0 -79 0 -17 -86z"/>
<path d="M28020 1290 c0 -149 0 -150 23 -150 16 0 42 27 102 110 l80 110 3
-110 c3 -110 3 -110 28 -110 l25 0 -3 147 c-4 192 -8 193 -120 43 l-83 -111
-3 111 c-3 110 -3 110 -27 110 l-25 0 0 -150z"/>
<path d="M28362 1365 c3 -68 7 -80 28 -97 21 -17 35 -19 88 -15 l62 5 0 -59
c0 -56 1 -59 25 -59 l25 0 0 150 0 150 -25 0 c-24 0 -25 -2 -25 -70 l0 -69
-41 -11 c-33 -9 -45 -8 -64 4 -20 13 -24 25 -27 78 -3 58 -5 63 -27 66 -23 4
-23 3 -19 -73z"/>
<path d="M28726 1419 c-39 -31 -56 -71 -56 -134 0 -90 33 -133 115 -148 45 -9
109 5 113 25 3 14 -6 16 -64 16 -63 -1 -69 0 -95 30 -16 18 -29 41 -29 52 0
19 7 20 105 20 l106 0 -6 38 c-11 62 -26 92 -56 107 -41 22 -101 19 -133 -6z
m116 -36 c9 -10 19 -28 22 -40 7 -23 6 -23 -73 -23 -72 0 -80 2 -74 18 20 57
92 82 125 45z"/>
<path d="M29053 1420 c-43 -26 -63 -68 -63 -135 0 -66 20 -109 58 -129 65 -33
155 -27 160 11 3 20 1 20 -42 11 -35 -7 -51 -6 -75 6 -35 19 -41 27 -52 74
-11 49 -1 87 30 118 23 23 32 26 78 22 45 -4 53 -2 53 13 0 9 -7 20 -16 23
-32 12 -100 5 -131 -14z"/>
<path d="M29250 1420 c0 -17 7 -20 50 -20 l50 0 0 -130 0 -130 25 0 25 0 0
130 0 130 50 0 c43 0 50 3 50 20 0 19 -7 20 -125 20 -118 0 -125 -1 -125 -20z"/>
<path d="M29560 1290 l0 -150 75 0 c91 0 137 17 154 57 15 36 1 78 -28 88 -19
6 -18 7 5 30 66 66 -4 124 -148 125 l-58 0 0 -150z m161 100 c11 -6 19 -21 19
-35 0 -31 -26 -45 -84 -45 l-46 0 0 45 0 45 46 0 c25 0 54 -5 65 -10z m17
-132 c17 -17 15 -44 -4 -62 -10 -11 -34 -16 -70 -16 l-54 0 0 45 0 45 58 0
c32 0 63 -5 70 -12z"/>
<path d="M29930 1427 c-43 -22 -70 -74 -70 -134 0 -76 24 -121 74 -144 52 -24
70 -24 122 1 52 26 74 68 74 143 0 91 -51 147 -135 147 -22 0 -51 -6 -65 -13z
m119 -44 c29 -24 43 -87 30 -135 -11 -42 -50 -78 -85 -78 -57 0 -101 81 -83
158 10 46 41 72 84 72 18 0 43 -8 54 -17z"/>
<path d="M30210 1290 l0 -150 25 0 25 0 1 118 0 117 47 -118 c31 -77 52 -116
61 -115 7 2 34 55 60 118 l46 115 3 -117 c2 -110 4 -118 22 -118 19 0 20 7 20
151 l0 150 -32 -3 c-30 -3 -34 -7 -70 -103 -22 -55 -43 -104 -47 -108 -4 -4
-27 42 -50 103 l-43 110 -34 0 -34 0 0 -150z"/>
<path d="M9260 1170 c0 -27 3 -30 30 -30 27 0 30 3 30 30 0 27 -3 30 -30 30
-27 0 -30 -3 -30 -30z"/>
</g>
</svg>
