<?xml version="1.0" standalone="no"?>
<!DOCTYPE svg PUBLIC "-//W3C//DTD SVG 20010904//EN"
 "http://www.w3.org/TR/2001/REC-SVG-20010904/DTD/svg10.dtd">
<svg version="1.0" xmlns="http://www.w3.org/2000/svg"
 width="3607.000000pt" height="2179.000000pt" viewBox="0 0 3607.000000 2179.000000"
 preserveAspectRatio="xMidYMid meet">

<g transform="translate(0.000000,2179.000000) scale(0.100000,-0.100000)"
fill="#000000" stroke="none">
<path d="M170 19547 c-18 -9 -26 -22 -28 -46 l-3 -34 27 22 c55 43 114 16 114
-53 0 -35 -9 -56 -51 -117 -28 -41 -62 -85 -75 -100 -13 -14 -24 -28 -24 -32
0 -4 52 -7 115 -7 l115 0 0 25 c0 24 -2 25 -65 25 -36 0 -65 4 -65 9 0 4 14
26 31 47 64 81 88 170 59 225 -23 43 -100 61 -150 36z"/>
<path d="M464 19535 c-38 -38 -54 -87 -54 -165 0 -108 34 -174 95 -186 82 -15
135 58 135 186 0 121 -43 190 -118 190 -22 0 -41 -8 -58 -25z m108 -65 c24
-47 24 -153 0 -200 -14 -28 -23 -35 -47 -35 -46 0 -67 48 -63 145 4 92 25 133
66 128 19 -2 32 -13 44 -38z"/>
<path d="M734 19535 c-38 -38 -54 -87 -54 -165 0 -108 34 -174 95 -186 82 -15
135 58 135 186 0 121 -43 190 -118 190 -22 0 -41 -8 -58 -25z m108 -65 c12
-23 18 -58 18 -100 0 -87 -23 -135 -65 -135 -46 0 -67 48 -63 145 4 92 25 133
66 128 19 -2 32 -13 44 -38z"/>
<path d="M1014 19535 c-38 -38 -54 -87 -54 -165 0 -108 34 -174 95 -186 82
-15 135 58 135 186 0 121 -43 190 -118 190 -22 0 -41 -8 -58 -25z m108 -65
c12 -23 18 -58 18 -100 0 -87 -23 -135 -65 -135 -46 0 -67 48 -63 145 4 92 25
133 66 128 19 -2 32 -13 44 -38z"/>
<path d="M34860 19370 l0 -190 25 0 25 0 0 190 0 190 -25 0 -25 0 0 -190z"/>
<path d="M35095 19527 c-31 -31 -55 -100 -55 -157 0 -97 58 -190 118 -190 41
0 87 40 107 95 22 55 17 164 -9 218 -35 72 -108 87 -161 34z m111 -42 c37 -56
25 -222 -18 -248 -21 -14 -64 -1 -73 20 -29 76 -23 197 12 235 23 26 59 23 79
-7z"/>
<path d="M35365 19527 c-31 -31 -55 -100 -55 -157 0 -97 58 -190 118 -190 41
0 87 40 107 95 22 55 17 164 -9 218 -35 72 -108 87 -161 34z m111 -42 c37 -56
25 -222 -18 -248 -21 -14 -64 -1 -73 20 -29 76 -23 197 12 235 23 26 59 23 79
-7z"/>
<path d="M35616 19534 c-51 -52 -17 -134 57 -134 70 0 103 85 52 135 -32 33
-75 33 -109 -1z m78 -20 c24 -9 21 -61 -4 -74 -27 -15 -60 4 -60 33 0 38 27
55 64 41z"/>
<path d="M35754 19393 c-59 -93 -114 -178 -122 -190 -13 -21 -13 -23 5 -23 14
0 39 31 87 105 37 58 91 144 121 190 46 71 52 85 36 85 -14 0 -49 -47 -127
-167z"/>
<path d="M35792 19317 c-38 -40 -28 -98 20 -123 81 -42 157 58 93 121 -32 33
-83 34 -113 2z m79 -17 c22 -13 25 -52 5 -70 -42 -34 -94 22 -56 60 23 23 25
23 51 10z"/>
<path d="M220 18070 l0 -190 25 0 25 0 0 190 0 190 -25 0 -25 0 0 -190z"/>
<path d="M468 18244 c-35 -19 -48 -43 -48 -92 0 -26 6 -45 20 -57 19 -18 19
-18 -5 -47 -36 -43 -34 -96 6 -134 26 -25 38 -29 84 -29 46 0 58 4 84 29 41
39 44 102 7 137 l-25 24 22 23 c15 16 22 36 22 64 0 78 -92 123 -167 82z m108
-58 c23 -36 1 -80 -42 -84 -39 -4 -64 19 -64 58 0 52 76 70 106 26z m1 -157
c18 -16 16 -59 -4 -81 -20 -22 -70 -23 -95 -1 -25 23 -23 68 5 88 23 17 69 14
94 -6z"/>
<path d="M734 18235 c-38 -38 -54 -87 -54 -165 0 -108 34 -174 96 -186 80 -15
134 59 134 186 -1 121 -43 190 -118 190 -22 0 -41 -8 -58 -25z m108 -65 c41
-80 13 -231 -43 -238 -16 -2 -32 5 -45 19 -27 30 -28 191 -1 233 26 39 66 33
89 -14z"/>
<path d="M1014 18235 c-38 -38 -54 -87 -54 -165 0 -108 34 -174 96 -186 80
-15 134 59 134 186 -1 121 -43 190 -118 190 -22 0 -41 -8 -58 -25z m108 -65
c41 -80 13 -231 -43 -238 -16 -2 -32 5 -45 19 -27 30 -28 191 -1 233 26 39 66
33 89 -14z"/>
<path d="M220 16770 l0 -190 25 0 25 0 0 190 0 190 -25 0 -25 0 0 -190z"/>
<path d="M508 16913 c-53 -55 -73 -92 -88 -158 -21 -93 21 -163 104 -172 42
-5 48 -3 81 30 28 28 35 43 35 75 0 74 -69 127 -133 103 -15 -6 -27 -8 -27 -5
0 16 34 64 68 98 35 33 39 41 29 57 -7 11 -14 19 -17 19 -3 0 -26 -21 -52 -47z
m60 -179 c44 -30 17 -104 -38 -104 -31 0 -54 23 -64 62 -11 48 55 75 102 42z"/>
<path d="M734 16935 c-38 -38 -54 -87 -54 -165 0 -108 34 -174 96 -186 80 -15
134 59 134 186 -1 121 -43 190 -118 190 -22 0 -41 -8 -58 -25z m108 -65 c41
-80 13 -231 -43 -238 -16 -2 -32 5 -45 19 -27 30 -28 191 -1 233 26 39 66 33
89 -14z"/>
<path d="M1014 16935 c-38 -38 -54 -87 -54 -165 0 -108 34 -174 96 -186 80
-15 134 59 134 186 -1 121 -43 190 -118 190 -22 0 -41 -8 -58 -25z m108 -65
c41 -80 13 -231 -43 -238 -16 -2 -32 5 -45 19 -27 30 -28 191 -1 233 26 39 66
33 89 -14z"/>
<path d="M34840 16953 c-59 -22 -86 -97 -51 -143 23 -32 27 -50 10 -50 -5 0
-17 -16 -25 -36 -40 -95 69 -179 166 -129 63 32 79 101 36 152 -24 28 -24 29
-5 52 21 25 25 81 9 112 -21 37 -93 59 -140 42z m81 -53 c23 -13 26 -62 3 -84
-29 -29 -80 -17 -95 22 -20 52 37 91 92 62z m3 -171 c46 -36 23 -99 -37 -99
-62 0 -92 71 -45 104 30 21 50 20 82 -5z"/>
<path d="M35095 16927 c-51 -51 -68 -151 -40 -244 37 -123 145 -139 200 -29
84 168 -45 388 -160 273z m114 -52 c33 -67 20 -213 -21 -238 -21 -14 -64 -1
-73 20 -29 76 -23 197 12 235 25 28 65 19 82 -17z"/>
<path d="M35336 16934 c-51 -52 -19 -134 53 -134 74 0 109 83 56 135 -32 33
-75 33 -109 -1z m81 -22 c11 -7 16 -26 14 -49 0 -7 -10 -17 -21 -23 -27 -15
-60 4 -60 33 0 38 35 59 67 39z"/>
<path d="M35474 16793 c-59 -93 -114 -178 -122 -190 -13 -21 -13 -23 5 -23 14
0 39 31 87 105 37 58 91 144 121 190 47 72 52 85 36 85 -14 0 -49 -46 -127
-167z"/>
<path d="M35512 16717 c-42 -44 -20 -119 37 -132 51 -11 100 27 101 78 0 66
-92 103 -138 54z m96 -46 c5 -31 -16 -53 -47 -49 -20 2 -27 9 -29 33 -3 19 2
33 13 41 23 17 59 3 63 -25z"/>
<path d="M30362 15955 c-61 -27 -75 -110 -25 -156 49 -47 141 -20 157 47 10
39 -19 93 -58 109 -41 18 -33 18 -74 0z m73 -55 c22 -24 13 -66 -15 -75 -52
-16 -90 36 -55 75 10 11 26 20 35 20 9 0 25 -9 35 -20z"/>
<path d="M30481 15749 c-77 -121 -141 -222 -141 -225 0 -2 10 -4 23 -4 18 1
46 38 147 197 69 108 133 209 143 225 l19 28 -25 0 c-21 0 -44 -30 -166 -221z"/>
<path d="M29783 15907 c-71 -75 -95 -127 -101 -215 -4 -65 -2 -76 22 -112 62
-95 211 -69 235 41 21 94 -68 182 -152 150 -27 -10 -28 -10 -21 11 10 31 51
84 88 113 26 20 29 28 20 42 -20 31 -39 25 -91 -30z m60 -198 c29 -15 37 -28
37 -59 0 -68 -78 -96 -119 -44 -29 37 -28 88 2 102 29 14 54 14 80 1z"/>
<path d="M30000 15930 l0 -30 90 0 c50 0 90 -3 90 -6 0 -3 -34 -83 -75 -176
-42 -94 -75 -172 -73 -173 10 -8 50 -26 52 -23 2 3 120 265 170 381 l26 57
-140 0 -140 0 0 -30z"/>
<path d="M5367 15878 c-64 -64 -99 -133 -105 -210 -5 -71 1 -98 34 -137 65
-78 197 -49 224 48 13 49 -3 103 -42 136 -28 24 -39 27 -85 23 -29 -3 -53 -3
-53 0 0 15 48 77 85 109 42 38 43 39 25 61 -10 12 -21 22 -24 22 -3 0 -29 -24
-59 -52z m75 -215 c10 -9 18 -30 18 -49 0 -73 -81 -95 -127 -35 -19 24 -16 78
5 90 27 16 83 13 104 -6z"/>
<path d="M5580 15900 l0 -30 90 0 c65 0 90 -3 90 -12 0 -7 -34 -87 -74 -178
-67 -148 -73 -166 -58 -177 9 -7 21 -13 27 -13 9 0 163 327 202 428 4 9 -27
12 -136 12 l-141 0 0 -30z"/>
<path d="M5921 15903 c-65 -60 -28 -163 58 -163 70 0 113 58 91 124 -22 68
-97 87 -149 39z m97 -35 c16 -16 15 -53 -2 -67 -20 -17 -67 -10 -79 11 -18 27
7 68 41 68 15 0 33 -5 40 -12z"/>
<path d="M6157 15863 c-161 -251 -237 -371 -237 -377 0 -4 10 -6 22 -4 16 2
58 59 165 226 129 202 140 222 118 222 -19 0 -34 -15 -68 -67z"/>
<path d="M30583 15712 c-32 -5 -73 -58 -73 -93 0 -66 70 -114 131 -89 40 17
59 47 59 91 0 59 -54 101 -117 91z m49 -54 c24 -20 28 -44 12 -67 -17 -23 -53
-28 -72 -9 -17 17 -15 54 4 72 19 19 35 20 56 4z"/>
<path d="M6139 15665 c-55 -30 -62 -116 -12 -155 62 -49 153 -7 153 71 0 73
-78 120 -141 84z m85 -57 c9 -12 16 -26 16 -30 0 -13 -39 -48 -54 -48 -37 0
-61 61 -34 88 19 19 55 14 72 -10z"/>
<path d="M220 15470 l0 -190 25 0 25 0 0 190 0 190 -25 0 -25 0 0 -190z"/>
<path d="M491 15548 c-50 -62 -91 -118 -91 -125 0 -9 21 -13 75 -13 l74 0 3
-62 c3 -57 5 -63 26 -66 21 -3 22 0 22 58 0 53 3 63 20 67 11 3 20 14 20 24 0
12 -7 19 -20 19 -19 0 -20 7 -20 105 0 58 -4 105 -9 105 -5 0 -50 -51 -100
-112z m56 -95 c-3 -2 -22 -3 -42 -1 l-37 3 39 49 38 49 3 -47 c2 -27 1 -50 -1
-53z"/>
<path d="M751 15647 c-44 -22 -71 -90 -71 -176 1 -120 43 -191 115 -191 72 0
115 71 115 190 0 145 -70 223 -159 177z m91 -77 c41 -80 13 -231 -43 -238 -16
-2 -32 5 -45 19 -27 30 -28 191 -1 233 26 39 66 33 89 -14z"/>
<path d="M1031 15647 c-44 -22 -71 -90 -71 -176 1 -120 43 -191 115 -191 72 0
115 71 115 190 0 145 -70 223 -159 177z m91 -77 c41 -80 13 -231 -43 -238 -16
-2 -32 5 -45 19 -27 30 -28 191 -1 233 26 39 66 33 89 -14z"/>
<path d="M13789 15341 c-58 -18 -69 -30 -69 -72 l0 -41 31 26 c38 32 90 35
119 6 46 -46 13 -136 -107 -286 l-55 -69 128 -3 c70 -1 134 0 142 3 8 3 12 16
10 32 -3 27 -5 28 -80 33 l-78 5 36 45 c83 104 106 199 64 267 -29 48 -87 70
-141 54z"/>
<path d="M14209 15138 c-75 -117 -139 -219 -143 -225 -5 -9 0 -13 16 -13 19 0
44 33 143 187 66 103 130 204 143 225 l23 38 -23 0 c-20 0 -46 -34 -159 -212z"/>
<path d="M13512 15296 c-69 -64 -104 -133 -110 -215 -5 -82 13 -132 60 -161
70 -42 153 -17 189 57 17 35 18 48 10 80 -19 69 -85 111 -147 94 -19 -5 -34
-6 -34 -3 0 19 46 81 83 114 34 31 40 41 31 55 -18 29 -32 26 -82 -21z m45
-207 c34 -13 43 -26 43 -63 0 -40 -26 -66 -66 -66 -67 0 -101 98 -44 127 31
16 32 16 67 2z"/>
<path d="M14056 15315 c-24 -23 -31 -43 -27 -90 3 -30 57 -75 90 -75 34 0 79
33 92 68 12 32 -5 87 -34 107 -34 23 -90 19 -121 -10z m95 -34 c20 -16 22 -23
14 -47 -9 -24 -16 -29 -45 -29 -29 0 -36 5 -45 29 -8 24 -6 31 14 47 13 10 27
19 31 19 4 0 18 -9 31 -19z"/>
<path d="M22478 15223 c-12 -14 -233 -355 -272 -420 -5 -9 0 -13 16 -13 20 0
46 35 161 215 75 118 137 219 137 225 0 16 -25 12 -42 -7z"/>
<path d="M21653 15186 c-69 -62 -105 -132 -111 -217 -5 -80 7 -118 50 -154 52
-44 154 -29 190 27 37 57 26 131 -24 173 -28 24 -39 27 -85 23 -29 -3 -53 -3
-53 -1 0 17 37 66 77 104 46 43 48 48 35 68 -8 11 -18 21 -22 21 -4 0 -30 -20
-57 -44z m69 -223 c22 -20 23 -70 1 -95 -23 -25 -77 -24 -103 4 -25 27 -27 83
-2 97 27 16 83 13 104 -6z"/>
<path d="M21960 15010 l0 -220 30 0 30 0 0 220 0 220 -30 0 -30 0 0 -220z"/>
<path d="M22196 15204 c-45 -46 -34 -128 21 -153 56 -25 113 -3 132 52 33 94
-83 171 -153 101z m102 -36 c7 -7 12 -21 12 -33 0 -28 -19 -45 -50 -45 -31 0
-50 17 -50 45 0 28 19 45 50 45 14 0 31 -5 38 -12z"/>
<path d="M14259 15061 c-61 -62 -14 -161 77 -161 41 0 84 51 84 97 0 85 -100
125 -161 64z m110 -39 c23 -43 -27 -91 -68 -65 -20 13 -26 50 -11 69 18 20 67
18 79 -4z"/>
<path d="M22401 14951 c-42 -40 -43 -90 -2 -132 39 -38 87 -39 130 -3 43 36
44 93 2 135 -40 40 -88 40 -130 0z m104 -45 c22 -33 5 -66 -33 -66 -33 0 -52
16 -52 45 0 48 58 62 85 21z"/>
<path d="M220 14170 l0 -190 25 0 25 0 0 190 0 190 -25 0 -25 0 0 -190z"/>
<path d="M450 14347 c-18 -9 -26 -22 -28 -46 l-3 -34 27 22 c54 43 114 16 114
-51 0 -45 -18 -81 -90 -173 -25 -33 -49 -66 -54 -72 -5 -10 19 -13 108 -13
l116 0 0 25 c0 24 -2 25 -65 25 -36 0 -65 3 -65 6 0 4 15 27 34 53 51 71 66
106 66 158 -1 90 -81 140 -160 100z"/>
<path d="M748 14345 c-42 -24 -68 -89 -68 -176 1 -118 44 -189 115 -189 72 0
115 71 115 190 0 147 -71 224 -162 175z m94 -75 c41 -80 13 -231 -43 -238 -16
-2 -32 5 -45 19 -27 30 -28 191 -1 233 26 39 66 33 89 -14z"/>
<path d="M1028 14345 c-42 -24 -68 -89 -68 -176 1 -118 44 -189 115 -189 72 0
115 71 115 190 0 147 -71 224 -162 175z m94 -75 c41 -80 13 -231 -43 -238 -16
-2 -32 5 -45 19 -27 30 -28 191 -1 233 26 39 66 33 89 -14z"/>
<path d="M34866 14315 c-142 -137 -117 -352 38 -332 99 14 129 139 46 195 -27
18 -42 22 -72 17 -21 -4 -38 -3 -38 2 0 16 40 69 75 98 35 30 36 31 17 48 -19
17 -21 16 -66 -28z m64 -185 c24 -24 25 -48 4 -78 -15 -22 -57 -30 -80 -14
-15 10 -34 47 -34 68 0 42 75 59 110 24z"/>
<path d="M35095 14325 c-52 -54 -67 -149 -40 -242 17 -58 62 -103 101 -103 73
0 116 63 122 178 4 62 1 79 -22 126 -41 84 -105 101 -161 41z m114 -50 c33
-67 21 -213 -20 -238 -21 -13 -65 -1 -74 20 -29 76 -23 197 12 235 25 28 65
19 82 -17z"/>
<path d="M35355 14348 c-49 -28 -59 -78 -24 -122 27 -35 86 -36 117 -3 61 65
-16 169 -93 125z m62 -36 c11 -7 16 -26 14 -49 0 -7 -10 -17 -21 -23 -27 -15
-60 4 -60 33 0 38 35 59 67 39z"/>
<path d="M35475 14193 c-60 -93 -115 -178 -123 -190 -13 -21 -13 -23 6 -23 13
0 32 20 59 63 22 34 76 119 121 190 66 102 78 127 63 127 -14 0 -50 -48 -126
-167z"/>
<path d="M35512 14117 c-30 -32 -29 -81 3 -112 49 -50 134 -13 135 58 0 66
-92 103 -138 54z m96 -46 c5 -30 -16 -53 -46 -49 -35 4 -48 42 -22 68 24 24
63 13 68 -19z"/>
<path d="M220 12870 l0 -190 25 0 25 0 0 190 0 190 -25 0 -25 0 0 -190z"/>
<path d="M478 13045 c-42 -24 -68 -89 -68 -176 1 -118 44 -189 115 -189 72 0
115 71 115 190 0 147 -71 224 -162 175z m94 -75 c24 -47 24 -153 0 -200 -21
-43 -59 -51 -88 -19 -27 30 -28 191 -1 233 26 39 66 33 89 -14z"/>
<path d="M748 13045 c-42 -24 -68 -89 -68 -176 1 -118 44 -189 115 -189 72 0
115 71 115 190 0 147 -71 224 -162 175z m94 -75 c41 -80 13 -231 -43 -238 -16
-2 -32 5 -45 19 -27 30 -28 191 -1 233 26 39 66 33 89 -14z"/>
<path d="M1028 13045 c-42 -24 -68 -89 -68 -176 1 -118 44 -189 115 -189 72 0
115 71 115 190 0 147 -71 224 -162 175z m94 -75 c41 -80 13 -231 -43 -238 -16
-2 -32 5 -45 19 -27 30 -28 191 -1 233 26 39 66 33 89 -14z"/>
<path d="M474 11750 c-31 -12 -64 -59 -64 -89 0 -14 9 -40 19 -58 19 -31 19
-31 0 -48 -44 -41 -32 -121 23 -155 89 -54 201 11 183 106 -3 17 -14 39 -25
49 -19 17 -19 18 0 43 66 83 -34 194 -136 152z m88 -57 c37 -33 10 -93 -43
-93 -28 0 -59 31 -59 59 0 44 67 66 102 34z m11 -175 c21 -25 21 -37 1 -66
-26 -37 -98 -28 -115 15 -25 66 66 106 114 51z"/>
<path d="M741 11734 c-63 -53 -79 -206 -31 -292 39 -70 102 -82 155 -29 74 74
74 240 0 314 -41 41 -81 43 -124 7z m85 -32 c26 -17 38 -60 38 -132 0 -96 -20
-140 -65 -140 -26 0 -33 6 -49 43 -51 110 5 277 76 229z"/>
<path d="M1011 11734 c-63 -53 -79 -206 -31 -292 39 -70 102 -82 155 -29 74
74 74 240 0 314 -41 41 -81 43 -124 7z m85 -32 c26 -17 38 -60 38 -132 0 -96
-20 -140 -65 -140 -26 0 -33 6 -49 43 -51 110 5 277 76 229z"/>
<path d="M34845 11643 c-52 -64 -95 -121 -95 -125 0 -4 36 -8 80 -8 l80 0 0
-65 c0 -63 1 -65 25 -65 24 0 25 2 25 65 0 58 2 65 20 65 13 0 20 7 20 20 0
13 -7 20 -20 20 -19 0 -20 7 -20 105 0 61 -4 105 -10 105 -5 0 -52 -53 -105
-117z m65 -43 l0 -50 -40 0 c-22 0 -40 3 -40 6 0 8 69 94 76 94 2 0 4 -22 4
-50z"/>
<path d="M35095 11725 c-52 -54 -67 -149 -40 -242 17 -58 62 -103 101 -103 73
0 116 63 122 178 4 62 1 79 -22 126 -41 84 -105 101 -161 41z m115 -50 c22
-44 20 -183 -3 -218 -22 -33 -71 -38 -87 -7 -34 63 -30 201 7 242 25 28 65 19
83 -17z"/>
<path d="M35355 11748 c-49 -28 -59 -78 -24 -122 27 -35 86 -36 117 -3 61 65
-16 169 -93 125z m69 -49 c17 -25 12 -45 -15 -60 -26 -14 -59 5 -59 34 0 47
48 63 74 26z"/>
<path d="M35475 11593 c-60 -93 -115 -178 -123 -190 -13 -21 -13 -23 5 -23 15
0 43 36 105 133 47 72 101 158 122 190 32 50 34 57 17 57 -14 0 -48 -46 -126
-167z"/>
<path d="M35512 11517 c-30 -32 -29 -81 3 -112 49 -50 134 -13 135 58 0 66
-92 103 -138 54z m94 -42 c8 -31 -10 -55 -43 -55 -15 0 -27 8 -32 23 -13 32 4
57 39 57 23 0 31 -5 36 -25z"/>
<path d="M514 10426 c-83 -71 -128 -211 -90 -284 45 -88 178 -78 206 16 24 78
-40 151 -119 136 -18 -4 -31 -2 -31 3 0 17 58 91 80 103 23 12 26 33 7 49 -11
8 -23 3 -53 -23z m59 -207 c17 -24 18 -30 6 -55 -11 -23 -22 -30 -51 -32 -42
-4 -68 23 -68 70 0 53 77 64 113 17z"/>
<path d="M741 10434 c-63 -53 -79 -206 -31 -292 39 -70 102 -82 155 -29 74 74
74 240 0 314 -41 41 -81 43 -124 7z m85 -32 c26 -17 38 -60 38 -132 0 -96 -20
-140 -65 -140 -26 0 -33 6 -49 43 -51 110 5 277 76 229z"/>
<path d="M1011 10434 c-63 -53 -79 -206 -31 -292 39 -70 102 -82 155 -29 74
74 74 240 0 314 -41 41 -81 43 -124 7z m85 -32 c26 -17 38 -60 38 -132 0 -96
-20 -140 -65 -140 -26 0 -33 6 -49 43 -51 110 5 277 76 229z"/>
<path d="M4090 10180 l0 -220 35 0 35 0 0 220 0 220 -35 0 -35 0 0 -220z"/>
<path d="M4410 10180 l0 -220 35 0 35 0 0 220 0 220 -35 0 -35 0 0 -220z"/>
<path d="M4676 10366 c-32 -29 -36 -39 -36 -82 0 -32 7 -57 19 -74 19 -24 19
-24 -5 -53 -29 -34 -33 -104 -8 -143 38 -58 146 -75 205 -33 62 44 71 137 19
184 l-20 18 22 24 c18 19 23 36 23 75 0 44 -4 53 -37 84 -33 30 -44 34 -92 34
-48 0 -59 -4 -90 -34z m136 -43 c22 -20 24 -66 2 -87 -36 -36 -114 -8 -114 41
0 52 72 82 112 46z m5 -195 c30 -28 30 -72 1 -92 -31 -22 -84 -20 -108 4 -63
63 42 149 107 88z"/>
<path d="M5050 10180 l0 -220 35 0 35 0 0 220 0 220 -35 0 -35 0 0 -220z"/>
<path d="M28625 9168 c-55 -43 -65 -110 -24 -169 18 -26 18 -27 -1 -44 -52
-47 -42 -141 19 -182 61 -41 167 -26 205 29 25 35 21 111 -8 144 l-23 28 24
35 c35 51 27 104 -21 148 -31 29 -43 33 -90 33 -40 0 -60 -6 -81 -22z m127
-55 c40 -36 10 -103 -45 -103 -58 0 -88 60 -50 102 20 22 70 23 95 1z m5 -195
c46 -43 15 -108 -52 -108 -42 0 -75 29 -75 65 0 59 81 86 127 43z"/>
<path d="M28957 9170 c-46 -36 -71 -105 -72 -195 0 -142 51 -225 139 -225 89
0 139 80 139 220 0 140 -50 220 -138 220 -27 0 -51 -7 -68 -20z m117 -73 c18
-24 21 -43 21 -126 0 -77 -4 -103 -18 -124 -36 -55 -86 -49 -111 13 -18 46
-21 164 -5 207 26 68 75 81 113 30z"/>
<path d="M29268 9174 c-76 -41 -77 -170 -2 -218 18 -13 41 -17 75 -14 30 2 49
-1 49 -8 0 -17 -47 -76 -87 -111 l-38 -32 22 -22 21 -22 30 22 c73 52 141 177
142 260 0 56 -31 121 -69 144 -35 21 -106 22 -143 1z m122 -64 c27 -27 27 -85
1 -100 -76 -40 -159 42 -101 100 11 11 33 20 50 20 17 0 39 -9 50 -20z"/>
<path d="M487 9050 c-48 -60 -90 -116 -93 -124 -5 -14 6 -16 75 -16 l81 0 0
-65 c0 -63 1 -65 25 -65 24 0 25 2 25 65 0 58 2 65 20 65 13 0 20 7 20 20 0
13 -7 20 -20 20 -19 0 -20 7 -20 105 0 78 -3 105 -12 104 -7 0 -52 -49 -101
-109z m63 -50 l0 -50 -46 0 -45 0 38 50 c21 27 41 49 46 50 4 0 7 -22 7 -50z"/>
<path d="M741 9134 c-63 -53 -79 -206 -31 -292 39 -70 102 -82 155 -29 74 74
74 240 0 314 -41 41 -81 43 -124 7z m85 -32 c41 -27 54 -177 20 -240 -15 -28
-22 -33 -49 -30 -39 4 -59 39 -65 113 -9 109 41 193 94 157z"/>
<path d="M1011 9134 c-63 -53 -79 -206 -31 -292 39 -70 102 -82 155 -29 74 74
74 240 0 314 -41 41 -81 43 -124 7z m85 -32 c41 -27 54 -177 20 -240 -15 -28
-22 -33 -49 -30 -39 4 -59 39 -65 113 -9 109 41 193 94 157z"/>
<path d="M34803 9144 c-28 -14 -33 -22 -33 -53 0 -20 4 -31 8 -25 14 20 57 44
79 44 32 0 63 -34 63 -70 0 -41 -26 -90 -94 -178 -31 -40 -56 -74 -56 -77 0
-3 52 -5 115 -5 l115 0 0 25 c0 24 -2 25 -71 25 l-71 0 16 23 c77 106 90 130
94 181 4 48 1 57 -24 85 -36 40 -93 50 -141 25z"/>
<path d="M35112 9144 c-85 -60 -92 -270 -11 -338 53 -45 122 -26 155 41 26 54
31 163 9 218 -30 80 -100 116 -153 79z m100 -81 c16 -37 19 -60 16 -114 -6
-84 -27 -119 -68 -119 -34 0 -46 18 -60 90 -11 59 2 145 27 172 9 10 27 18 40
18 19 0 28 -10 45 -47z"/>
<path d="M35355 9148 c-49 -28 -59 -81 -22 -123 59 -69 164 2 131 90 -7 17
-54 45 -76 45 -7 0 -22 -6 -33 -12z m69 -49 c17 -25 12 -45 -15 -60 -26 -14
-59 5 -59 34 0 47 48 63 74 26z"/>
<path d="M35475 8993 c-60 -93 -115 -178 -123 -190 -13 -21 -13 -23 5 -23 15
0 43 36 105 133 47 72 101 158 122 190 32 50 34 57 17 57 -14 0 -48 -46 -126
-167z"/>
<path d="M6895 9123 c-54 -14 -95 -66 -95 -121 0 -16 11 -46 25 -66 21 -31 22
-38 10 -43 -21 -7 -45 -56 -45 -88 0 -72 63 -125 149 -125 49 0 57 3 93 40 39
39 40 42 36 92 -4 40 -12 57 -31 74 -25 22 -26 22 -6 40 11 9 23 31 28 48 24
92 -66 173 -164 149z m89 -85 c21 -30 20 -54 -4 -78 -40 -40 -110 -15 -110 41
0 37 24 59 65 59 24 0 39 -7 49 -22z m-6 -184 c50 -35 17 -114 -48 -114 -42 0
-70 26 -70 65 0 39 28 65 70 65 14 0 36 -7 48 -16z"/>
<path d="M7215 9123 c-54 -14 -95 -66 -95 -121 0 -16 11 -46 25 -66 21 -31 22
-38 10 -43 -21 -7 -45 -56 -45 -88 0 -72 63 -125 149 -125 49 0 57 3 93 40 39
39 40 42 36 92 -4 40 -12 57 -31 74 -25 22 -26 22 -6 40 11 9 23 31 28 48 24
92 -66 173 -164 149z m89 -85 c21 -30 20 -54 -4 -78 -40 -40 -110 -15 -110 41
0 37 24 59 65 59 24 0 39 -7 49 -22z m-6 -184 c50 -35 17 -114 -48 -114 -42 0
-70 26 -70 65 0 39 28 65 70 65 14 0 36 -7 48 -16z"/>
<path d="M6480 9090 l0 -30 94 0 94 0 -79 -177 c-43 -97 -76 -180 -71 -185 4
-4 18 -9 30 -10 21 -3 32 16 118 206 52 115 94 213 94 218 0 4 -63 8 -140 8
l-140 0 0 -30z"/>
<path d="M12292 9053 l3 -28 93 -3 c69 -2 93 -6 89 -15 -2 -7 -37 -86 -78
-176 -69 -156 -72 -164 -54 -177 10 -8 24 -14 29 -14 9 0 57 102 188 401 l17
39 -145 0 -145 0 3 -27z"/>
<path d="M12612 9053 l3 -28 93 -3 c69 -2 93 -6 89 -15 -2 -7 -37 -86 -78
-176 -69 -156 -72 -164 -54 -177 10 -8 24 -14 29 -14 9 0 57 102 188 401 l17
39 -145 0 -145 0 3 -27z"/>
<path d="M13048 9038 c-120 -114 -151 -284 -66 -365 26 -24 37 -28 89 -28 57
0 63 2 95 37 29 33 34 45 34 88 0 43 -5 55 -34 88 -32 34 -38 37 -89 36 -51
-1 -54 0 -49 20 3 11 30 45 59 73 46 46 52 56 43 73 -16 29 -32 25 -82 -22z
m75 -230 c55 -65 -37 -146 -100 -86 -16 15 -23 33 -23 59 0 32 4 39 28 48 36
13 73 5 95 -21z"/>
<path d="M20434 8956 c-3 -8 -4 -23 -2 -33 3 -15 17 -19 95 -23 l92 -5 -75
-168 c-40 -92 -74 -171 -74 -176 0 -4 11 -13 26 -19 24 -12 26 -10 46 35 12
27 56 126 100 222 43 96 78 176 78 178 0 1 -63 3 -140 3 -113 0 -142 -3 -146
-14z"/>
<path d="M20841 8834 c-61 -75 -111 -142 -111 -150 0 -11 20 -14 90 -14 l90 0
0 -70 0 -70 35 0 35 0 0 70 c0 68 1 70 26 70 22 0 25 4 22 28 -2 19 -9 28 -25
30 -22 3 -23 7 -23 123 0 97 -3 119 -14 119 -8 0 -65 -61 -125 -136z m69 -54
l0 -50 -40 0 c-22 0 -40 3 -40 6 0 7 71 94 76 94 2 0 4 -22 4 -50z"/>
<path d="M21136 8940 c-48 -43 -71 -108 -71 -200 1 -181 129 -282 223 -176 41
47 57 98 57 186 -1 172 -113 274 -209 190z m102 -47 c64 -57 52 -286 -18 -308
-52 -17 -90 51 -90 161 0 77 15 130 43 149 28 19 40 19 65 -2z"/>
<path d="M35512 8917 c-46 -49 -10 -137 56 -137 40 0 82 41 82 80 0 69 -91
107 -138 57z m94 -42 c8 -33 -12 -57 -45 -53 -18 2 -27 10 -29 26 -6 37 5 52
37 52 24 0 32 -5 37 -25z"/>
<path d="M31301 8193 c-61 -76 -111 -144 -111 -150 0 -10 25 -13 90 -13 l89 0
3 -72 3 -73 33 -3 32 -3 0 75 c0 74 1 76 25 76 20 0 25 5 25 25 0 20 -5 25
-25 25 l-25 0 0 125 c0 99 -3 125 -14 125 -7 0 -64 -62 -125 -137z m66 -110
c-3 -2 -23 -3 -46 -1 l-40 3 42 54 42 54 3 -53 c2 -29 1 -54 -1 -57z"/>
<path d="M31600 8321 c-54 -17 -70 -34 -70 -73 0 -21 5 -38 10 -38 6 0 10 4
10 8 0 13 56 42 82 42 35 0 65 -25 72 -61 9 -44 -21 -106 -105 -215 -38 -51
-69 -94 -69 -98 0 -3 61 -6 135 -6 l135 0 0 35 0 34 -75 3 -75 3 41 55 c56 73
79 126 79 180 0 48 -26 102 -57 118 -28 16 -85 22 -113 13z"/>
<path d="M30930 8207 l0 -113 33 3 c75 8 137 -60 102 -113 -31 -48 -77 -54
-157 -19 -15 6 -18 2 -18 -24 0 -38 39 -61 105 -61 176 0 209 228 39 271 l-44
11 0 49 0 49 65 0 65 0 0 30 0 30 -95 0 -95 0 0 -113z"/>
<path d="M14702 8021 c-62 -76 -112 -146 -112 -155 0 -14 14 -16 90 -16 l89 0
3 -67 3 -68 33 -3 32 -3 0 70 c0 69 1 71 25 71 21 0 25 5 25 30 0 25 -4 30
-25 30 l-25 0 0 125 c0 96 -3 125 -13 125 -7 0 -63 -62 -125 -139z m68 -56 l0
-55 -46 0 -45 0 43 55 c23 30 44 55 45 55 2 0 3 -25 3 -55z"/>
<path d="M14981 8125 c-54 -46 -61 -107 -20 -166 18 -26 18 -27 -1 -44 -33
-30 -45 -85 -27 -128 45 -106 228 -103 264 5 14 43 3 96 -26 122 -19 17 -19
18 6 54 35 52 27 105 -21 149 -31 29 -43 33 -90 33 -44 0 -60 -5 -85 -25z
m131 -52 c40 -36 10 -103 -45 -103 -58 0 -88 60 -50 102 20 22 70 23 95 1z m3
-198 c30 -29 32 -58 5 -85 -42 -42 -130 -13 -130 42 0 32 38 68 72 68 17 0 39
-10 53 -25z"/>
<path d="M15308 8134 c-37 -19 -58 -63 -58 -118 0 -37 6 -51 35 -81 32 -35 37
-37 89 -33 52 3 55 2 50 -17 -8 -26 -29 -52 -77 -96 -36 -33 -38 -38 -26 -58
8 -11 19 -21 25 -21 24 0 102 82 133 140 81 152 31 301 -101 300 -23 -1 -55
-7 -70 -16z m122 -64 c27 -27 27 -85 1 -100 -23 -12 -71 -13 -87 -2 -36 24
-39 92 -5 112 27 16 70 11 91 -10z"/>
<path d="M22844 7905 c-60 -74 -110 -141 -112 -150 -3 -13 12 -15 92 -15 l96
0 0 -70 0 -70 30 0 30 0 0 70 c0 68 1 70 25 70 21 0 25 5 25 30 0 25 -4 30
-25 30 l-25 0 0 120 c0 93 -3 120 -13 120 -8 0 -63 -61 -123 -135z m73 -102
c-3 -2 -23 -3 -46 -1 l-40 3 42 54 42 54 3 -53 c2 -29 1 -54 -1 -57z"/>
<path d="M23110 7925 l0 -115 40 0 c46 0 95 -21 104 -45 12 -32 6 -62 -16 -82
-38 -34 -72 -36 -140 -8 -15 6 -18 2 -18 -28 0 -34 2 -35 50 -47 86 -21 151 5
186 73 43 82 -28 197 -121 197 -24 0 -25 3 -25 55 l0 55 70 0 70 0 0 30 0 30
-100 0 -100 0 0 -115z"/>
<path d="M23484 7905 c-60 -74 -110 -141 -112 -150 -3 -13 12 -15 92 -15 l96
0 0 -70 0 -70 30 0 30 0 0 70 c0 68 1 70 25 70 21 0 25 5 25 30 0 25 -4 30
-25 30 l-25 0 0 120 c0 93 -3 120 -13 120 -8 0 -63 -61 -123 -135z m73 -102
c-3 -2 -23 -3 -46 -1 l-40 3 42 54 42 54 3 -53 c2 -29 1 -54 -1 -57z"/>
<path d="M443 7846 c-27 -12 -33 -21 -33 -45 l0 -31 33 20 c41 25 58 25 91 -1
47 -37 29 -98 -69 -226 -30 -40 -55 -75 -55 -78 0 -3 52 -5 115 -5 l115 0 0
25 c0 23 -3 24 -71 27 l-70 3 40 54 c76 102 90 187 38 239 -30 29 -90 37 -134
18z"/>
<path d="M741 7834 c-41 -34 -65 -117 -58 -194 12 -140 105 -204 182 -127 74
74 74 240 0 314 -41 41 -81 43 -124 7z m85 -32 c41 -27 54 -177 20 -240 -15
-28 -22 -33 -49 -30 -39 4 -59 39 -65 113 -9 109 41 193 94 157z"/>
<path d="M1011 7834 c-41 -34 -65 -117 -58 -194 12 -140 105 -204 182 -127 74
74 74 240 0 314 -41 41 -81 43 -124 7z m85 -32 c41 -27 54 -177 20 -240 -15
-28 -22 -33 -49 -30 -39 4 -59 39 -65 113 -9 109 41 193 94 157z"/>
<path d="M1011 6534 c-41 -34 -65 -117 -58 -194 12 -140 105 -204 182 -127 74
74 74 240 0 314 -41 41 -81 43 -124 7z m85 -32 c41 -27 54 -177 20 -240 -15
-28 -22 -33 -49 -30 -24 2 -35 10 -46 32 -52 110 3 286 75 238z"/>
<path d="M34840 6547 c-34 -17 -68 -82 -76 -144 -20 -160 95 -282 183 -194 77
76 69 265 -12 329 -31 25 -59 27 -95 9z m92 -84 c16 -37 19 -60 16 -114 -6
-84 -27 -119 -68 -119 -22 0 -33 7 -43 28 -32 62 -26 194 10 234 9 10 27 18
40 18 19 0 28 -10 45 -47z"/>
<path d="M35084 6548 c-24 -11 -44 -48 -44 -78 0 -10 10 -30 23 -44 48 -54
137 -25 137 45 0 41 -9 58 -41 74 -32 17 -46 18 -75 3z m70 -50 c13 -19 14
-25 2 -43 -26 -39 -76 -26 -76 19 0 46 48 62 74 24z"/>
<path d="M35199 6383 c-63 -97 -118 -182 -122 -190 -6 -9 -2 -13 11 -13 19 0
31 17 226 323 32 50 34 57 18 57 -14 0 -51 -49 -133 -177z"/>
<path d="M35246 6319 c-35 -28 -36 -80 -1 -114 31 -32 74 -32 109 0 75 70 -26
178 -108 114z m88 -41 c16 -26 -4 -53 -40 -53 -23 0 -30 5 -32 23 -2 13 -1 30
2 38 8 20 56 14 70 -8z"/>
<path d="M5203 5630 c-13 -5 -23 -17 -23 -26 0 -12 6 -15 26 -10 69 18 85 18
109 2 53 -35 23 -99 -85 -182 -76 -58 -69 -64 65 -64 94 0 115 3 115 15 0 11
-18 15 -82 17 l-81 3 55 43 c89 69 110 132 59 183 -25 25 -37 29 -83 28 -29 0
-63 -4 -75 -9z"/>
<path d="M5546 5619 c-38 -30 -56 -71 -56 -129 0 -93 49 -150 130 -150 81 0
130 57 130 150 0 64 -24 116 -61 135 -42 22 -111 19 -143 -6z m117 -30 c37
-29 54 -88 38 -138 -12 -42 -52 -81 -81 -81 -56 0 -102 92 -81 162 12 39 52
78 81 78 10 0 29 -9 43 -21z"/>
<path d="M5878 5618 c-44 -15 -58 -24 -58 -39 0 -23 5 -23 60 -4 23 8 44 15
47 15 2 0 2 -46 1 -102 l-3 -103 -47 -3 c-34 -2 -48 -7 -48 -18 0 -11 21 -14
110 -14 89 0 110 3 110 14 0 10 -13 16 -37 18 l-38 3 -3 128 c-3 145 2 139
-94 105z"/>
<path d="M6148 5617 c-69 -57 -62 -174 14 -213 31 -16 80 -15 135 2 21 6 23 4
17 -27 -10 -54 -37 -93 -78 -113 -32 -16 -46 -17 -82 -9 -39 9 -44 8 -44 -7 0
-23 20 -30 80 -30 106 0 160 68 168 208 5 95 -13 159 -55 192 -37 29 -119 28
-155 -3z m127 -29 c23 -21 44 -76 45 -120 0 -32 -108 -51 -143 -25 -44 32 -35
130 13 154 36 18 55 16 85 -9z"/>
<path d="M13323 5630 c-13 -5 -23 -18 -23 -28 0 -18 3 -19 38 -6 74 26 122 7
122 -50 0 -37 -32 -75 -113 -136 -72 -54 -65 -60 73 -60 100 0 120 3 120 15 0
12 -16 15 -80 15 -44 0 -80 3 -80 8 1 4 21 22 46 40 96 71 112 160 37 200 -25
14 -108 15 -140 2z"/>
<path d="M13665 5618 c-76 -60 -73 -209 7 -258 63 -39 143 -22 180 38 27 43
29 132 4 179 -32 63 -135 85 -191 41z m109 -18 c75 -28 74 -188 -2 -219 -63
-26 -112 21 -112 109 0 60 17 95 54 110 28 12 31 12 60 0z"/>
<path d="M13983 5630 c-13 -5 -23 -18 -23 -28 0 -18 3 -19 38 -6 74 26 122 7
122 -50 0 -37 -32 -75 -113 -136 -72 -54 -65 -60 73 -60 100 0 120 3 120 15 0
12 -16 15 -80 15 -44 0 -80 3 -80 8 1 4 21 22 46 40 96 71 112 160 37 200 -25
14 -108 15 -140 2z"/>
<path d="M14315 5618 c-76 -60 -73 -209 7 -258 63 -39 143 -22 180 38 27 43
29 132 4 179 -32 63 -135 85 -191 41z m109 -18 c75 -28 74 -188 -2 -219 -63
-26 -112 21 -112 109 0 60 17 95 54 110 28 12 31 12 60 0z"/>
<path d="M21483 5630 c-13 -5 -23 -16 -23 -25 0 -18 3 -18 54 -4 49 13 81 5
102 -26 14 -22 14 -27 -1 -59 -9 -19 -46 -57 -85 -88 -38 -29 -69 -59 -69 -65
-1 -10 29 -13 119 -13 100 0 120 3 120 15 0 12 -16 15 -82 15 l-83 0 53 46
c97 85 110 162 35 202 -25 14 -108 15 -140 2z"/>
<path d="M21821 5614 c-50 -42 -65 -150 -30 -215 16 -31 70 -59 112 -59 84 0
131 54 131 150 0 99 -47 150 -138 150 -33 0 -52 -6 -75 -26z m113 -14 c50 -19
73 -118 41 -179 -20 -40 -65 -57 -101 -39 -37 17 -54 52 -54 113 0 55 18 91
54 105 28 12 31 12 60 0z"/>
<path d="M22143 5630 c-13 -5 -23 -16 -23 -25 0 -18 3 -18 54 -4 49 13 81 5
102 -26 14 -22 14 -27 -1 -59 -9 -19 -46 -57 -85 -88 -38 -29 -69 -59 -69 -65
-1 -10 29 -13 119 -13 100 0 120 3 120 15 0 12 -16 15 -82 15 l-83 0 53 46
c97 85 110 162 35 202 -25 14 -108 15 -140 2z"/>
<path d="M22478 5617 c-41 -15 -58 -26 -58 -39 0 -22 6 -22 60 -3 23 8 44 15
46 15 2 0 4 -47 4 -105 l0 -105 -50 0 c-38 0 -50 -4 -50 -15 0 -12 19 -15 115
-15 96 0 115 3 115 15 0 11 -11 15 -40 15 l-40 0 0 130 c0 150 3 147 -102 107z"/>
<path d="M29603 5630 c-13 -5 -23 -18 -23 -28 0 -18 3 -19 38 -6 74 26 122 7
122 -50 0 -37 -32 -75 -113 -136 -72 -54 -65 -60 73 -60 100 0 120 3 120 15 0
12 -16 15 -80 15 -44 0 -80 3 -80 8 1 4 21 22 46 40 96 71 112 160 37 200 -25
14 -108 15 -140 2z"/>
<path d="M29945 5618 c-75 -58 -72 -204 4 -255 63 -42 145 -27 183 35 27 44
30 133 5 179 -33 63 -136 85 -192 41z m109 -18 c75 -28 74 -188 -2 -219 -63
-26 -112 21 -112 109 0 60 17 95 54 110 28 12 31 12 60 0z"/>
<path d="M30263 5630 c-13 -5 -23 -18 -23 -28 0 -18 3 -19 38 -6 74 26 122 7
122 -50 0 -37 -32 -75 -113 -136 -72 -54 -65 -60 73 -60 100 0 120 3 120 15 0
12 -16 15 -80 15 -44 0 -80 3 -80 8 1 4 21 22 46 40 96 71 112 160 37 200 -25
14 -108 15 -140 2z"/>
<path d="M30583 5630 c-13 -5 -23 -18 -23 -28 0 -18 3 -19 38 -6 74 26 122 7
122 -50 0 -37 -32 -75 -113 -136 -72 -54 -65 -60 73 -60 100 0 120 3 120 15 0
12 -16 15 -80 15 -44 0 -80 3 -80 8 1 4 21 22 46 40 96 71 112 160 37 200 -25
14 -108 15 -140 2z"/>
<path d="M13347 4146 c-110 -24 -149 -75 -155 -205 -5 -102 9 -160 48 -204 25
-28 35 -32 78 -32 88 0 137 56 137 156 -1 67 -19 99 -71 124 -38 18 -67 16
-126 -10 -15 -6 -18 -2 -18 23 0 58 48 94 143 107 41 5 47 9 47 31 0 27 -2 27
-83 10z m41 -222 c42 -48 17 -158 -40 -178 -60 -21 -107 33 -111 127 -2 50 -1
53 33 70 44 22 87 16 118 -19z"/>
<path d="M7240 3921 l0 -211 78 0 c42 0 94 5 114 10 81 23 117 122 63 175 -13
14 -32 25 -41 25 -12 0 -8 8 15 29 24 22 31 38 31 66 0 77 -38 102 -170 112
l-90 6 0 -212z m180 149 c58 -31 44 -103 -22 -120 -22 -6 -56 -10 -76 -8 l-37
3 -3 68 -3 67 61 0 c34 0 70 -5 80 -10z m20 -183 c28 -14 38 -62 20 -96 -13
-25 -76 -43 -133 -39 l-42 3 -3 73 -3 72 68 0 c37 0 79 -6 93 -13z"/>
<path d="M7663 3990 c-43 -26 -66 -73 -66 -135 0 -88 43 -142 122 -152 50 -7
114 27 136 73 19 40 19 114 1 159 -29 68 -126 96 -193 55z m118 -33 c27 -21
39 -54 39 -107 0 -44 -5 -56 -29 -81 -35 -34 -68 -37 -104 -8 -54 42 -57 157
-4 194 26 18 76 19 98 2z"/>
<path d="M8453 3995 c-78 -34 -103 -167 -45 -244 25 -34 85 -54 140 -46 31 5
42 11 42 24 0 14 -9 17 -54 17 -64 -1 -90 18 -108 76 -8 29 -8 47 0 77 17 53
51 75 113 69 42 -4 49 -2 49 12 0 31 -81 40 -137 15z"/>
<path d="M8731 3997 c-83 -42 -101 -201 -30 -261 51 -43 179 -45 187 -2 3 15
-2 17 -41 11 -61 -9 -113 9 -132 45 -29 57 -25 60 86 60 l102 0 -5 52 c-4 42
-11 57 -37 80 -35 31 -87 37 -130 15z m97 -40 c6 -7 15 -25 21 -40 l11 -27
-80 0 c-87 0 -92 7 -47 58 23 25 78 30 95 9z"/>
<path d="M10163 3990 c-43 -26 -66 -73 -66 -135 0 -88 43 -142 122 -152 50 -7
114 27 136 73 19 40 19 114 1 159 -29 68 -126 96 -193 55z m118 -33 c27 -21
39 -54 39 -107 0 -44 -5 -56 -29 -81 -35 -34 -68 -37 -104 -8 -54 42 -57 157
-4 194 26 18 76 19 98 2z"/>
<path d="M10513 3995 c-78 -34 -103 -167 -45 -244 25 -34 85 -54 140 -46 31 5
42 11 42 24 0 14 -9 17 -54 17 -64 -1 -90 18 -108 76 -8 29 -8 47 0 77 17 53
51 75 113 69 42 -4 49 -2 49 12 0 31 -81 40 -137 15z"/>
<path d="M11085 3994 c-20 -12 -30 -13 -33 -5 -2 6 -12 11 -23 11 -18 0 -19
-10 -19 -221 l0 -220 23 3 c20 3 22 9 25 86 l3 82 29 -15 c37 -19 64 -19 104
0 86 41 103 202 28 269 -29 25 -99 31 -137 10z m90 -30 c26 -10 45 -59 45
-114 0 -44 -4 -56 -30 -82 -26 -26 -36 -30 -66 -25 -58 10 -64 20 -64 113 0
74 2 84 22 98 23 17 64 21 93 10z"/>
<path d="M11378 4003 c-10 -2 -18 -13 -18 -23 0 -16 6 -18 55 -13 69 7 105
-13 105 -57 0 -29 -1 -30 -44 -24 -63 9 -111 -10 -130 -51 -16 -33 -15 -48 6
-92 21 -43 118 -54 149 -17 15 18 29 18 29 -1 0 -8 9 -15 20 -15 19 0 20 7 20
110 0 124 -9 153 -55 175 -31 14 -98 18 -137 8z m126 -159 c10 -4 16 -18 16
-40 0 -27 -6 -36 -30 -49 -16 -8 -38 -15 -50 -15 -23 0 -60 33 -60 55 0 41 72
69 124 49z"/>
<path d="M13568 4003 c-10 -2 -18 -13 -18 -23 0 -16 6 -18 55 -13 69 7 105
-13 105 -57 0 -29 -1 -30 -44 -24 -63 9 -111 -10 -130 -51 -16 -33 -15 -48 6
-92 21 -43 118 -54 149 -17 15 18 29 18 29 -1 0 -8 9 -15 20 -15 19 0 20 7 20
110 0 124 -9 153 -55 175 -31 14 -98 18 -137 8z m126 -159 c10 -4 16 -18 16
-40 0 -27 -6 -36 -30 -49 -16 -8 -38 -15 -50 -15 -23 0 -60 33 -60 55 0 41 72
69 124 49z"/>
<path d="M14518 4003 c-10 -2 -18 -13 -18 -23 0 -16 6 -18 55 -13 69 7 105
-13 105 -57 0 -29 -1 -30 -44 -24 -63 9 -111 -10 -130 -51 -16 -33 -15 -48 6
-92 21 -43 118 -54 149 -17 15 18 29 18 29 -1 0 -8 9 -15 20 -15 19 0 20 7 20
110 0 124 -9 153 -55 175 -31 14 -98 18 -137 8z m126 -159 c10 -4 16 -18 16
-40 0 -27 -6 -36 -30 -49 -16 -8 -38 -15 -50 -15 -23 0 -60 33 -60 55 0 41 72
69 124 49z"/>
<path d="M8080 3855 l0 -145 74 0 c95 0 134 14 151 53 15 37 3 83 -25 92 -17
5 -16 8 6 30 31 31 30 59 -1 90 -22 23 -32 25 -115 25 l-90 0 0 -145z m150
102 c57 -29 26 -77 -51 -77 l-49 0 0 45 0 45 38 0 c20 0 48 -6 62 -13z m24
-133 c39 -38 5 -74 -70 -74 l-54 0 0 45 0 45 54 0 c36 0 60 -5 70 -16z"/>
<path d="M8970 3995 c0 -3 20 -32 45 -66 25 -34 45 -66 45 -71 0 -5 -19 -35
-43 -66 -61 -80 -62 -82 -34 -82 17 0 33 14 62 55 20 30 41 55 45 55 4 0 26
-25 49 -55 26 -34 49 -55 61 -55 11 0 20 3 20 6 0 3 -19 31 -43 62 -63 82 -62
79 -31 120 15 20 39 52 52 70 l24 32 -25 0 c-19 0 -35 -13 -65 -56 l-40 -56
-38 56 c-27 39 -46 55 -61 56 -13 0 -23 -2 -23 -5z"/>
<path d="M9420 3855 c0 -144 0 -145 23 -145 16 0 42 27 102 110 l80 110 3
-110 c2 -102 4 -110 22 -110 19 0 20 7 20 145 0 136 -1 145 -19 145 -13 0 -46
-36 -98 -106 l-78 -105 -3 105 c-3 105 -3 106 -27 106 l-25 0 0 -145z"/>
<path d="M9770 3855 l0 -145 25 0 c24 0 25 2 25 65 l0 65 75 0 75 0 0 -65 c0
-58 2 -65 20 -65 19 0 20 7 20 145 0 138 -1 145 -20 145 -18 0 -20 -7 -20 -60
l0 -60 -75 0 -75 0 0 60 c0 57 -1 60 -25 60 l-25 0 0 -145z"/>
<path d="M10700 3980 c0 -17 7 -20 50 -20 l50 0 0 -125 0 -125 25 0 25 0 0
125 0 125 50 0 c43 0 50 3 50 20 0 19 -7 20 -125 20 -118 0 -125 -1 -125 -20z"/>
<path d="M11660 3855 l0 -145 25 0 c24 0 25 2 25 65 l0 65 75 0 75 0 0 -65 c0
-58 2 -65 20 -65 19 0 20 7 20 145 0 138 -1 145 -20 145 -18 0 -20 -7 -20 -60
l0 -60 -75 0 -75 0 0 60 c0 57 -1 60 -25 60 l-25 0 0 -145z"/>
<path d="M12000 3855 l0 -145 25 0 c24 0 25 2 25 65 l0 65 75 0 75 0 0 -65 c0
-58 2 -65 20 -65 19 0 20 7 20 145 0 138 -1 145 -20 145 -18 0 -20 -7 -20 -60
l0 -60 -75 0 -75 0 0 60 c0 57 -1 60 -25 60 l-25 0 0 -145z"/>
<path d="M12340 3861 c0 -117 2 -140 16 -145 26 -10 119 -7 153 5 39 14 65 59
56 99 -10 46 -39 64 -111 68 l-64 4 0 54 c0 51 -1 54 -25 54 l-25 0 0 -139z
m164 -27 c40 -39 4 -84 -66 -84 l-48 0 0 50 0 50 49 0 c32 0 55 -6 65 -16z"/>
<path d="M12610 3855 l0 -145 25 0 25 0 0 145 0 145 -25 0 -25 0 0 -145z"/>
<path d="M12740 3995 c0 -3 20 -32 45 -66 25 -34 45 -66 45 -71 0 -5 -19 -35
-43 -66 -61 -80 -62 -82 -34 -82 17 0 33 14 62 55 20 30 41 55 45 55 4 0 26
-25 49 -55 26 -34 49 -55 61 -55 11 0 20 3 20 6 0 3 -19 31 -43 62 -63 82 -62
79 -31 120 15 20 39 52 52 70 l24 32 -25 0 c-19 0 -35 -13 -65 -56 l-40 -56
-38 56 c-27 39 -46 55 -61 56 -13 0 -23 -2 -23 -5z"/>
<path d="M13850 3855 l0 -145 25 0 c24 0 25 2 25 65 l0 65 75 0 75 0 0 -65 c0
-58 2 -65 20 -65 19 0 20 7 20 145 0 138 -1 145 -20 145 -18 0 -20 -7 -20 -60
l0 -60 -75 0 -75 0 0 60 c0 57 -1 60 -25 60 l-25 0 0 -145z"/>
<path d="M14190 3855 l0 -145 25 0 c24 0 25 2 25 73 l1 72 67 -73 c55 -59 73
-72 97 -72 l29 0 -50 53 c-98 103 -95 86 -24 167 61 69 62 70 34 70 -23 0 -42
-14 -91 -67 l-62 -68 -1 68 c0 65 -1 67 -25 67 l-25 0 0 -145z"/>
<path d="M14780 3995 c0 -3 20 -32 45 -66 25 -34 45 -66 45 -71 0 -5 -19 -35
-43 -66 -61 -80 -62 -82 -34 -82 17 0 33 14 62 55 20 30 41 55 45 55 4 0 26
-25 49 -55 26 -34 49 -55 61 -55 11 0 20 3 20 6 0 3 -19 31 -43 62 -63 82 -62
79 -31 120 15 20 39 52 52 70 l24 32 -25 0 c-19 0 -35 -13 -65 -56 l-40 -56
-38 56 c-27 39 -46 55 -61 56 -13 0 -23 -2 -23 -5z"/>
<path d="M8475 3018 c-3 -7 -6 -42 -7 -78 -3 -64 -3 -64 -35 -71 -83 -17 -120
-75 -115 -181 3 -41 57 -97 108 -110 l44 -12 0 -68 c0 -66 1 -68 25 -68 24 0
25 2 25 69 l0 69 33 6 c50 9 97 43 113 81 40 96 -10 194 -109 214 l-32 7 -3
77 c-3 69 -5 77 -23 77 -11 0 -22 -6 -24 -12z m-5 -293 c0 -106 -2 -115 -19
-115 -26 0 -66 34 -81 69 -24 59 16 143 73 154 12 2 23 5 25 6 1 0 2 -51 2
-114z m94 101 c44 -18 66 -52 66 -99 0 -49 -21 -90 -55 -105 -53 -25 -55 -22
-55 103 0 63 2 115 5 115 3 0 21 -6 39 -14z"/>
<path d="M11213 3010 c-53 -12 -95 -43 -117 -85 -29 -55 -31 -242 -3 -292 32
-59 114 -81 177 -48 83 43 90 211 11 258 -36 21 -96 22 -135 2 l-29 -15 6 42
c8 57 42 84 121 95 53 7 61 11 64 31 3 19 -1 22 -30 21 -18 -1 -47 -4 -65 -9z
m47 -208 c16 -13 24 -32 27 -68 9 -96 -73 -160 -133 -104 -21 21 -44 93 -44
140 0 44 108 66 150 32z"/>
<path d="M7605 2871 c-17 -3 -31 -14 -33 -24 -3 -16 2 -17 47 -11 57 7 101
-12 101 -44 0 -30 -21 -42 -72 -42 -41 0 -48 -3 -48 -20 0 -17 7 -20 43 -20
73 0 110 -45 70 -85 -13 -14 -31 -16 -85 -13 -58 3 -68 1 -68 -13 0 -31 118
-41 171 -14 52 27 63 82 24 121 -24 24 -24 25 -5 44 37 37 20 93 -35 116 -36
15 -60 16 -110 5z"/>
<path d="M8080 2873 c-82 -27 -119 -100 -98 -197 13 -64 54 -98 120 -103 94
-7 148 49 148 153 0 66 -24 109 -74 134 -42 20 -66 23 -96 13z m98 -69 c17
-20 22 -37 22 -85 0 -52 -4 -63 -26 -84 -53 -49 -125 -25 -145 47 -31 116 76
204 149 122z"/>
<path d="M9310 2873 c-82 -27 -119 -100 -98 -197 13 -64 54 -98 120 -103 94
-7 148 49 148 153 0 66 -24 109 -74 134 -42 20 -66 23 -96 13z m98 -69 c17
-20 22 -37 22 -85 0 -52 -4 -63 -26 -84 -53 -49 -125 -25 -145 47 -31 116 76
204 149 122z"/>
<path d="M9645 2860 c-47 -24 -45 -24 -45 -5 0 8 -9 15 -20 15 -19 0 -20 -7
-20 -220 l0 -220 25 0 c25 0 25 1 25 86 l0 85 22 -15 c53 -37 147 -5 174 59
30 72 10 177 -38 209 -41 27 -79 29 -123 6z m103 -56 c39 -45 24 -170 -23
-188 -28 -10 -79 -6 -97 8 -15 11 -18 29 -18 99 0 84 1 87 28 102 36 20 81 11
110 -21z"/>
<path d="M11460 2872 c-15 -5 -26 -17 -28 -29 -3 -20 -1 -21 37 -11 69 18 121
-8 121 -60 0 -27 0 -27 -64 -24 -55 3 -66 0 -89 -20 -61 -55 -23 -158 58 -158
20 0 50 7 68 16 21 12 32 13 35 5 2 -6 12 -11 23 -11 17 0 19 8 19 104 0 116
-8 148 -43 170 -28 19 -102 28 -137 18z m106 -162 c21 0 24 -5 24 -34 0 -25
-7 -39 -22 -50 -55 -39 -131 -3 -112 51 9 27 45 45 72 37 8 -2 25 -4 38 -4z"/>
<path d="M12450 2873 c-82 -27 -119 -100 -98 -197 13 -64 54 -98 120 -103 94
-7 148 49 148 153 0 66 -24 109 -74 134 -42 20 -66 23 -96 13z m98 -69 c17
-20 22 -37 22 -85 0 -52 -4 -63 -26 -84 -53 -49 -125 -25 -145 47 -31 116 76
204 149 122z"/>
<path d="M7230 2725 c0 -145 0 -145 23 -145 18 0 42 25 105 111 l82 111 0
-111 c0 -104 1 -111 20 -111 19 0 20 7 20 145 0 186 -5 187 -118 34 l-82 -111
0 111 0 111 -25 0 -25 0 0 -145z"/>
<path d="M8760 2725 l0 -145 180 0 180 0 0 145 c0 138 -1 145 -20 145 -18 0
-20 -8 -22 -127 l-3 -128 -55 0 -55 0 -3 128 c-2 119 -4 127 -22 127 -19 0
-20 -7 -20 -130 l0 -130 -55 0 -55 0 0 130 0 130 -25 0 -25 0 0 -145z"/>
<path d="M9900 2725 l0 -145 25 0 c24 0 25 2 25 65 l0 65 75 0 75 0 0 -65 c0
-58 2 -65 20 -65 19 0 20 7 20 145 0 138 -1 145 -20 145 -18 0 -20 -7 -20 -60
l0 -60 -75 0 -75 0 0 60 c0 57 -1 60 -25 60 l-25 0 0 -145z"/>
<path d="M10240 2726 l0 -144 48 -6 c66 -9 140 12 165 46 17 23 19 34 11 65
-11 47 -57 73 -126 73 l-48 0 0 55 c0 52 -1 55 -25 55 l-25 0 0 -144z m160
-24 c18 -15 22 -25 16 -46 -7 -30 -39 -46 -92 -46 l-34 0 0 55 0 55 44 0 c28
0 52 -7 66 -18z"/>
<path d="M10510 2725 l0 -145 25 0 25 0 0 145 0 145 -25 0 -25 0 0 -145z"/>
<path d="M10656 2833 c88 -119 83 -104 49 -150 -14 -18 -37 -49 -51 -68 l-26
-35 25 0 c20 0 35 13 64 55 21 30 41 55 44 55 4 0 24 -25 44 -55 29 -41 45
-55 62 -55 28 0 27 1 -35 83 l-44 58 38 55 c22 31 45 64 53 75 12 17 11 19
-11 19 -19 0 -34 -14 -63 -55 -20 -30 -40 -55 -44 -55 -3 1 -23 25 -44 55 -29
43 -44 55 -64 55 l-25 0 28 -37z"/>
<path d="M11730 2725 l0 -145 25 0 c24 0 25 2 25 65 l0 65 75 0 75 0 0 -65 c0
-58 2 -65 20 -65 19 0 20 7 20 145 0 138 -1 145 -20 145 -18 0 -20 -7 -20 -60
l0 -60 -75 0 -75 0 0 60 c0 57 -1 60 -25 60 l-25 0 0 -145z"/>
<path d="M12070 2725 l0 -145 25 0 c24 0 25 2 25 67 l0 67 68 -67 c53 -52 74
-67 97 -67 29 0 28 1 -38 68 -37 37 -67 71 -67 75 0 4 28 38 63 75 61 66 61
67 35 70 -26 3 -42 -10 -131 -113 l-26 -30 -1 73 c0 70 -1 72 -25 72 l-25 0 0
-145z"/>
<path d="M12700 2725 l0 -145 89 0 c80 0 93 3 117 23 35 31 38 82 5 108 l-22
18 23 31 c21 29 21 33 7 58 -22 39 -55 52 -141 52 l-78 0 0 -145z m174 83 c20
-33 -4 -53 -68 -56 l-56 -3 0 41 0 41 56 -3 c41 -2 60 -8 68 -20z m-4 -116
c46 -37 2 -82 -81 -82 l-39 0 0 50 0 50 49 0 c32 0 56 -6 71 -18z"/>
<path d="M14920 1815 c0 -64 -3 -75 -17 -75 -33 0 -99 -40 -117 -71 -11 -18
-18 -50 -18 -78 0 -81 41 -135 115 -150 32 -7 32 -7 35 -74 3 -63 4 -67 27
-67 23 0 24 4 27 67 l3 67 34 7 c134 27 165 210 46 276 -22 13 -50 23 -62 23
-22 0 -23 4 -23 75 0 73 -1 75 -25 75 -24 0 -25 -2 -25 -75z m0 -229 l0 -113
-25 5 c-60 11 -100 93 -75 153 15 35 55 69 81 69 17 0 19 -9 19 -114z m111 99
c34 -18 49 -50 49 -103 0 -47 -23 -80 -66 -98 -18 -8 -36 -14 -39 -14 -3 0 -5
52 -5 115 0 127 2 130 61 100z"/>
<path d="M24165 1884 c-79 -17 -108 -30 -135 -60 -36 -42 -50 -90 -50 -179 0
-88 14 -138 49 -177 25 -28 35 -32 80 -32 89 0 136 54 136 156 -1 69 -24 106
-79 127 -33 13 -44 12 -87 -1 l-49 -16 0 24 c0 66 38 95 143 110 41 5 47 9 47
30 0 24 -9 27 -55 18z m6 -223 c71 -71 0 -222 -86 -183 -31 14 -51 54 -60 119
-7 51 -6 53 27 73 47 28 84 26 119 -9z"/>
<path d="M9296 1827 c-97 -127 -100 -306 -6 -442 24 -36 35 -44 45 -35 10 9 6
24 -23 81 -29 57 -37 84 -40 141 -5 90 11 162 49 222 27 44 30 66 9 66 -5 0
-20 -15 -34 -33z"/>
<path d="M29246 1851 c-4 -5 7 -31 23 -57 38 -60 54 -132 49 -222 -3 -57 -11
-84 -40 -141 -29 -57 -33 -72 -23 -81 10 -9 21 -1 45 35 90 130 93 295 7 421
-33 49 -51 62 -61 45z"/>
<path d="M7200 1730 c0 -5 25 -72 55 -148 l56 -138 -30 -70 c-29 -67 -29 -69
-9 -72 11 -2 21 -2 23 0 7 7 175 419 175 428 0 6 -9 10 -19 10 -15 0 -28 -23
-60 -102 -54 -134 -57 -139 -69 -108 -66 170 -85 210 -103 210 -10 0 -19 -4
-19 -10z"/>
<path d="M7597 1685 c-6 -64 -42 -148 -81 -188 -23 -25 -26 -36 -26 -98 0 -62
2 -69 20 -69 18 0 20 7 20 55 l0 55 115 0 115 0 0 -55 c0 -48 2 -55 20 -55 18
0 20 7 20 75 0 68 -2 75 -20 75 -18 0 -20 8 -22 128 l-3 127 -76 3 -76 3 -6
-56z m113 -95 l0 -110 -75 0 c-41 0 -75 2 -75 4 0 2 15 27 34 55 19 28 40 76
47 106 11 51 14 55 41 55 l28 0 0 -110z"/>
<path d="M8180 1590 l0 -150 74 0 c95 0 134 14 151 53 16 37 3 83 -26 92 -19
6 -19 7 0 23 30 25 36 64 14 91 -21 25 -78 40 -160 41 l-53 0 0 -150z m158 94
c47 -33 15 -74 -59 -74 l-49 0 0 45 0 45 43 0 c23 0 53 -7 65 -16z m22 -133
c24 -46 -3 -71 -76 -71 l-54 0 0 45 0 45 60 0 c48 0 61 -4 70 -19z"/>
<path d="M8526 1710 c-58 -52 -68 -163 -19 -229 27 -36 93 -55 151 -44 31 5
48 14 50 24 3 14 -7 17 -63 15 -63 -1 -68 1 -96 32 -16 18 -29 41 -29 52 0 19
7 20 101 20 l102 0 -5 52 c-4 42 -11 57 -37 80 -45 40 -107 39 -155 -2z m126
-27 c8 -10 18 -28 21 -40 5 -22 3 -23 -74 -23 -70 0 -78 2 -72 18 20 56 92 82
125 45z"/>
<path d="M8863 1720 c-43 -26 -65 -71 -65 -134 -1 -86 33 -130 115 -150 43
-10 97 3 97 24 0 15 -9 17 -54 16 -64 -1 -90 17 -108 76 -8 29 -8 48 1 78 16
54 48 74 111 68 43 -4 50 -3 50 12 0 10 -7 21 -16 24 -32 12 -100 5 -131 -14z"/>
<path d="M9420 1591 l0 -151 25 0 c24 0 25 2 25 73 l1 72 67 -73 c53 -57 73
-72 95 -72 28 0 27 2 -38 75 l-68 75 62 69 c33 38 61 72 61 75 0 3 -11 6 -24
6 -17 0 -42 -20 -87 -72 l-64 -72 -5 70 c-5 62 -7 69 -27 72 -23 3 -23 3 -23
-147z"/>
<path d="M9775 1730 c-72 -29 -102 -153 -57 -236 28 -53 115 -77 172 -47 103
53 110 226 11 278 -32 16 -93 19 -126 5z m119 -55 c22 -21 26 -32 26 -84 0
-77 -28 -115 -83 -115 -70 0 -110 70 -87 153 19 71 92 95 144 46z"/>
<path d="M10116 1718 c-3 -13 -10 -52 -16 -88 -15 -84 -43 -138 -75 -146 -16
-4 -25 -13 -25 -25 0 -30 51 -25 82 9 31 31 43 60 67 157 17 70 18 70 52 70
l34 0 3 -127 c2 -120 4 -128 22 -128 19 0 20 7 20 150 l0 150 -80 0 c-75 0
-80 -1 -84 -22z"/>
<path d="M10380 1591 c0 -150 0 -151 23 -150 16 0 42 28 102 110 l80 111 3
-111 c2 -103 4 -111 22 -111 19 0 20 8 20 151 0 186 -3 187 -115 37 l-80 -107
-5 107 c-5 102 -6 107 -27 110 -23 3 -23 3 -23 -147z"/>
<path d="M10720 1671 c0 -91 23 -122 90 -123 25 -1 55 2 68 6 21 7 22 5 22
-53 0 -54 2 -61 20 -61 19 0 20 7 20 150 0 143 -1 150 -20 150 -18 0 -20 -7
-20 -70 l0 -69 -39 -11 c-75 -20 -101 9 -101 111 0 32 -3 39 -20 39 -18 0 -20
-7 -20 -69z"/>
<path d="M11076 1710 c-58 -52 -68 -163 -19 -229 27 -36 93 -55 151 -44 31 5
48 14 50 24 3 14 -7 17 -63 15 -63 -1 -68 1 -96 32 -16 18 -29 41 -29 52 0 19
7 20 101 20 l102 0 -5 52 c-4 42 -11 57 -37 80 -45 40 -107 39 -155 -2z m126
-27 c8 -10 18 -28 21 -40 5 -22 3 -23 -74 -23 -70 0 -78 2 -72 18 20 56 92 82
125 45z"/>
<path d="M11413 1720 c-43 -26 -65 -71 -65 -134 -1 -86 33 -130 115 -150 43
-10 97 3 97 24 0 15 -9 17 -54 16 -64 -1 -90 17 -108 76 -8 29 -8 48 1 78 16
54 48 74 111 68 43 -4 50 -3 50 12 0 10 -7 21 -16 24 -32 12 -100 5 -131 -14z"/>
<path d="M11610 1715 c0 -23 3 -25 50 -25 l50 0 0 -125 0 -125 25 0 25 0 0
125 0 125 50 0 c47 0 50 2 50 25 l0 25 -125 0 -125 0 0 -25z"/>
<path d="M11920 1590 l0 -150 74 0 c95 0 134 14 151 53 16 37 3 83 -26 92 -19
6 -19 7 0 23 30 25 36 64 14 91 -21 25 -78 40 -160 41 l-53 0 0 -150z m158 94
c47 -33 15 -74 -59 -74 l-49 0 0 45 0 45 43 0 c23 0 53 -7 65 -16z m22 -133
c24 -46 -3 -71 -76 -71 l-54 0 0 45 0 45 60 0 c48 0 61 -4 70 -19z"/>
<path d="M12295 1730 c-72 -29 -102 -153 -57 -236 28 -53 115 -77 172 -47 103
53 110 226 11 278 -32 16 -93 19 -126 5z m119 -55 c22 -21 26 -32 26 -84 0
-77 -28 -115 -83 -115 -70 0 -110 70 -87 153 19 71 92 95 144 46z"/>
<path d="M12787 1685 c-6 -64 -42 -148 -81 -188 -23 -25 -26 -36 -26 -98 0
-62 2 -69 20 -69 18 0 20 7 20 55 l0 55 115 0 115 0 0 -55 c0 -48 2 -55 20
-55 18 0 20 7 20 75 0 68 -2 75 -20 75 -18 0 -20 8 -22 128 l-3 127 -76 3 -76
3 -6 -56z m113 -95 l0 -110 -75 0 c-41 0 -75 2 -75 4 0 2 15 27 34 55 19 28
40 76 47 106 11 51 14 55 41 55 l28 0 0 -110z"/>
<path d="M13106 1710 c-58 -52 -68 -163 -19 -229 27 -36 93 -55 151 -44 31 5
48 14 50 24 3 14 -7 17 -63 15 -63 -1 -68 1 -96 32 -16 18 -29 41 -29 52 0 19
7 20 101 20 l102 0 -5 52 c-4 42 -11 57 -37 80 -45 40 -107 39 -155 -2z m126
-27 c8 -10 18 -28 21 -40 5 -22 3 -23 -74 -23 -70 0 -78 2 -72 18 20 56 92 82
125 45z"/>
<path d="M13390 1591 l0 -151 25 0 c24 0 25 2 25 65 l0 65 75 0 75 0 0 -65 c0
-58 2 -65 20 -65 19 0 20 7 20 150 0 143 -1 150 -20 150 -18 0 -20 -7 -20 -65
l0 -65 -75 0 -74 0 -3 63 c-3 56 -5 62 -25 65 -23 3 -23 3 -23 -147z"/>
<path d="M13766 1710 c-58 -52 -68 -163 -19 -229 27 -36 93 -55 151 -44 31 5
48 14 50 24 3 14 -7 17 -63 15 -63 -1 -68 1 -96 32 -16 18 -29 41 -29 52 0 19
7 20 101 20 l102 0 -5 52 c-4 42 -11 57 -37 80 -45 40 -107 39 -155 -2z m126
-27 c8 -10 18 -28 21 -40 5 -22 3 -23 -74 -23 -70 0 -78 2 -72 18 20 56 92 82
125 45z"/>
<path d="M14050 1590 l0 -150 25 0 25 0 0 125 0 125 75 0 c73 0 75 1 75 25 l0
25 -100 0 -100 0 0 -150z"/>
<path d="M14505 1730 c-72 -29 -102 -153 -57 -236 28 -53 115 -77 172 -47 103
53 110 226 11 278 -32 16 -93 19 -126 5z m119 -55 c22 -21 26 -32 26 -84 0
-77 -28 -115 -83 -115 -70 0 -110 70 -87 153 19 71 92 95 144 46z"/>
<path d="M15210 1591 l0 -151 180 0 180 0 0 150 c0 143 -1 150 -20 150 -19 0
-20 -7 -20 -130 l0 -131 -57 3 -58 3 -3 128 c-2 119 -4 127 -22 127 -19 0 -20
-7 -20 -130 l0 -130 -55 0 -54 0 -3 128 c-3 123 -4 127 -25 130 -23 3 -23 3
-23 -147z"/>
<path d="M15735 1730 c-72 -29 -102 -153 -57 -236 28 -53 115 -77 172 -47 103
53 110 226 11 278 -32 16 -93 19 -126 5z m119 -55 c22 -21 26 -32 26 -84 0
-77 -28 -115 -83 -115 -70 0 -110 70 -87 153 19 71 92 95 144 46z"/>
<path d="M16010 1520 l0 -220 25 0 c25 0 25 1 25 79 l0 79 40 -15 c36 -15 43
-14 84 1 36 14 49 26 65 60 69 141 -38 286 -163 221 -27 -14 -31 -14 -38 0 -5
8 -16 15 -23 15 -13 0 -15 -34 -15 -220z m181 161 c19 -15 24 -30 27 -82 3
-54 1 -68 -17 -91 -28 -35 -71 -44 -110 -23 -31 15 -31 16 -31 100 0 75 2 85
22 99 30 21 81 20 109 -3z"/>
<path d="M16350 1591 l0 -151 25 0 c24 0 25 2 25 65 l0 65 75 0 75 0 0 -65 c0
-58 2 -65 20 -65 19 0 20 7 20 150 0 143 -1 150 -20 150 -18 0 -20 -7 -20 -65
l0 -65 -75 0 -74 0 -3 63 c-3 56 -5 62 -25 65 -23 3 -23 3 -23 -147z"/>
<path d="M16690 1597 c0 -164 -4 -157 85 -157 97 0 156 48 139 114 -11 44 -49
66 -115 66 l-58 0 -3 58 c-3 50 -6 57 -25 60 -23 3 -23 3 -23 -141z m132 -18
c28 -7 40 -17 44 -36 10 -37 -24 -63 -82 -63 l-44 0 0 49 c0 49 2 51 40 60 3
0 22 -4 42 -10z"/>
<path d="M16967 1733 c-4 -3 -7 -71 -7 -150 l0 -143 25 0 25 0 0 150 c0 139
-1 150 -18 150 -10 0 -22 -3 -25 -7z"/>
<path d="M17086 1728 c4 -7 27 -39 51 -70 24 -31 43 -61 43 -66 0 -5 -19 -36
-43 -68 -62 -85 -62 -84 -35 -84 16 1 35 18 66 60 l44 60 44 -60 c34 -46 50
-60 69 -60 24 0 23 3 -31 75 l-56 74 51 71 c28 38 51 72 51 75 0 3 -9 5 -20 5
-13 0 -35 -22 -64 -61 l-44 -60 -42 60 c-32 46 -49 61 -67 61 -17 0 -22 -4
-17 -12z"/>
<path d="M17593 1720 c-43 -26 -65 -71 -65 -134 -1 -86 33 -130 115 -150 43
-10 97 3 97 24 0 15 -9 17 -54 16 -64 -1 -90 17 -108 76 -8 29 -8 48 1 78 16
54 48 74 111 68 43 -4 50 -3 50 12 0 10 -7 21 -16 24 -32 12 -100 5 -131 -14z"/>
<path d="M17790 1715 c0 -23 3 -25 50 -25 l50 0 0 -125 0 -125 25 0 25 0 0
125 0 125 50 0 c47 0 50 2 50 25 l0 25 -125 0 -125 0 0 -25z"/>
<path d="M18100 1520 l0 -220 25 0 c25 0 25 1 25 79 l0 79 40 -15 c36 -15 43
-14 84 1 36 14 49 26 65 60 69 141 -38 286 -163 221 -27 -14 -31 -14 -38 0 -5
8 -16 15 -23 15 -13 0 -15 -34 -15 -220z m181 161 c19 -15 24 -30 27 -82 3
-54 1 -68 -17 -91 -28 -35 -71 -44 -110 -23 -31 15 -31 16 -31 100 0 75 2 85
22 99 30 21 81 20 109 -3z"/>
<path d="M18468 1733 c-10 -2 -18 -12 -18 -22 0 -15 7 -17 55 -13 69 6 105
-14 105 -58 0 -29 0 -29 -50 -23 -63 7 -104 -9 -123 -50 -42 -88 48 -163 138
-117 47 24 45 24 45 5 0 -8 9 -15 20 -15 19 0 20 7 20 110 0 121 -10 154 -51
176 -26 13 -103 17 -141 7z m126 -159 c10 -4 16 -18 16 -39 0 -28 -5 -35 -36
-50 -44 -21 -81 -13 -96 20 -18 39 12 75 61 75 22 0 46 -3 55 -6z"/>
<path d="M18750 1591 l0 -151 25 0 c24 0 25 2 25 65 l0 65 75 0 75 0 0 -65 c0
-58 2 -65 20 -65 19 0 20 7 20 150 0 143 -1 150 -20 150 -18 0 -20 -7 -20 -65
l0 -65 -75 0 -74 0 -3 63 c-3 56 -5 62 -25 65 -23 3 -23 3 -23 -147z"/>
<path d="M19230 1590 l0 -150 25 0 25 0 0 125 0 125 70 0 70 0 0 -125 0 -125
25 0 25 0 0 150 0 150 -120 0 -120 0 0 -150z"/>
<path d="M19625 1730 c-72 -29 -102 -153 -57 -236 28 -53 115 -77 172 -47 103
53 110 226 11 278 -32 16 -93 19 -126 5z m119 -55 c22 -21 26 -32 26 -84 0
-77 -28 -115 -83 -115 -70 0 -110 70 -87 153 19 71 92 95 144 46z"/>
<path d="M20083 1720 c-43 -26 -65 -71 -65 -134 -1 -86 33 -130 115 -150 43
-10 97 3 97 24 0 15 -9 17 -54 16 -64 -1 -90 17 -108 76 -8 29 -8 48 1 78 16
54 48 74 111 68 43 -4 50 -3 50 12 0 10 -7 21 -16 24 -32 12 -100 5 -131 -14z"/>
<path d="M20310 1520 l0 -220 25 0 c25 0 25 1 25 79 l0 79 40 -15 c36 -15 43
-14 84 1 36 14 49 26 65 60 69 141 -38 286 -163 221 -27 -14 -31 -14 -38 0 -5
8 -16 15 -23 15 -13 0 -15 -34 -15 -220z m181 161 c19 -15 24 -30 27 -82 3
-54 1 -68 -17 -91 -28 -35 -71 -44 -110 -23 -31 15 -31 16 -31 100 0 75 2 85
22 99 30 21 81 20 109 -3z"/>
<path d="M20678 1733 c-10 -2 -18 -12 -18 -22 0 -15 7 -17 55 -13 69 6 105
-14 105 -58 0 -29 0 -29 -50 -23 -63 7 -104 -9 -123 -50 -42 -88 48 -163 138
-117 47 24 45 24 45 5 0 -8 9 -15 20 -15 19 0 20 7 20 110 0 121 -10 154 -51
176 -26 13 -103 17 -141 7z m126 -159 c10 -4 16 -18 16 -39 0 -28 -5 -35 -36
-50 -44 -21 -81 -13 -96 20 -18 39 12 75 61 75 22 0 46 -3 55 -6z"/>
<path d="M20960 1590 l0 -150 74 0 c95 0 134 14 151 53 16 37 3 83 -26 92 -19
6 -19 7 0 23 30 25 36 64 14 91 -21 25 -78 40 -160 41 l-53 0 0 -150z m158 94
c47 -33 15 -74 -59 -74 l-49 0 0 45 0 45 43 0 c23 0 53 -7 65 -16z m24 -139
c18 -40 -12 -65 -79 -65 l-53 0 0 45 0 45 60 0 c55 0 62 -2 72 -25z"/>
<path d="M21270 1591 l0 -151 25 0 c24 0 25 2 25 65 l0 65 75 0 75 0 0 -65 c0
-58 2 -65 20 -65 19 0 20 7 20 150 0 143 -1 150 -20 150 -18 0 -20 -7 -20 -65
l0 -65 -75 0 -74 0 -3 63 c-3 56 -5 62 -25 65 -23 3 -23 3 -23 -147z"/>
<path d="M21646 1710 c-58 -52 -68 -163 -19 -229 27 -36 93 -55 151 -44 31 5
48 14 50 24 3 14 -7 17 -63 15 -63 -1 -68 1 -96 32 -16 18 -29 41 -29 52 0 19
7 20 101 20 l102 0 -5 52 c-4 42 -11 57 -37 80 -45 40 -107 39 -155 -2z m126
-27 c8 -10 18 -28 21 -40 5 -22 3 -23 -74 -23 -70 0 -78 2 -72 18 20 56 92 82
125 45z"/>
<path d="M21930 1591 l0 -151 25 0 c24 0 25 2 25 65 l0 65 75 0 75 0 0 -65 c0
-58 2 -65 20 -65 19 0 20 7 20 150 0 143 -1 150 -20 150 -18 0 -20 -7 -20 -65
l0 -65 -75 0 -74 0 -3 63 c-3 56 -5 62 -25 65 -23 3 -23 3 -23 -147z"/>
<path d="M22270 1591 c0 -150 0 -151 23 -150 16 0 42 28 102 110 l80 111 3
-111 c2 -103 4 -111 22 -111 19 0 20 8 20 151 0 186 -3 187 -115 37 l-80 -107
-5 107 c-5 102 -6 107 -27 110 -23 3 -23 3 -23 -147z"/>
<path d="M22620 1591 l0 -151 25 0 c24 0 25 2 25 65 l0 65 30 0 c25 0 30 -5
39 -36 35 -128 213 -135 260 -11 27 70 -3 173 -58 201 -39 21 -106 20 -141 -1
-26 -15 -51 -52 -64 -95 -4 -12 -15 -18 -35 -18 -30 0 -30 0 -33 63 -3 56 -5
62 -25 65 -23 3 -23 3 -23 -147z m314 78 c47 -56 29 -163 -32 -188 -70 -29
-140 55 -118 142 20 80 101 105 150 46z"/>
<path d="M23293 1720 c-43 -26 -65 -71 -65 -134 -1 -86 33 -130 115 -150 43
-10 97 3 97 24 0 15 -9 17 -54 16 -64 -1 -90 17 -108 76 -8 29 -8 48 1 78 16
54 48 74 111 68 43 -4 50 -3 50 12 0 10 -7 21 -16 24 -32 12 -100 5 -131 -14z"/>
<path d="M23715 1730 c-72 -29 -102 -153 -57 -236 28 -53 115 -77 172 -47 103
53 110 226 11 278 -32 16 -93 19 -126 5z m119 -55 c22 -21 26 -32 26 -84 0
-77 -28 -115 -83 -115 -70 0 -110 70 -87 153 19 71 92 95 144 46z"/>
<path d="M24330 1591 l0 -151 180 0 180 0 0 -55 c0 -48 2 -55 20 -55 18 0 20
7 20 75 0 68 -2 75 -20 75 -18 0 -20 8 -22 128 -3 123 -4 127 -25 130 -23 3
-23 3 -23 -127 l0 -131 -55 0 -55 0 0 130 c0 123 -1 130 -20 130 -18 0 -20 -8
-22 -127 l-3 -128 -52 -3 -52 -3 -3 128 c-3 124 -4 128 -25 131 -23 3 -23 3
-23 -147z"/>
<path d="M24810 1591 c0 -150 0 -151 23 -150 16 0 42 28 102 110 l80 111 3
-111 c2 -103 4 -111 22 -111 19 0 20 8 20 151 0 186 -3 187 -115 37 l-80 -107
-5 107 c-5 102 -6 107 -27 110 -23 3 -23 3 -23 -147z"/>
<path d="M25160 1590 l0 -150 26 0 25 0 -3 115 c-2 63 -1 115 2 115 3 0 25
-52 49 -116 31 -82 48 -114 59 -112 8 2 33 49 57 111 23 59 45 110 48 114 4 3
7 -46 7 -110 0 -110 1 -117 20 -117 19 0 20 7 20 151 l0 150 -32 -3 c-32 -3
-34 -7 -77 -117 l-44 -114 -45 117 -45 116 -33 0 -34 0 0 -150z"/>
<path d="M25700 1591 l0 -151 25 0 c24 0 25 2 25 73 l1 72 67 -73 c53 -57 73
-72 95 -72 28 0 27 2 -38 75 l-68 75 62 69 c33 38 61 72 61 75 0 3 -11 6 -24
6 -17 0 -42 -20 -87 -72 l-64 -72 -5 70 c-5 62 -7 69 -27 72 -23 3 -23 3 -23
-147z"/>
<path d="M26055 1730 c-72 -29 -102 -153 -57 -236 28 -53 115 -77 172 -47 103
53 110 226 11 278 -32 16 -93 19 -126 5z m119 -55 c22 -21 26 -32 26 -84 0
-77 -28 -115 -83 -115 -70 0 -110 70 -87 153 19 71 92 95 144 46z"/>
<path d="M26396 1718 c-3 -13 -10 -52 -16 -88 -15 -84 -43 -138 -75 -146 -16
-4 -25 -13 -25 -25 0 -30 51 -25 82 9 31 31 43 60 67 157 17 70 18 70 52 70
l34 0 3 -127 c2 -120 4 -128 22 -128 19 0 20 7 20 150 l0 150 -80 0 c-75 0
-80 -1 -84 -22z"/>
<path d="M26660 1591 c0 -150 0 -151 23 -150 16 0 42 28 102 110 l80 111 3
-111 c2 -103 4 -111 22 -111 19 0 20 8 20 151 0 186 -3 187 -115 37 l-80 -107
-5 107 c-5 102 -6 107 -27 110 -23 3 -23 3 -23 -147z"/>
<path d="M27000 1671 c0 -91 23 -122 90 -123 25 -1 55 2 68 6 21 7 22 5 22
-53 0 -54 2 -61 20 -61 19 0 20 7 20 150 0 143 -1 150 -20 150 -18 0 -20 -7
-20 -70 l0 -69 -39 -11 c-75 -20 -101 9 -101 111 0 32 -3 39 -20 39 -18 0 -20
-7 -20 -69z"/>
<path d="M27356 1710 c-58 -52 -68 -163 -19 -229 27 -36 93 -55 151 -44 31 5
48 14 50 24 3 14 -7 17 -63 15 -63 -1 -68 1 -96 32 -16 18 -29 41 -29 52 0 19
7 20 101 20 l102 0 -5 52 c-4 42 -11 57 -37 80 -45 40 -107 39 -155 -2z m126
-27 c8 -10 18 -28 21 -40 5 -22 3 -23 -74 -23 -70 0 -78 2 -72 18 20 56 92 82
125 45z"/>
<path d="M27693 1720 c-43 -26 -65 -71 -65 -134 -1 -86 33 -130 115 -150 43
-10 97 3 97 24 0 15 -9 17 -54 16 -64 -1 -90 17 -108 76 -8 29 -8 48 1 78 16
54 48 74 111 68 43 -4 50 -3 50 12 0 10 -7 21 -16 24 -32 12 -100 5 -131 -14z"/>
<path d="M27890 1715 c0 -23 3 -25 50 -25 l50 0 0 -125 0 -125 25 0 25 0 0
125 0 125 50 0 c47 0 50 2 50 25 l0 25 -125 0 -125 0 0 -25z"/>
<path d="M28200 1590 l0 -150 74 0 c95 0 134 14 151 53 16 37 3 83 -26 92 -19
6 -19 7 0 23 30 25 36 64 14 91 -21 25 -78 40 -160 41 l-53 0 0 -150z m158 94
c47 -33 15 -74 -59 -74 l-49 0 0 45 0 45 43 0 c23 0 53 -7 65 -16z m24 -139
c18 -40 -12 -65 -79 -65 l-53 0 0 45 0 45 60 0 c55 0 62 -2 72 -25z"/>
<path d="M28575 1730 c-72 -29 -102 -153 -57 -236 28 -53 115 -77 172 -47 103
53 110 226 11 278 -32 16 -93 19 -126 5z m119 -55 c22 -21 26 -32 26 -84 0
-77 -28 -115 -83 -115 -70 0 -110 70 -87 153 19 71 92 95 144 46z"/>
<path d="M28850 1590 l0 -150 26 0 25 0 -3 115 c-2 63 -1 115 2 115 3 0 25
-52 49 -116 31 -82 48 -114 59 -112 8 2 33 49 57 111 23 59 45 110 48 114 4 3
7 -46 7 -110 0 -110 1 -117 20 -117 19 0 20 7 20 151 l0 150 -32 -3 c-32 -3
-34 -7 -77 -117 l-44 -114 -45 117 -45 116 -33 0 -34 0 0 -150z"/>
<path d="M7900 1470 c0 -25 4 -30 25 -30 21 0 25 5 25 30 0 25 -4 30 -25 30
-21 0 -25 -5 -25 -30z"/>
</g>
</svg>
