<?xml version="1.0" standalone="no"?>
<!DOCTYPE svg PUBLIC "-//W3C//DTD SVG 20010904//EN"
 "http://www.w3.org/TR/2001/REC-SVG-20010904/DTD/svg10.dtd">
<svg version="1.0" xmlns="http://www.w3.org/2000/svg"
 width="3607.000000pt" height="2179.000000pt" viewBox="0 0 3607.000000 2179.000000"
 preserveAspectRatio="xMidYMid meet">

<g transform="translate(0.000000,2179.000000) scale(0.100000,-0.100000)"
fill="#000000" stroke="none">
<path d="M4097 10393 c-4 -3 -7 -102 -7 -220 l0 -213 35 0 35 0 0 220 0 220
-28 0 c-16 0 -32 -3 -35 -7z"/>
<path d="M4417 10393 c-4 -3 -7 -102 -7 -220 l0 -213 35 0 35 0 0 220 0 220
-28 0 c-16 0 -32 -3 -35 -7z"/>
<path d="M4699 10385 c-59 -32 -78 -118 -39 -168 22 -27 26 -47 10 -47 -15 0
-40 -56 -40 -89 0 -44 19 -79 57 -102 61 -38 159 -21 197 33 25 35 21 111 -8
144 l-23 28 24 35 c35 51 27 104 -21 148 -30 28 -43 33 -83 33 -27 -1 -60 -7
-74 -15z m108 -53 c19 -12 31 -55 22 -80 -5 -12 -20 -27 -34 -32 -65 -25 -124
51 -78 102 16 18 68 24 90 10z m13 -202 c24 -24 26 -67 3 -92 -23 -25 -87 -24
-113 2 -43 43 -10 110 55 110 22 0 43 -8 55 -20z"/>
<path d="M5057 10393 c-4 -3 -7 -102 -7 -220 l0 -213 35 0 35 0 0 220 0 220
-28 0 c-16 0 -32 -3 -35 -7z"/>
<path d="M28633 9170 c-41 -24 -53 -48 -53 -102 0 -31 6 -51 21 -66 l20 -23
-25 -30 c-30 -35 -36 -111 -11 -143 41 -54 132 -73 195 -41 61 32 81 130 36
182 -23 27 -24 28 -6 53 40 58 33 119 -21 165 -38 32 -109 34 -156 5z m121
-56 c9 -8 16 -28 16 -44 0 -37 -24 -60 -62 -60 -59 0 -89 60 -51 102 20 22 76
24 97 2z m6 -194 c27 -27 26 -75 -2 -94 -51 -36 -128 -9 -128 45 0 40 32 69
75 69 22 0 43 -8 55 -20z"/>
<path d="M28958 9167 c-91 -74 -97 -313 -10 -390 30 -27 92 -33 131 -12 103
53 112 328 13 405 -35 28 -99 26 -134 -3z m106 -52 c25 -25 38 -93 34 -172 -4
-86 -27 -126 -76 -131 -46 -5 -65 30 -70 133 -6 119 20 185 73 185 13 0 31 -7
39 -15z"/>
<path d="M29269 9173 c-36 -22 -59 -64 -59 -108 0 -80 57 -131 137 -122 25 3
43 0 43 -6 0 -20 -42 -78 -83 -112 l-41 -35 21 -21 21 -22 35 27 c73 55 137
179 137 263 0 85 -62 153 -138 153 -26 0 -59 -8 -73 -17z m125 -65 c23 -32 21
-85 -3 -98 -52 -27 -121 3 -121 53 0 41 27 67 70 67 29 0 43 -6 54 -22z"/>
<path d="M6895 9119 c-55 -16 -95 -68 -95 -123 0 -13 11 -39 25 -59 18 -28 21
-38 11 -44 -43 -27 -57 -92 -31 -144 62 -118 264 -75 265 56 0 33 -33 95 -51
95 -6 0 1 14 15 31 55 65 21 165 -62 189 -42 11 -37 11 -77 -1z m87 -76 c10
-9 18 -29 18 -44 0 -51 -72 -78 -112 -42 -24 21 -24 78 0 92 26 16 73 13 94
-6z m3 -193 c57 -63 -31 -145 -103 -94 -27 18 -30 69 -5 96 22 25 84 24 108
-2z"/>
<path d="M7215 9119 c-55 -16 -95 -68 -95 -123 0 -13 11 -39 25 -59 18 -28 21
-38 11 -44 -43 -27 -57 -92 -31 -144 62 -118 264 -75 265 56 0 33 -33 95 -51
95 -6 0 1 14 15 31 55 65 21 165 -62 189 -42 11 -37 11 -77 -1z m87 -76 c10
-9 18 -29 18 -44 0 -51 -72 -78 -112 -42 -24 21 -24 78 0 92 26 16 73 13 94
-6z m3 -193 c57 -63 -31 -145 -103 -94 -27 18 -30 69 -5 96 22 25 84 24 108
-2z"/>
<path d="M6480 9090 l0 -29 94 -3 94 -3 -79 -175 -78 -175 26 -13 c14 -8 28
-10 32 -5 9 10 191 417 191 427 0 3 -63 6 -140 6 l-140 0 0 -30z"/>
<path d="M12300 9050 l0 -30 90 0 c50 0 90 -2 90 -5 0 -2 -34 -82 -76 -176
-42 -94 -72 -175 -67 -179 4 -5 17 -10 27 -12 17 -2 35 31 117 215 l97 217
-139 0 -139 0 0 -30z"/>
<path d="M12620 9050 l0 -30 90 0 c50 0 90 -2 90 -5 0 -2 -34 -82 -76 -176
-42 -94 -72 -175 -67 -179 4 -5 17 -10 27 -12 17 -2 35 31 117 215 l97 217
-139 0 -139 0 0 -30z"/>
<path d="M13042 9029 c-125 -125 -144 -305 -39 -369 88 -54 197 8 197 111 0
83 -73 141 -150 119 -19 -6 -36 -10 -38 -10 -13 0 51 90 86 121 38 33 42 40
32 58 -16 31 -32 26 -88 -30z m72 -210 c50 -39 22 -119 -42 -119 -42 0 -72 33
-72 80 0 33 4 40 28 48 41 16 57 14 86 -9z"/>
<path d="M20440 8935 l0 -35 90 0 c50 0 90 -1 90 -3 0 -2 -34 -79 -75 -171
-41 -92 -75 -171 -75 -175 0 -4 11 -13 26 -19 23 -11 26 -10 39 20 7 18 50
114 94 212 45 99 81 185 81 193 0 10 -29 13 -135 13 l-135 0 0 -35z"/>
<path d="M20841 8833 c-61 -76 -111 -143 -111 -150 0 -10 25 -13 95 -13 l95 0
0 -70 0 -70 30 0 30 0 0 69 c0 65 2 70 23 73 16 2 22 10 22 28 0 18 -6 26 -22
28 -22 3 -23 7 -23 123 0 95 -3 119 -14 119 -8 0 -64 -62 -125 -137z m79 -48
l0 -55 -50 0 -51 0 43 54 c24 30 46 55 51 55 4 1 7 -24 7 -54z"/>
<path d="M21165 8960 c-62 -25 -98 -105 -97 -218 0 -66 5 -91 23 -130 25 -50
77 -92 114 -92 37 0 89 42 114 92 31 65 34 192 4 259 -35 79 -98 114 -158 89z
m88 -82 c15 -20 21 -48 25 -105 5 -94 -10 -157 -43 -179 -56 -36 -96 10 -103
120 -6 91 2 136 29 171 27 33 64 30 92 -7z"/>
<path d="M31302 8192 c-62 -77 -112 -144 -112 -151 0 -7 29 -11 90 -11 l89 0
3 -72 3 -73 30 0 30 0 3 73 c3 69 4 72 27 72 20 0 25 5 25 25 0 20 -5 25 -25
25 l-24 0 -3 122 c-2 76 -7 123 -14 125 -6 2 -61 -59 -122 -135z m65 -109 c-3
-2 -24 -3 -47 -1 l-42 3 43 55 44 54 3 -53 c2 -29 1 -55 -1 -58z"/>
<path d="M31595 8318 c-47 -17 -65 -38 -65 -74 l0 -33 36 24 c66 45 126 27
140 -42 8 -40 -26 -107 -111 -218 -36 -47 -65 -87 -65 -90 0 -3 61 -5 135 -5
l135 0 0 35 0 35 -75 0 c-41 0 -75 3 -75 6 0 3 15 24 34 47 77 94 102 184 71
250 -28 60 -97 88 -160 65z"/>
<path d="M30930 8207 l0 -114 28 5 c40 5 100 -22 113 -52 9 -19 9 -32 0 -55
-21 -49 -72 -60 -158 -35 -20 5 -23 3 -23 -20 0 -48 101 -73 174 -42 53 22 76
60 76 124 0 50 -3 58 -39 93 -21 22 -48 39 -59 39 -43 0 -52 10 -52 61 l0 49
65 0 65 0 0 30 0 30 -95 0 -95 0 0 -113z"/>
<path d="M14703 8020 c-62 -76 -113 -146 -113 -154 0 -13 16 -16 95 -16 l95 0
0 -70 0 -70 30 0 30 0 0 69 c0 65 2 70 23 73 16 2 23 11 25 31 3 23 0 27 -22
27 l-25 0 -3 122 c-2 69 -7 123 -13 125 -5 1 -61 -60 -122 -137z m77 -50 l0
-60 -51 0 -50 0 47 60 c26 33 49 60 50 60 2 0 4 -27 4 -60z"/>
<path d="M15001 8137 c-63 -32 -83 -117 -43 -175 21 -29 21 -29 2 -47 -39 -36
-45 -102 -12 -153 45 -70 187 -70 236 0 25 35 21 111 -8 144 l-23 28 24 35
c35 51 27 104 -21 148 -30 28 -43 33 -83 33 -27 0 -59 -6 -72 -13z m111 -64
c22 -20 24 -66 2 -87 -20 -21 -73 -20 -96 1 -22 20 -23 61 -1 85 20 22 70 23
95 1z m8 -195 c42 -45 11 -108 -55 -108 -42 0 -75 29 -75 65 0 59 87 88 130
43z"/>
<path d="M15309 8133 c-77 -47 -79 -168 -3 -217 18 -13 41 -17 75 -14 27 1 49
-1 49 -6 0 -19 -44 -77 -83 -111 l-41 -35 21 -22 22 -21 43 35 c84 69 140 203
124 293 -5 26 -21 52 -46 77 -33 34 -43 38 -86 38 -27 0 -61 -8 -75 -17z m125
-65 c19 -27 21 -79 4 -96 -7 -7 -29 -12 -50 -12 -66 0 -99 56 -62 108 11 16
25 22 54 22 29 0 43 -6 54 -22z"/>
<path d="M22841 7900 c-62 -77 -110 -144 -106 -150 3 -6 45 -10 96 -10 l89 0
0 -70 0 -70 30 0 30 0 0 70 c0 68 1 70 25 70 21 0 25 5 25 30 0 25 -4 30 -25
30 l-25 0 0 120 c0 91 -3 120 -13 120 -7 0 -64 -63 -126 -140z m76 -97 c-3 -2
-24 -3 -47 -1 l-42 3 43 55 44 54 3 -53 c2 -29 1 -55 -1 -58z"/>
<path d="M23117 8034 c-4 -4 -7 -56 -7 -116 l0 -108 49 0 c61 0 101 -28 101
-71 0 -78 -65 -103 -162 -64 -15 6 -18 2 -18 -24 0 -34 14 -45 72 -55 107 -19
199 71 174 171 -11 42 -67 91 -115 99 l-41 7 0 53 0 54 71 0 70 0 -3 28 c-3
27 -3 27 -93 30 -50 1 -94 0 -98 -4z"/>
<path d="M23481 7900 c-62 -77 -110 -144 -106 -150 3 -6 45 -10 96 -10 l89 0
0 -70 0 -70 30 0 30 0 0 70 c0 68 1 70 25 70 21 0 25 5 25 30 0 25 -4 30 -25
30 l-25 0 0 120 c0 91 -3 120 -13 120 -7 0 -64 -63 -126 -140z m76 -97 c-3 -2
-24 -3 -47 -1 l-42 3 43 55 44 54 3 -53 c2 -29 1 -55 -1 -58z"/>
</g>
</svg>
