<?xml version="1.0" standalone="no"?>
<!DOCTYPE svg PUBLIC "-//W3C//DTD SVG 20010904//EN"
 "http://www.w3.org/TR/2001/REC-SVG-20010904/DTD/svg10.dtd">
<svg version="1.0" xmlns="http://www.w3.org/2000/svg"
 width="3610.000000pt" height="1883.000000pt" viewBox="0 0 3610.000000 1883.000000"
 preserveAspectRatio="xMidYMid meet">

<g transform="translate(0.000000,1883.000000) scale(0.100000,-0.100000)"
fill="#000000" stroke="none">
<path d="M12971 9073 c-72 -38 -95 -116 -51 -175 l22 -30 -21 -22 c-77 -82
-11 -206 109 -206 106 0 169 122 104 200 l-27 31 22 22 c30 33 36 78 16 120
-31 66 -111 93 -174 60z m106 -65 c18 -15 16 -68 -4 -90 -20 -22 -61 -23 -91
-2 -36 25 -25 91 18 107 19 7 61 -1 77 -15z m7 -200 c51 -72 -37 -143 -108
-87 -30 24 -34 63 -9 91 24 27 97 25 117 -4z"/>
<path d="M13291 9073 c-72 -38 -95 -116 -51 -175 l22 -30 -21 -22 c-77 -82
-11 -206 109 -206 106 0 169 122 104 200 l-27 31 22 22 c30 33 36 78 16 120
-31 66 -111 93 -174 60z m106 -65 c18 -15 16 -68 -4 -90 -20 -22 -61 -23 -91
-2 -36 25 -25 91 18 107 19 7 61 -1 77 -15z m7 -200 c51 -72 -37 -143 -108
-87 -30 24 -34 63 -9 91 24 27 97 25 117 -4z"/>
<path d="M12352 8863 l3 -218 30 0 30 0 3 218 2 217 -35 0 -35 0 2 -217z"/>
<path d="M12572 9053 l3 -28 93 -3 c69 -2 93 -6 89 -15 -2 -7 -37 -85 -77
-175 -43 -95 -69 -167 -64 -172 5 -4 17 -10 28 -12 15 -2 35 33 116 215 l98
217 -145 0 -144 0 3 -27z"/>
<path d="M28477 8984 c-4 -4 -7 -103 -7 -221 l0 -213 35 0 35 0 -2 218 -3 217
-25 3 c-14 2 -29 0 -33 -4z"/>
<path d="M28765 8974 c-46 -23 -65 -53 -65 -105 0 -32 6 -54 21 -73 l21 -26
-26 -31 c-39 -46 -37 -110 7 -153 83 -84 237 -35 237 75 0 43 -14 77 -38 95
-12 9 -10 16 13 50 20 30 25 47 21 73 -14 90 -109 137 -191 95z m103 -60 c15
-10 22 -25 22 -49 0 -58 -69 -86 -110 -45 -41 41 -13 110 45 110 11 0 31 -7
43 -16z m14 -201 c43 -39 7 -107 -57 -107 -71 0 -101 72 -48 114 31 24 74 22
105 -7z"/>
<path d="M29085 8974 c-46 -23 -65 -53 -65 -105 0 -32 6 -54 21 -73 l21 -26
-26 -31 c-39 -46 -37 -110 7 -153 83 -84 237 -35 237 75 0 43 -14 77 -38 95
-12 9 -10 16 13 50 20 30 25 47 21 73 -14 90 -109 137 -191 95z m103 -60 c15
-10 22 -25 22 -49 0 -58 -69 -86 -110 -45 -41 41 -13 110 45 110 11 0 31 -7
43 -16z m14 -201 c43 -39 7 -107 -57 -107 -71 0 -101 72 -48 114 31 24 74 22
105 -7z"/>
<path d="M29396 8960 c-48 -43 -71 -108 -70 -201 1 -210 168 -294 252 -127 31
61 33 196 4 261 -42 95 -121 123 -186 67z m117 -62 c31 -42 36 -179 9 -241
-33 -75 -87 -75 -119 0 -16 39 -17 170 -2 210 25 68 75 81 112 31z"/>
<path d="M4270 8760 l0 -220 30 0 30 0 0 220 0 220 -30 0 -30 0 0 -220z"/>
<path d="M4494 8966 c-3 -8 -4 -23 -2 -33 3 -15 17 -19 94 -23 l91 -5 -74
-164 c-40 -91 -73 -170 -73 -176 0 -7 11 -17 24 -23 23 -10 25 -6 120 206 53
119 96 220 96 225 0 4 -61 7 -135 7 -109 0 -137 -3 -141 -14z"/>
<path d="M4880 8962 c-68 -34 -88 -126 -38 -179 l22 -23 -21 -15 c-29 -20 -46
-69 -39 -109 8 -43 62 -93 111 -102 51 -9 121 20 146 60 26 40 21 107 -11 141
l-22 24 21 29 c41 59 20 146 -43 176 -44 21 -82 20 -126 -2z m110 -62 c59 -59
-25 -145 -90 -92 -45 36 -17 112 42 112 15 0 37 -9 48 -20z m-15 -180 c54 -21
54 -100 -1 -121 -39 -14 -92 5 -100 37 -17 68 33 110 101 84z"/>
<path d="M5218 8845 c-60 -73 -108 -141 -108 -149 0 -13 15 -16 90 -16 l90 0
0 -70 0 -70 30 0 30 0 0 70 c0 68 1 70 25 70 21 0 25 5 25 30 0 25 -4 30 -25
30 l-25 0 0 120 c0 90 -3 120 -12 119 -7 0 -61 -60 -120 -134z m69 -102 c-3
-2 -23 -3 -46 -1 l-40 3 42 54 42 54 3 -53 c2 -29 1 -54 -1 -57z"/>
<path d="M20644 8936 c-71 -31 -98 -123 -53 -180 l21 -26 -26 -31 c-55 -65
-22 -165 64 -190 133 -40 239 101 148 198 l-21 23 22 24 c52 55 28 151 -44
182 -42 17 -71 17 -111 0z m96 -64 c45 -36 17 -112 -42 -112 -15 0 -37 9 -48
20 -59 59 25 145 90 92z m13 -199 c17 -16 23 -59 9 -79 -10 -16 -48 -34 -70
-34 -32 0 -72 38 -72 69 0 62 83 89 133 44z"/>
<path d="M20971 8811 c-61 -76 -111 -143 -111 -150 0 -7 31 -11 95 -11 l95 0
0 -70 0 -70 30 0 30 0 0 70 c0 68 1 70 25 70 20 0 25 5 25 25 0 20 -5 25 -25
25 l-25 0 0 125 c0 98 -3 125 -14 125 -7 0 -63 -62 -125 -139z m76 -108 c-3
-2 -26 -3 -52 -1 l-48 3 49 60 49 60 3 -59 c2 -32 1 -60 -1 -63z"/>
<path d="M21319 8898 c-139 -134 -153 -338 -26 -387 52 -20 104 -7 144 36 28
29 33 42 33 84 0 42 -5 55 -34 87 -32 34 -38 37 -90 36 -31 0 -56 3 -56 6 0
15 61 90 90 111 35 27 36 30 12 59 l-18 22 -55 -54z m69 -218 c44 -42 15 -120
-45 -120 -41 0 -73 36 -73 82 0 31 5 41 23 48 37 15 72 11 95 -10z"/>
<path d="M20340 8725 l0 -215 35 0 35 0 0 215 0 215 -35 0 -35 0 0 -215z"/>
<path d="M22774 6610 c-11 -4 -33 -22 -47 -40 -76 -89 11 -232 121 -201 22 7
32 6 32 -1 0 -21 -42 -78 -82 -112 -35 -30 -38 -37 -28 -55 16 -30 31 -26 83
20 68 59 112 154 112 239 0 75 -17 109 -68 140 -33 21 -87 25 -123 10z m103
-72 c16 -15 23 -33 23 -59 0 -34 -3 -39 -34 -49 -78 -25 -141 55 -86 110 26
26 68 25 97 -2z"/>
<path d="M23024 6606 c-3 -8 -4 -23 -2 -33 3 -15 17 -19 95 -23 l91 -5 -74
-164 c-41 -91 -74 -170 -74 -178 0 -11 47 -31 54 -22 10 14 186 418 186 427 0
19 -269 17 -276 -2z"/>
<path d="M23380 6601 c-31 -16 -35 -24 -38 -62 l-3 -44 28 26 c58 55 124 45
144 -21 10 -31 8 -44 -8 -81 -20 -44 -131 -201 -152 -213 -31 -20 0 -26 124
-26 l135 0 0 30 0 30 -81 0 -80 0 46 60 c57 75 85 134 85 185 0 105 -106 167
-200 116z"/>
<path d="M14724 6424 c-62 -30 -87 -127 -47 -182 31 -43 85 -65 128 -53 34 9
36 9 29 -12 -10 -33 -41 -73 -82 -107 -30 -25 -35 -33 -26 -48 20 -31 43 -24
92 25 57 57 99 138 108 209 16 129 -94 222 -202 168z m115 -70 c12 -15 21 -41
21 -60 0 -29 -4 -34 -36 -43 -57 -16 -104 12 -104 61 0 64 80 92 119 42z"/>
<path d="M15020 6422 c-31 -15 -35 -22 -38 -62 l-3 -45 28 26 c37 35 68 44
104 29 34 -14 50 -59 38 -104 -12 -42 -66 -128 -127 -202 l-52 -64 140 0 140
0 0 30 0 30 -81 0 -81 0 22 28 c97 125 123 196 100 264 -27 78 -112 109 -190
70z"/>
<path d="M15425 6399 c-126 -115 -162 -277 -82 -363 44 -47 92 -55 151 -27 86
42 101 145 30 210 -33 30 -40 33 -85 29 -33 -4 -49 -1 -49 7 0 17 46 76 86
110 l36 30 -19 24 -20 24 -48 -44z m65 -236 c51 -65 -32 -147 -93 -91 -14 13
-28 35 -31 50 -14 63 82 95 124 41z"/>
<path d="M6722 6349 c-103 -22 -132 -155 -49 -225 27 -23 38 -26 84 -22 29 3
53 2 53 -2 0 -14 -57 -85 -92 -116 -34 -30 -35 -32 -18 -54 21 -28 39 -20 99
45 156 169 105 413 -77 374z m97 -95 c26 -59 5 -94 -56 -94 -84 0 -102 107
-23 132 25 8 67 -12 79 -38z"/>
<path d="M7056 6349 c-70 -19 -116 -106 -116 -219 0 -129 58 -220 140 -220 30
0 48 8 75 31 86 76 88 295 3 375 -38 36 -62 44 -102 33z m78 -99 c16 -27 20
-52 20 -120 0 -106 -21 -153 -72 -158 -26 -3 -35 2 -51 29 -11 17 -23 54 -26
80 -9 65 2 139 26 178 16 27 25 32 51 29 24 -2 37 -11 52 -38z"/>
<path d="M7361 6224 c-61 -75 -111 -142 -111 -150 0 -11 20 -14 90 -14 l90 0
0 -75 0 -75 30 0 29 0 3 73 c3 66 5 72 26 75 34 5 31 52 -3 52 l-25 0 0 125
c0 72 -4 125 -9 125 -6 0 -60 -61 -120 -136z m69 -54 l0 -60 -45 0 c-25 0 -45
3 -45 6 0 5 82 112 88 113 1 1 2 -26 2 -59z"/>
<path d="M30814 6276 c-71 -31 -98 -123 -53 -180 l21 -26 -26 -31 c-40 -47
-37 -110 7 -154 57 -57 151 -59 205 -5 49 49 51 119 4 165 -16 16 -22 29 -16
33 45 30 55 98 24 150 -34 55 -104 75 -166 48z m105 -71 c35 -34 1 -105 -51
-105 -63 0 -90 71 -41 110 29 23 66 21 92 -5z m4 -193 c9 -8 17 -28 17 -44 0
-63 -78 -91 -125 -43 -39 38 -31 79 18 100 33 14 63 10 90 -13z"/>
<path d="M31134 6276 c-71 -31 -98 -123 -53 -180 l21 -26 -26 -31 c-40 -47
-37 -110 7 -154 57 -57 151 -59 205 -5 49 49 51 119 4 165 -16 16 -22 29 -16
33 45 30 55 98 24 150 -34 55 -104 75 -166 48z m105 -71 c35 -34 1 -105 -51
-105 -63 0 -90 71 -41 110 29 23 66 21 92 -5z m4 -193 c9 -8 17 -28 17 -44 0
-63 -78 -91 -125 -43 -39 38 -31 79 18 100 33 14 63 10 90 -13z"/>
<path d="M31380 6250 l0 -30 90 0 c50 0 90 -2 90 -5 0 -2 -34 -82 -76 -176
-42 -94 -74 -172 -72 -173 1 -2 13 -8 25 -15 20 -10 24 -8 37 17 14 27 130
283 167 370 l18 42 -139 0 -140 0 0 -30z"/>
</g>
</svg>
