<?xml version="1.0" standalone="no"?>
<!DOCTYPE svg PUBLIC "-//W3C//DTD SVG 20010904//EN"
 "http://www.w3.org/TR/2001/REC-SVG-20010904/DTD/svg10.dtd">
<svg version="1.0" xmlns="http://www.w3.org/2000/svg"
 width="3848.000000pt" height="1552.000000pt" viewBox="0 0 3848.000000 1552.000000"
 preserveAspectRatio="xMidYMid meet">

<g transform="translate(0.000000,1552.000000) scale(0.100000,-0.100000)"
fill="#000000" stroke="none">
<path d="M21330 7500 l0 -220 30 0 30 0 0 220 0 220 -30 0 -30 0 0 -220z"/>
<path d="M21590 7605 l0 -115 48 0 c77 0 117 -51 87 -109 -22 -43 -73 -51
-152 -26 -20 7 -23 4 -23 -23 0 -25 6 -32 31 -41 50 -17 120 -13 156 9 114 69
62 250 -72 250 -24 0 -25 3 -25 55 l0 55 70 0 70 0 0 30 0 30 -95 0 -95 0 0
-115z"/>
<path d="M21940 7707 c-33 -16 -70 -73 -70 -107 0 -15 11 -43 24 -62 l23 -34
-23 -28 c-101 -117 63 -261 198 -172 55 36 65 116 19 168 l-29 33 24 28 c28
33 33 100 8 135 -33 48 -119 67 -174 39z m112 -64 c50 -45 -15 -133 -75 -101
-28 14 -37 27 -37 57 0 54 71 82 112 44z m4 -199 c46 -45 14 -104 -55 -104
-45 0 -71 24 -71 66 0 62 79 86 126 38z"/>
<path d="M22250 7704 c-34 -23 -49 -43 -59 -81 -25 -89 57 -176 143 -152 16 5
32 7 34 4 9 -9 -49 -95 -84 -123 -31 -26 -34 -32 -25 -51 17 -31 32 -26 86 27
124 122 146 309 42 372 -39 24 -104 26 -137 4z m119 -70 c24 -31 27 -76 6 -94
-23 -19 -81 -16 -105 5 -24 22 -26 71 -3 97 25 28 77 24 102 -8z"/>
<path d="M29787 7014 c-4 -4 -7 -103 -7 -221 l0 -213 35 0 35 0 -2 218 -3 217
-25 3 c-14 2 -29 0 -33 -4z"/>
<path d="M30053 7010 c-17 -7 -23 -18 -23 -40 0 -27 2 -30 19 -20 29 15 87 12
105 -5 40 -40 22 -97 -33 -108 -26 -6 -31 -11 -31 -37 0 -25 4 -30 25 -30 55
0 87 -77 47 -113 -21 -19 -77 -22 -116 -7 -25 9 -26 8 -26 -24 0 -32 2 -35 50
-46 81 -19 145 13 170 87 14 40 -2 107 -32 127 l-21 15 22 18 c30 25 39 89 16
132 -26 51 -110 76 -172 51z"/>
<path d="M30437 6968 c-63 -62 -91 -113 -105 -186 -17 -94 10 -166 73 -196 41
-20 66 -20 110 -2 66 28 96 123 58 187 -24 40 -76 63 -124 55 -22 -3 -39 -4
-39 -1 0 19 35 67 74 103 25 23 46 46 46 51 0 4 -9 16 -19 25 -18 16 -21 15
-74 -36z m73 -218 c26 -26 25 -68 -2 -97 -28 -30 -63 -29 -93 2 -30 30 -34 89
-7 104 29 17 80 13 102 -9z"/>
<path d="M30690 7002 c-30 -14 -35 -23 -38 -55 l-3 -39 31 23 c41 31 96 31
121 0 40 -50 19 -110 -92 -258 l-69 -93 135 0 135 0 0 30 0 30 -80 0 -80 0 41
53 c85 106 109 199 69 264 -36 60 -104 78 -170 45z"/>
<path d="M4427 6714 c-4 -4 -7 -103 -7 -221 l0 -213 35 0 35 0 -2 218 -3 217
-25 3 c-14 2 -29 0 -33 -4z"/>
<path d="M4678 6700 c-33 -18 -38 -25 -38 -55 0 -34 12 -46 26 -24 3 6 22 18
42 26 50 21 88 3 103 -48 11 -34 9 -44 -14 -91 -15 -29 -51 -84 -81 -123 -91
-115 -97 -105 59 -105 l135 0 0 30 0 30 -81 0 -80 0 44 58 c81 105 102 176 74
244 -29 70 -118 97 -189 58z"/>
<path d="M5083 6676 c-61 -55 -109 -144 -118 -220 -16 -128 86 -220 189 -171
82 39 101 145 37 209 -28 27 -38 31 -86 31 -30 0 -55 2 -55 5 0 16 47 80 82
110 40 36 40 36 21 59 l-19 23 -51 -46z m64 -228 c13 -12 23 -32 23 -45 0 -29
-42 -73 -69 -73 -27 0 -68 39 -75 72 -13 59 72 92 121 46z"/>
<path d="M5320 6605 l0 -115 46 0 c37 0 51 -5 75 -29 32 -33 36 -56 14 -88
-29 -41 -84 -48 -157 -18 -15 6 -18 2 -18 -24 0 -35 13 -43 88 -56 33 -5 52
-2 85 14 51 25 77 65 77 121 0 76 -41 124 -119 136 l-41 7 0 53 0 54 70 0 70
0 0 30 0 30 -95 0 -95 0 0 -115z"/>
<path d="M12880 6320 l0 -220 30 0 30 0 0 220 0 220 -30 0 -30 0 0 -220z"/>
<path d="M13133 6524 c-29 -15 -33 -21 -33 -56 l0 -40 31 26 c39 33 87 35 117
3 46 -49 21 -121 -91 -267 l-66 -85 127 -3 c69 -1 132 0 139 2 7 3 13 17 13
31 0 25 -1 25 -80 25 -44 0 -80 2 -80 5 0 3 17 29 39 58 80 107 101 190 66
257 -29 57 -115 77 -182 44z"/>
<path d="M13476 6510 c-50 -44 -70 -111 -64 -214 7 -131 54 -196 142 -196 78
0 131 89 131 220 0 134 -53 220 -135 220 -29 0 -48 -8 -74 -30z m126 -70 c13
-25 18 -59 18 -120 0 -111 -19 -155 -69 -155 -47 0 -71 35 -78 112 -12 128 20
207 81 201 24 -2 35 -11 48 -38z"/>
<path d="M13796 6521 c-61 -40 -75 -117 -31 -170 20 -23 23 -31 12 -38 -26
-16 -47 -58 -47 -96 0 -32 7 -46 39 -78 35 -36 43 -39 92 -39 68 0 114 27 136
77 18 44 6 98 -27 128 l-20 18 21 23 c47 50 31 141 -31 178 -38 22 -108 20
-144 -3z m117 -53 c9 -7 19 -25 22 -39 15 -61 -76 -100 -117 -50 -22 28 -23
50 -2 79 17 25 69 30 97 10z m5 -194 c27 -18 30 -69 5 -96 -23 -25 -87 -24
-113 2 -26 26 -25 51 1 84 24 30 72 35 107 10z"/>
<path d="M24100 6502 c-30 -14 -35 -23 -38 -56 l-3 -38 28 20 c46 32 92 33
123 0 42 -45 16 -117 -95 -263 l-65 -85 135 0 135 0 0 30 0 30 -75 0 c-41 0
-75 2 -75 5 0 3 19 29 41 58 55 68 79 122 79 177 0 57 -16 88 -59 117 -41 27
-84 29 -131 5z"/>
<path d="M24464 6510 c-31 -12 -72 -65 -84 -108 -5 -20 -10 -73 -10 -117 1
-125 46 -201 127 -212 82 -11 148 89 148 222 0 153 -85 254 -181 215z m90 -83
c18 -25 21 -42 21 -132 0 -90 -3 -107 -21 -132 -28 -37 -69 -38 -97 -1 -29 39
-36 171 -12 233 27 71 70 84 109 32z"/>
<path d="M24784 6510 c-31 -12 -72 -65 -84 -108 -5 -20 -10 -73 -10 -117 1
-125 46 -201 127 -212 82 -11 148 89 148 222 0 153 -85 254 -181 215z m90 -83
c18 -25 21 -42 21 -132 0 -90 -3 -107 -21 -132 -28 -37 -69 -38 -97 -1 -29 39
-36 171 -12 233 27 71 70 84 109 32z"/>
<path d="M23650 6295 l0 -215 35 0 35 0 0 215 0 215 -35 0 -35 0 0 -215z"/>
<path d="M33233 6270 c-62 -76 -113 -144 -113 -149 0 -7 35 -11 95 -11 l95 0
0 -75 0 -75 30 0 30 0 0 75 c0 73 1 75 25 75 20 0 25 5 25 25 0 20 -5 25 -25
25 l-25 0 0 125 c0 93 -3 125 -12 125 -7 0 -64 -63 -125 -140z m77 -50 l0 -60
-51 0 -50 0 47 60 c26 33 49 60 50 60 2 0 4 -27 4 -60z"/>
<path d="M32110 6180 l0 -220 30 0 30 0 0 220 0 220 -30 0 -30 0 0 -220z"/>
<path d="M32610 6180 l0 -220 30 0 30 0 0 220 0 220 -30 0 -30 0 0 -220z"/>
<path d="M32933 6347 c-68 -72 -95 -127 -101 -208 -8 -117 45 -184 141 -176
54 5 91 32 114 85 39 92 -58 198 -150 163 -15 -6 -27 -7 -27 -3 0 20 60 100
94 126 36 27 37 29 20 47 -9 10 -22 19 -29 19 -7 0 -35 -24 -62 -53z m60 -198
c29 -16 37 -28 37 -61 0 -36 -32 -68 -69 -68 -38 0 -71 40 -71 86 0 26 5 34
28 42 37 14 50 14 75 1z"/>
<path d="M6965 5651 c-44 -27 -65 -54 -71 -93 -16 -93 89 -179 167 -138 10 6
19 7 19 2 0 -18 -59 -100 -93 -128 l-35 -29 19 -24 19 -23 36 27 c48 37 100
110 120 168 24 71 16 168 -16 203 -52 55 -112 68 -165 35z m83 -47 c26 -7 52
-51 52 -87 0 -26 -33 -47 -75 -47 -34 0 -65 34 -65 70 0 31 30 70 53 70 6 0
22 -3 35 -6z"/>
<path d="M7263 5650 c-41 -18 -43 -21 -43 -60 l0 -42 31 26 c38 32 90 35 119
6 46 -46 13 -134 -107 -285 -29 -36 -53 -68 -53 -71 0 -2 62 -3 138 -2 l137 3
0 30 0 30 -77 5 -78 5 39 49 c107 136 114 248 18 306 -40 25 -70 25 -124 0z"/>
<path d="M7570 5550 l0 -110 43 0 c24 0 56 -8 75 -20 28 -17 32 -25 32 -60 0
-35 -4 -43 -32 -60 -39 -24 -67 -25 -113 -6 l-35 15 0 -30 c0 -25 6 -33 35
-45 43 -18 86 -18 128 0 130 55 106 240 -35 262 l-38 7 0 53 0 54 70 0 c68 0
70 1 70 25 l0 25 -100 0 -100 0 0 -110z"/>
<path d="M15357 5193 c-4 -3 -7 -17 -7 -30 0 -22 2 -23 95 -23 52 0 95 -2 95
-4 0 -2 -34 -80 -75 -172 -41 -92 -75 -173 -75 -180 0 -14 41 -27 52 -16 11
11 188 409 188 422 0 11 -262 14 -273 3z"/>
<path d="M15677 5193 c-4 -3 -7 -17 -7 -30 0 -22 2 -23 95 -23 52 0 95 -2 95
-4 0 -2 -34 -80 -75 -172 -41 -92 -75 -173 -75 -180 0 -14 41 -27 52 -16 11
11 188 409 188 422 0 11 -262 14 -273 3z"/>
<path d="M16030 5084 l0 -116 23 6 c34 8 94 -11 112 -37 22 -32 18 -64 -10
-93 -22 -22 -33 -25 -73 -21 -26 2 -57 8 -70 12 -21 7 -23 5 -20 -21 4 -40 39
-56 117 -51 59 3 66 6 97 40 30 32 34 43 34 91 0 39 -6 60 -21 80 -25 32 -69
56 -104 56 -24 0 -25 3 -25 55 l0 55 65 0 65 0 0 30 0 30 -95 0 -95 0 0 -116z"/>
</g>
</svg>
