<?xml version="1.0" standalone="no"?>
<!DOCTYPE svg PUBLIC "-//W3C//DTD SVG 20010904//EN"
 "http://www.w3.org/TR/2001/REC-SVG-20010904/DTD/svg10.dtd">
<svg version="1.0" xmlns="http://www.w3.org/2000/svg"
 width="3825.000000pt" height="1817.000000pt" viewBox="0 0 3825.000000 1817.000000"
 preserveAspectRatio="xMidYMid meet">

<g transform="translate(0.000000,1817.000000) scale(0.100000,-0.100000)"
fill="#000000" stroke="none">
<path d="M30390 9800 l0 -29 94 -3 94 -3 -78 -175 c-70 -157 -77 -176 -62
-187 9 -7 21 -13 28 -13 8 0 161 323 200 424 5 14 -8 16 -135 16 l-141 0 0
-30z"/>
<path d="M30776 9809 c-53 -42 -71 -94 -71 -204 0 -88 3 -105 24 -143 30 -52
62 -74 108 -74 105 0 172 166 128 317 -32 111 -119 159 -189 104z m118 -83
c14 -28 19 -61 19 -120 0 -92 -18 -140 -59 -158 -22 -10 -28 -8 -50 14 -55 54
-59 208 -9 285 13 19 23 23 48 21 26 -2 36 -10 51 -42z"/>
<path d="M31060 9715 l0 -115 49 0 c63 0 101 -28 101 -74 0 -51 -36 -79 -97
-74 -26 3 -56 8 -65 12 -15 7 -18 3 -18 -22 0 -36 34 -54 103 -54 84 0 136 45
144 125 7 71 -60 147 -129 147 -27 0 -28 2 -28 55 l0 55 71 0 70 0 -3 28 -3
27 -97 3 -98 3 0 -116z"/>
<path d="M32913 7800 c-15 -6 -23 -18 -23 -35 0 -24 1 -25 58 -19 49 5 60 3
75 -14 12 -13 17 -32 15 -54 -3 -28 -8 -35 -38 -44 -29 -10 -36 -17 -38 -43
-3 -27 0 -31 21 -31 28 0 67 -38 67 -66 0 -11 -7 -30 -16 -43 -15 -21 -23 -23
-68 -18 -28 2 -59 8 -68 12 -15 6 -18 2 -18 -24 0 -34 14 -45 73 -55 50 -9
100 8 132 45 36 43 36 124 0 163 l-25 27 20 22 c29 30 35 62 21 108 -15 51
-59 79 -121 78 -25 0 -55 -4 -67 -9z"/>
<path d="M33263 7795 c-37 -16 -62 -50 -69 -96 -4 -26 1 -43 21 -73 26 -38 26
-39 6 -52 -11 -8 -25 -30 -31 -50 -41 -123 125 -213 230 -125 27 22 33 36 37
77 5 43 2 54 -21 82 l-27 31 22 30 c24 33 29 94 10 130 -29 53 -112 75 -178
46z m105 -61 c41 -28 16 -114 -34 -114 -19 0 -56 19 -66 34 -26 38 8 96 57 96
11 0 31 -7 43 -16z m15 -205 c22 -27 22 -51 -1 -79 -23 -28 -83 -31 -112 -5
-20 18 -26 60 -12 81 26 38 94 40 125 3z"/>
<path d="M33514 7796 c-3 -8 -4 -23 -2 -33 3 -15 17 -19 94 -23 l91 -5 -74
-164 c-40 -91 -73 -170 -73 -176 0 -7 11 -17 25 -23 23 -11 26 -9 39 21 7 17
50 114 95 215 44 100 81 187 81 192 0 6 -54 10 -135 10 -109 0 -137 -3 -141
-14z"/>
<path d="M21738 7573 c-12 -3 -18 -14 -18 -34 0 -28 1 -29 40 -23 54 9 84 -1
98 -31 17 -37 0 -72 -40 -83 -28 -7 -34 -13 -36 -40 -3 -28 0 -32 22 -32 55 0
83 -61 50 -109 -14 -20 -23 -22 -63 -18 -25 2 -56 8 -69 12 -22 7 -23 5 -20
-26 3 -32 6 -35 53 -46 60 -15 111 -4 144 31 44 47 44 143 0 179 -14 11 -19
21 -13 25 63 43 53 151 -16 187 -27 14 -94 18 -132 8z"/>
<path d="M22050 7465 l0 -115 50 0 c41 0 56 -5 75 -25 51 -50 13 -125 -64
-125 -22 0 -51 4 -65 10 -24 9 -26 8 -26 -20 0 -37 30 -52 102 -52 95 -1 143
56 139 166 -2 41 -58 94 -110 102 l-41 7 0 53 0 54 65 0 65 0 0 30 0 30 -95 0
-95 0 0 -115z"/>
<path d="M22437 7574 c-4 -4 -7 -103 -7 -221 l0 -213 35 0 35 0 -2 218 -3 217
-25 3 c-14 2 -29 0 -33 -4z"/>
<path d="M4348 7533 c-12 -3 -18 -14 -18 -32 0 -27 0 -27 59 -23 55 4 60 3 77
-23 25 -38 10 -76 -36 -91 -26 -9 -36 -18 -38 -37 -3 -22 2 -27 25 -33 42 -10
63 -33 63 -69 0 -47 -29 -69 -82 -62 -24 2 -51 8 -60 12 -15 6 -18 2 -18 -24
0 -37 26 -51 93 -51 114 0 174 124 102 208 l-23 27 24 28 c37 44 33 100 -10
143 -31 31 -39 34 -87 33 -30 -1 -62 -3 -71 -6z"/>
<path d="M4710 7404 c-61 -75 -109 -142 -107 -148 2 -7 39 -12 95 -14 l92 -3
0 -69 0 -70 30 0 30 0 0 69 c0 65 2 70 23 73 16 2 23 11 25 31 3 23 0 27 -22
27 l-26 0 0 120 c0 98 -3 120 -15 120 -8 0 -64 -61 -125 -136z m80 -44 l0 -60
-51 0 -50 0 47 60 c26 33 49 60 50 60 2 0 4 -27 4 -60z"/>
<path d="M4980 7427 l0 -114 45 0 c61 0 99 -28 103 -75 4 -51 -35 -81 -98 -76
-25 3 -53 8 -62 12 -15 7 -18 3 -18 -22 0 -39 39 -56 115 -50 44 4 62 11 85
33 83 79 41 217 -69 232 l-41 6 0 53 0 54 65 0 65 0 0 30 0 30 -95 0 -95 0 0
-113z"/>
<path d="M24213 7213 c-29 -14 -33 -22 -33 -55 l0 -37 36 24 c46 32 78 32 109
0 50 -49 29 -113 -85 -262 l-70 -93 140 0 140 0 0 30 0 30 -80 0 c-44 0 -80 2
-80 4 0 3 22 34 49 70 74 97 92 176 57 244 -30 59 -114 79 -183 45z"/>
<path d="M24553 7210 c-59 -35 -78 -101 -47 -165 27 -57 88 -81 151 -61 19 6
22 4 16 -11 -9 -27 -53 -84 -91 -119 -33 -30 -33 -30 -13 -48 25 -23 44 -13
104 54 105 117 117 294 23 351 -40 24 -102 24 -143 -1z m121 -59 c9 -10 19
-34 23 -54 4 -29 2 -37 -16 -47 -57 -30 -123 -1 -123 54 0 58 78 90 116 47z"/>
<path d="M24927 7178 c-71 -70 -101 -134 -105 -223 -3 -78 14 -119 63 -151 37
-24 109 -23 143 2 70 52 77 141 16 202 -32 32 -38 34 -88 30 -50 -4 -53 -3
-48 16 3 12 31 46 62 77 52 53 55 58 42 78 -8 11 -18 21 -23 21 -4 0 -32 -24
-62 -52z m75 -215 c18 -16 24 -68 10 -90 -22 -35 -90 -32 -118 5 -20 25 -17
79 4 91 27 16 83 13 104 -6z"/>
<path d="M6850 7199 c-42 -17 -60 -40 -60 -76 l0 -34 33 25 c40 31 96 35 119
9 46 -53 28 -112 -78 -254 -41 -54 -74 -101 -74 -104 0 -3 61 -5 135 -5 l135
0 0 35 0 35 -75 0 c-41 0 -75 3 -75 6 0 3 15 24 34 47 123 151 109 303 -31
322 -21 2 -49 0 -63 -6z"/>
<path d="M7185 7196 c-45 -20 -67 -50 -73 -102 -10 -89 52 -153 137 -141 22 3
41 2 41 -1 0 -18 -46 -81 -83 -114 l-42 -37 22 -22 21 -22 54 51 c136 129 156
322 39 381 -46 24 -74 26 -116 7z m108 -78 c24 -28 23 -84 -2 -98 -81 -43
-164 55 -94 110 32 25 69 20 96 -12z"/>
<path d="M7490 7199 c-42 -17 -60 -40 -60 -76 l0 -34 33 25 c40 31 96 35 119
9 46 -53 28 -112 -78 -254 -41 -54 -74 -101 -74 -104 0 -3 61 -5 135 -5 l135
0 0 35 0 35 -75 0 c-41 0 -75 3 -75 6 0 3 15 24 34 47 123 151 109 303 -31
322 -21 2 -49 0 -63 -6z"/>
<path d="M13038 7010 c-35 -19 -38 -24 -38 -62 l0 -41 23 21 c32 30 73 43 100
33 39 -15 50 -37 45 -89 -5 -50 -48 -125 -130 -223 -21 -26 -38 -50 -38 -53 0
-3 61 -6 135 -6 l135 0 0 30 0 30 -81 0 -82 0 27 33 c41 50 85 128 97 172 32
117 -87 213 -193 155z"/>
<path d="M13426 6969 c-127 -130 -143 -295 -36 -367 102 -69 235 46 187 161
-26 61 -105 95 -158 67 -10 -6 -19 -7 -19 -3 0 19 45 81 85 118 l44 40 -20 24
-20 24 -63 -64z m75 -207 c43 -36 18 -122 -37 -122 -12 0 -30 3 -39 6 -20 8
-45 56 -45 87 0 44 79 62 121 29z"/>
<path d="M13728 6895 c-60 -74 -108 -141 -108 -149 0 -13 15 -16 90 -16 l90 0
0 -70 0 -70 30 0 30 0 0 70 c0 68 1 70 25 70 21 0 25 5 25 30 0 25 -4 30 -25
30 l-25 0 0 120 c0 90 -3 120 -12 119 -7 0 -61 -60 -120 -134z m69 -102 c-3
-2 -23 -3 -46 -1 l-40 3 42 54 42 54 3 -53 c2 -29 1 -54 -1 -57z"/>
<path d="M15540 6759 c-42 -17 -60 -40 -60 -76 l0 -35 31 26 c21 18 42 26 67
26 43 0 55 -7 71 -37 26 -50 4 -101 -100 -239 -38 -51 -69 -94 -69 -98 0 -3
61 -6 135 -6 l135 0 0 35 0 35 -82 0 -82 0 26 28 c67 72 108 157 108 221 0 91
-94 154 -180 120z"/>
<path d="M15860 6759 c-42 -17 -60 -40 -60 -76 l0 -35 31 26 c21 18 42 26 67
26 43 0 55 -7 71 -37 26 -50 4 -101 -100 -239 -38 -51 -69 -94 -69 -98 0 -3
61 -6 135 -6 l135 0 0 35 0 35 -82 0 -82 0 26 28 c67 72 108 157 108 221 0 91
-94 154 -180 120z"/>
<path d="M16173 6760 c-17 -7 -23 -18 -23 -38 l0 -29 41 11 c32 8 45 7 66 -4
54 -31 45 -97 -15 -115 -26 -7 -32 -14 -32 -37 0 -21 5 -28 19 -28 10 0 30
-10 45 -21 35 -28 33 -73 -6 -102 -27 -20 -59 -18 -120 8 -15 6 -18 2 -18 -24
0 -27 5 -34 37 -48 110 -45 218 41 193 154 -5 21 -18 45 -28 54 -19 15 -19 16
4 43 28 32 31 83 9 125 -25 50 -112 75 -172 51z"/>
</g>
</svg>
