<?xml version="1.0" standalone="no"?>
<!DOCTYPE svg PUBLIC "-//W3C//DTD SVG 20010904//EN"
 "http://www.w3.org/TR/2001/REC-SVG-20010904/DTD/svg10.dtd">
<svg version="1.0" xmlns="http://www.w3.org/2000/svg"
 width="64.000000pt" height="64.000000pt" viewBox="0 0 64.000000 64.000000"
 preserveAspectRatio="xMidYMid meet">

<g transform="translate(0.000000,64.000000) scale(0.100000,-0.100000)"
fill="#000000" stroke="none">
<path d="M304 627 c-11 -29 0 -92 16 -92 11 0 15 12 15 49 0 49 -19 74 -31 43z"/>
<path d="M90 531 c0 -11 14 -31 31 -45 25 -21 34 -24 46 -15 12 10 9 17 -19
46 -36 37 -58 42 -58 14z"/>
<path d="M492 517 c-28 -29 -31 -36 -19 -46 12 -9 21 -6 46 15 31 26 42 64 18
64 -7 0 -28 -15 -45 -33z"/>
<path d="M255 466 c-101 -44 -125 -178 -46 -257 65 -65 157 -65 222 0 124 124
-15 327 -176 257z"/>
<path d="M5 330 c-12 -20 11 -31 56 -28 31 2 44 7 44 18 0 19 -89 27 -100 10z"/>
<path d="M535 330 c-12 -20 11 -31 56 -28 31 2 44 7 44 18 0 19 -89 27 -100
10z"/>
<path d="M121 154 c-31 -26 -42 -64 -18 -64 7 0 28 15 45 33 28 29 31 36 19
46 -12 9 -21 6 -46 -15z"/>
<path d="M470 165 c-10 -12 -6 -20 18 -45 48 -48 83 -35 46 18 -23 33 -49 45
-64 27z"/>
<path d="M304 97 c-11 -29 0 -92 16 -92 11 0 15 12 15 49 0 49 -19 74 -31 43z"/>
</g>
</svg>
